%TF.GenerationSoftware,KiCad,Pcbnew,6.0.0-d3dd2cf0fa~116~ubuntu20.04.1*%
%TF.CreationDate,2022-01-26T23:02:35+01:00*%
%TF.ProjectId,han_to_wifi_board,68616e5f-746f-45f7-9769-66695f626f61,rev?*%
%TF.SameCoordinates,Original*%
%TF.FileFunction,Legend,Top*%
%TF.FilePolarity,Positive*%
%FSLAX46Y46*%
G04 Gerber Fmt 4.6, Leading zero omitted, Abs format (unit mm)*
G04 Created by KiCad (PCBNEW 6.0.0-d3dd2cf0fa~116~ubuntu20.04.1) date 2022-01-26 23:02:35*
%MOMM*%
%LPD*%
G01*
G04 APERTURE LIST*
G04 Aperture macros list*
%AMRoundRect*
0 Rectangle with rounded corners*
0 $1 Rounding radius*
0 $2 $3 $4 $5 $6 $7 $8 $9 X,Y pos of 4 corners*
0 Add a 4 corners polygon primitive as box body*
4,1,4,$2,$3,$4,$5,$6,$7,$8,$9,$2,$3,0*
0 Add four circle primitives for the rounded corners*
1,1,$1+$1,$2,$3*
1,1,$1+$1,$4,$5*
1,1,$1+$1,$6,$7*
1,1,$1+$1,$8,$9*
0 Add four rect primitives between the rounded corners*
20,1,$1+$1,$2,$3,$4,$5,0*
20,1,$1+$1,$4,$5,$6,$7,0*
20,1,$1+$1,$6,$7,$8,$9,0*
20,1,$1+$1,$8,$9,$2,$3,0*%
G04 Aperture macros list end*
%ADD10C,0.150000*%
%ADD11C,0.254000*%
%ADD12C,0.120000*%
%ADD13C,0.100000*%
%ADD14C,0.200000*%
%ADD15RoundRect,0.140000X-0.170000X0.140000X-0.170000X-0.140000X0.170000X-0.140000X0.170000X0.140000X0*%
%ADD16RoundRect,0.225000X0.225000X0.250000X-0.225000X0.250000X-0.225000X-0.250000X0.225000X-0.250000X0*%
%ADD17RoundRect,0.250000X0.250000X0.475000X-0.250000X0.475000X-0.250000X-0.475000X0.250000X-0.475000X0*%
%ADD18RoundRect,0.250000X0.475000X-0.250000X0.475000X0.250000X-0.475000X0.250000X-0.475000X-0.250000X0*%
%ADD19RoundRect,0.250000X-0.475000X0.250000X-0.475000X-0.250000X0.475000X-0.250000X0.475000X0.250000X0*%
%ADD20RoundRect,0.147500X0.172500X-0.147500X0.172500X0.147500X-0.172500X0.147500X-0.172500X-0.147500X0*%
%ADD21RoundRect,0.218750X-0.218750X-0.256250X0.218750X-0.256250X0.218750X0.256250X-0.218750X0.256250X0*%
%ADD22RoundRect,0.135000X-0.185000X0.135000X-0.185000X-0.135000X0.185000X-0.135000X0.185000X0.135000X0*%
%ADD23RoundRect,0.135000X0.135000X0.185000X-0.135000X0.185000X-0.135000X-0.185000X0.135000X-0.185000X0*%
%ADD24RoundRect,0.135000X0.185000X-0.135000X0.185000X0.135000X-0.185000X0.135000X-0.185000X-0.135000X0*%
%ADD25RoundRect,0.135000X-0.135000X-0.185000X0.135000X-0.185000X0.135000X0.185000X-0.135000X0.185000X0*%
%ADD26RoundRect,0.200000X0.200000X0.275000X-0.200000X0.275000X-0.200000X-0.275000X0.200000X-0.275000X0*%
%ADD27RoundRect,0.200000X0.275000X-0.200000X0.275000X0.200000X-0.275000X0.200000X-0.275000X-0.200000X0*%
%ADD28RoundRect,0.200000X-0.275000X0.200000X-0.275000X-0.200000X0.275000X-0.200000X0.275000X0.200000X0*%
%ADD29R,1.270000X3.180000*%
%ADD30C,1.524000*%
%ADD31R,1.200000X0.600000*%
%ADD32R,1.450000X0.700000*%
%ADD33R,2.500000X1.000000*%
%ADD34R,1.000000X1.800000*%
%ADD35R,0.650000X1.550000*%
%ADD36RoundRect,0.225000X-0.225000X-0.250000X0.225000X-0.250000X0.225000X0.250000X-0.225000X0.250000X0*%
%ADD37RoundRect,0.225000X-0.250000X0.225000X-0.250000X-0.225000X0.250000X-0.225000X0.250000X0.225000X0*%
%ADD38RoundRect,0.225000X0.250000X-0.225000X0.250000X0.225000X-0.250000X0.225000X-0.250000X-0.225000X0*%
%ADD39R,0.300000X1.400000*%
%ADD40R,2.947000X1.753000*%
%ADD41R,0.800000X1.150000*%
%ADD42R,2.240000X3.510000*%
%ADD43R,0.760000X4.750000*%
G04 APERTURE END LIST*
D10*
X122690000Y-98200595D02*
X122642380Y-98295833D01*
X122642380Y-98438690D01*
X122690000Y-98581547D01*
X122785238Y-98676785D01*
X122880476Y-98724404D01*
X123070952Y-98772023D01*
X123213809Y-98772023D01*
X123404285Y-98724404D01*
X123499523Y-98676785D01*
X123594761Y-98581547D01*
X123642380Y-98438690D01*
X123642380Y-98343452D01*
X123594761Y-98200595D01*
X123547142Y-98152976D01*
X123213809Y-98152976D01*
X123213809Y-98343452D01*
X123642380Y-97724404D02*
X122642380Y-97724404D01*
X123642380Y-97152976D01*
X122642380Y-97152976D01*
X123642380Y-96676785D02*
X122642380Y-96676785D01*
X122642380Y-96438690D01*
X122690000Y-96295833D01*
X122785238Y-96200595D01*
X122880476Y-96152976D01*
X123070952Y-96105357D01*
X123213809Y-96105357D01*
X123404285Y-96152976D01*
X123499523Y-96200595D01*
X123594761Y-96295833D01*
X123642380Y-96438690D01*
X123642380Y-96676785D01*
X120150000Y-98200595D02*
X120102380Y-98295833D01*
X120102380Y-98438690D01*
X120150000Y-98581547D01*
X120245238Y-98676785D01*
X120340476Y-98724404D01*
X120530952Y-98772023D01*
X120673809Y-98772023D01*
X120864285Y-98724404D01*
X120959523Y-98676785D01*
X121054761Y-98581547D01*
X121102380Y-98438690D01*
X121102380Y-98343452D01*
X121054761Y-98200595D01*
X121007142Y-98152976D01*
X120673809Y-98152976D01*
X120673809Y-98343452D01*
X121102380Y-97724404D02*
X120102380Y-97724404D01*
X120102380Y-97343452D01*
X120150000Y-97248214D01*
X120197619Y-97200595D01*
X120292857Y-97152976D01*
X120435714Y-97152976D01*
X120530952Y-97200595D01*
X120578571Y-97248214D01*
X120626190Y-97343452D01*
X120626190Y-97724404D01*
X121102380Y-96724404D02*
X120102380Y-96724404D01*
X120102380Y-96057738D02*
X120102380Y-95867261D01*
X120150000Y-95772023D01*
X120245238Y-95676785D01*
X120435714Y-95629166D01*
X120769047Y-95629166D01*
X120959523Y-95676785D01*
X121054761Y-95772023D01*
X121102380Y-95867261D01*
X121102380Y-96057738D01*
X121054761Y-96152976D01*
X120959523Y-96248214D01*
X120769047Y-96295833D01*
X120435714Y-96295833D01*
X120245238Y-96248214D01*
X120150000Y-96152976D01*
X120102380Y-96057738D01*
X120102380Y-95010119D02*
X120102380Y-94914880D01*
X120150000Y-94819642D01*
X120197619Y-94772023D01*
X120292857Y-94724404D01*
X120483333Y-94676785D01*
X120721428Y-94676785D01*
X120911904Y-94724404D01*
X121007142Y-94772023D01*
X121054761Y-94819642D01*
X121102380Y-94914880D01*
X121102380Y-95010119D01*
X121054761Y-95105357D01*
X121007142Y-95152976D01*
X120911904Y-95200595D01*
X120721428Y-95248214D01*
X120483333Y-95248214D01*
X120292857Y-95200595D01*
X120197619Y-95152976D01*
X120150000Y-95105357D01*
X120102380Y-95010119D01*
X118562380Y-98152976D02*
X118086190Y-98486309D01*
X118562380Y-98724404D02*
X117562380Y-98724404D01*
X117562380Y-98343452D01*
X117610000Y-98248214D01*
X117657619Y-98200595D01*
X117752857Y-98152976D01*
X117895714Y-98152976D01*
X117990952Y-98200595D01*
X118038571Y-98248214D01*
X118086190Y-98343452D01*
X118086190Y-98724404D01*
X118562380Y-97819642D02*
X117895714Y-97295833D01*
X117895714Y-97819642D02*
X118562380Y-97295833D01*
X115022380Y-98867261D02*
X115022380Y-98295833D01*
X116022380Y-98581547D02*
X115022380Y-98581547D01*
X116022380Y-98057738D02*
X115355714Y-97533928D01*
X115355714Y-98057738D02*
X116022380Y-97533928D01*
X132159952Y-143978380D02*
X132159952Y-144692666D01*
X132112333Y-144835523D01*
X132017095Y-144930761D01*
X131874238Y-144978380D01*
X131779000Y-144978380D01*
X133112333Y-144978380D02*
X132636142Y-144978380D01*
X132636142Y-143978380D01*
X134017095Y-144883142D02*
X133969476Y-144930761D01*
X133826619Y-144978380D01*
X133731380Y-144978380D01*
X133588523Y-144930761D01*
X133493285Y-144835523D01*
X133445666Y-144740285D01*
X133398047Y-144549809D01*
X133398047Y-144406952D01*
X133445666Y-144216476D01*
X133493285Y-144121238D01*
X133588523Y-144026000D01*
X133731380Y-143978380D01*
X133826619Y-143978380D01*
X133969476Y-144026000D01*
X134017095Y-144073619D01*
X134731380Y-143978380D02*
X134731380Y-144692666D01*
X134683761Y-144835523D01*
X134588523Y-144930761D01*
X134445666Y-144978380D01*
X134350428Y-144978380D01*
X135683761Y-144978380D02*
X135207571Y-144978380D01*
X135207571Y-143978380D01*
X136588523Y-144883142D02*
X136540904Y-144930761D01*
X136398047Y-144978380D01*
X136302809Y-144978380D01*
X136159952Y-144930761D01*
X136064714Y-144835523D01*
X136017095Y-144740285D01*
X135969476Y-144549809D01*
X135969476Y-144406952D01*
X136017095Y-144216476D01*
X136064714Y-144121238D01*
X136159952Y-144026000D01*
X136302809Y-143978380D01*
X136398047Y-143978380D01*
X136540904Y-144026000D01*
X136588523Y-144073619D01*
X137302809Y-143978380D02*
X137302809Y-144692666D01*
X137255190Y-144835523D01*
X137159952Y-144930761D01*
X137017095Y-144978380D01*
X136921857Y-144978380D01*
X138255190Y-144978380D02*
X137779000Y-144978380D01*
X137779000Y-143978380D01*
X139159952Y-144883142D02*
X139112333Y-144930761D01*
X138969476Y-144978380D01*
X138874238Y-144978380D01*
X138731380Y-144930761D01*
X138636142Y-144835523D01*
X138588523Y-144740285D01*
X138540904Y-144549809D01*
X138540904Y-144406952D01*
X138588523Y-144216476D01*
X138636142Y-144121238D01*
X138731380Y-144026000D01*
X138874238Y-143978380D01*
X138969476Y-143978380D01*
X139112333Y-144026000D01*
X139159952Y-144073619D01*
X139874238Y-143978380D02*
X139874238Y-144692666D01*
X139826619Y-144835523D01*
X139731380Y-144930761D01*
X139588523Y-144978380D01*
X139493285Y-144978380D01*
X140826619Y-144978380D02*
X140350428Y-144978380D01*
X140350428Y-143978380D01*
X141731380Y-144883142D02*
X141683761Y-144930761D01*
X141540904Y-144978380D01*
X141445666Y-144978380D01*
X141302809Y-144930761D01*
X141207571Y-144835523D01*
X141159952Y-144740285D01*
X141112333Y-144549809D01*
X141112333Y-144406952D01*
X141159952Y-144216476D01*
X141207571Y-144121238D01*
X141302809Y-144026000D01*
X141445666Y-143978380D01*
X141540904Y-143978380D01*
X141683761Y-144026000D01*
X141731380Y-144073619D01*
%TO.C,C9*%
X120753142Y-140374666D02*
X120800761Y-140422285D01*
X120848380Y-140565142D01*
X120848380Y-140660380D01*
X120800761Y-140803238D01*
X120705523Y-140898476D01*
X120610285Y-140946095D01*
X120419809Y-140993714D01*
X120276952Y-140993714D01*
X120086476Y-140946095D01*
X119991238Y-140898476D01*
X119896000Y-140803238D01*
X119848380Y-140660380D01*
X119848380Y-140565142D01*
X119896000Y-140422285D01*
X119943619Y-140374666D01*
X120848380Y-139898476D02*
X120848380Y-139708000D01*
X120800761Y-139612761D01*
X120753142Y-139565142D01*
X120610285Y-139469904D01*
X120419809Y-139422285D01*
X120038857Y-139422285D01*
X119943619Y-139469904D01*
X119896000Y-139517523D01*
X119848380Y-139612761D01*
X119848380Y-139803238D01*
X119896000Y-139898476D01*
X119943619Y-139946095D01*
X120038857Y-139993714D01*
X120276952Y-139993714D01*
X120372190Y-139946095D01*
X120419809Y-139898476D01*
X120467428Y-139803238D01*
X120467428Y-139612761D01*
X120419809Y-139517523D01*
X120372190Y-139469904D01*
X120276952Y-139422285D01*
%TO.C,C8*%
X113498333Y-138947142D02*
X113450714Y-138994761D01*
X113307857Y-139042380D01*
X113212619Y-139042380D01*
X113069761Y-138994761D01*
X112974523Y-138899523D01*
X112926904Y-138804285D01*
X112879285Y-138613809D01*
X112879285Y-138470952D01*
X112926904Y-138280476D01*
X112974523Y-138185238D01*
X113069761Y-138090000D01*
X113212619Y-138042380D01*
X113307857Y-138042380D01*
X113450714Y-138090000D01*
X113498333Y-138137619D01*
X114069761Y-138470952D02*
X113974523Y-138423333D01*
X113926904Y-138375714D01*
X113879285Y-138280476D01*
X113879285Y-138232857D01*
X113926904Y-138137619D01*
X113974523Y-138090000D01*
X114069761Y-138042380D01*
X114260238Y-138042380D01*
X114355476Y-138090000D01*
X114403095Y-138137619D01*
X114450714Y-138232857D01*
X114450714Y-138280476D01*
X114403095Y-138375714D01*
X114355476Y-138423333D01*
X114260238Y-138470952D01*
X114069761Y-138470952D01*
X113974523Y-138518571D01*
X113926904Y-138566190D01*
X113879285Y-138661428D01*
X113879285Y-138851904D01*
X113926904Y-138947142D01*
X113974523Y-138994761D01*
X114069761Y-139042380D01*
X114260238Y-139042380D01*
X114355476Y-138994761D01*
X114403095Y-138947142D01*
X114450714Y-138851904D01*
X114450714Y-138661428D01*
X114403095Y-138566190D01*
X114355476Y-138518571D01*
X114260238Y-138470952D01*
%TO.C,C5*%
X117710833Y-139041142D02*
X117663214Y-139088761D01*
X117520357Y-139136380D01*
X117425119Y-139136380D01*
X117282261Y-139088761D01*
X117187023Y-138993523D01*
X117139404Y-138898285D01*
X117091785Y-138707809D01*
X117091785Y-138564952D01*
X117139404Y-138374476D01*
X117187023Y-138279238D01*
X117282261Y-138184000D01*
X117425119Y-138136380D01*
X117520357Y-138136380D01*
X117663214Y-138184000D01*
X117710833Y-138231619D01*
X118615595Y-138136380D02*
X118139404Y-138136380D01*
X118091785Y-138612571D01*
X118139404Y-138564952D01*
X118234642Y-138517333D01*
X118472738Y-138517333D01*
X118567976Y-138564952D01*
X118615595Y-138612571D01*
X118663214Y-138707809D01*
X118663214Y-138945904D01*
X118615595Y-139041142D01*
X118567976Y-139088761D01*
X118472738Y-139136380D01*
X118234642Y-139136380D01*
X118139404Y-139088761D01*
X118091785Y-139041142D01*
%TO.C,C4*%
X112215142Y-147740666D02*
X112262761Y-147788285D01*
X112310380Y-147931142D01*
X112310380Y-148026380D01*
X112262761Y-148169238D01*
X112167523Y-148264476D01*
X112072285Y-148312095D01*
X111881809Y-148359714D01*
X111738952Y-148359714D01*
X111548476Y-148312095D01*
X111453238Y-148264476D01*
X111358000Y-148169238D01*
X111310380Y-148026380D01*
X111310380Y-147931142D01*
X111358000Y-147788285D01*
X111405619Y-147740666D01*
X111643714Y-146883523D02*
X112310380Y-146883523D01*
X111262761Y-147121619D02*
X111977047Y-147359714D01*
X111977047Y-146740666D01*
%TO.C,C11*%
X116197142Y-131675142D02*
X116149523Y-131722761D01*
X116006666Y-131770380D01*
X115911428Y-131770380D01*
X115768571Y-131722761D01*
X115673333Y-131627523D01*
X115625714Y-131532285D01*
X115578095Y-131341809D01*
X115578095Y-131198952D01*
X115625714Y-131008476D01*
X115673333Y-130913238D01*
X115768571Y-130818000D01*
X115911428Y-130770380D01*
X116006666Y-130770380D01*
X116149523Y-130818000D01*
X116197142Y-130865619D01*
X117149523Y-131770380D02*
X116578095Y-131770380D01*
X116863809Y-131770380D02*
X116863809Y-130770380D01*
X116768571Y-130913238D01*
X116673333Y-131008476D01*
X116578095Y-131056095D01*
X118101904Y-131770380D02*
X117530476Y-131770380D01*
X117816190Y-131770380D02*
X117816190Y-130770380D01*
X117720952Y-130913238D01*
X117625714Y-131008476D01*
X117530476Y-131056095D01*
%TO.C,D2*%
X126182380Y-141200095D02*
X125182380Y-141200095D01*
X125182380Y-140962000D01*
X125230000Y-140819142D01*
X125325238Y-140723904D01*
X125420476Y-140676285D01*
X125610952Y-140628666D01*
X125753809Y-140628666D01*
X125944285Y-140676285D01*
X126039523Y-140723904D01*
X126134761Y-140819142D01*
X126182380Y-140962000D01*
X126182380Y-141200095D01*
X125277619Y-140247714D02*
X125230000Y-140200095D01*
X125182380Y-140104857D01*
X125182380Y-139866761D01*
X125230000Y-139771523D01*
X125277619Y-139723904D01*
X125372857Y-139676285D01*
X125468095Y-139676285D01*
X125610952Y-139723904D01*
X126182380Y-140295333D01*
X126182380Y-139676285D01*
%TO.C,D3*%
X127531904Y-128468380D02*
X127531904Y-127468380D01*
X127770000Y-127468380D01*
X127912857Y-127516000D01*
X128008095Y-127611238D01*
X128055714Y-127706476D01*
X128103333Y-127896952D01*
X128103333Y-128039809D01*
X128055714Y-128230285D01*
X128008095Y-128325523D01*
X127912857Y-128420761D01*
X127770000Y-128468380D01*
X127531904Y-128468380D01*
X128436666Y-127468380D02*
X129055714Y-127468380D01*
X128722380Y-127849333D01*
X128865238Y-127849333D01*
X128960476Y-127896952D01*
X129008095Y-127944571D01*
X129055714Y-128039809D01*
X129055714Y-128277904D01*
X129008095Y-128373142D01*
X128960476Y-128420761D01*
X128865238Y-128468380D01*
X128579523Y-128468380D01*
X128484285Y-128420761D01*
X128436666Y-128373142D01*
%TO.C,R16*%
X122907380Y-141104857D02*
X122431190Y-141438190D01*
X122907380Y-141676285D02*
X121907380Y-141676285D01*
X121907380Y-141295333D01*
X121955000Y-141200095D01*
X122002619Y-141152476D01*
X122097857Y-141104857D01*
X122240714Y-141104857D01*
X122335952Y-141152476D01*
X122383571Y-141200095D01*
X122431190Y-141295333D01*
X122431190Y-141676285D01*
X122907380Y-140152476D02*
X122907380Y-140723904D01*
X122907380Y-140438190D02*
X121907380Y-140438190D01*
X122050238Y-140533428D01*
X122145476Y-140628666D01*
X122193095Y-140723904D01*
X121907380Y-139295333D02*
X121907380Y-139485809D01*
X121955000Y-139581047D01*
X122002619Y-139628666D01*
X122145476Y-139723904D01*
X122335952Y-139771523D01*
X122716904Y-139771523D01*
X122812142Y-139723904D01*
X122859761Y-139676285D01*
X122907380Y-139581047D01*
X122907380Y-139390571D01*
X122859761Y-139295333D01*
X122812142Y-139247714D01*
X122716904Y-139200095D01*
X122478809Y-139200095D01*
X122383571Y-139247714D01*
X122335952Y-139295333D01*
X122288333Y-139390571D01*
X122288333Y-139581047D01*
X122335952Y-139676285D01*
X122383571Y-139723904D01*
X122478809Y-139771523D01*
%TO.C,R14*%
X116959142Y-142438380D02*
X116625809Y-141962190D01*
X116387714Y-142438380D02*
X116387714Y-141438380D01*
X116768666Y-141438380D01*
X116863904Y-141486000D01*
X116911523Y-141533619D01*
X116959142Y-141628857D01*
X116959142Y-141771714D01*
X116911523Y-141866952D01*
X116863904Y-141914571D01*
X116768666Y-141962190D01*
X116387714Y-141962190D01*
X117911523Y-142438380D02*
X117340095Y-142438380D01*
X117625809Y-142438380D02*
X117625809Y-141438380D01*
X117530571Y-141581238D01*
X117435333Y-141676476D01*
X117340095Y-141724095D01*
X118768666Y-141771714D02*
X118768666Y-142438380D01*
X118530571Y-141390761D02*
X118292476Y-142105047D01*
X118911523Y-142105047D01*
%TO.C,R13*%
X135998283Y-123896380D02*
X135664950Y-123420190D01*
X135426855Y-123896380D02*
X135426855Y-122896380D01*
X135807807Y-122896380D01*
X135903045Y-122944000D01*
X135950664Y-122991619D01*
X135998283Y-123086857D01*
X135998283Y-123229714D01*
X135950664Y-123324952D01*
X135903045Y-123372571D01*
X135807807Y-123420190D01*
X135426855Y-123420190D01*
X136950664Y-123896380D02*
X136379236Y-123896380D01*
X136664950Y-123896380D02*
X136664950Y-122896380D01*
X136569712Y-123039238D01*
X136474474Y-123134476D01*
X136379236Y-123182095D01*
X137283998Y-122896380D02*
X137903045Y-122896380D01*
X137569712Y-123277333D01*
X137712569Y-123277333D01*
X137807807Y-123324952D01*
X137855426Y-123372571D01*
X137903045Y-123467809D01*
X137903045Y-123705904D01*
X137855426Y-123801142D01*
X137807807Y-123848761D01*
X137712569Y-123896380D01*
X137426855Y-123896380D01*
X137331617Y-123848761D01*
X137283998Y-123801142D01*
%TO.C,R10*%
X136342380Y-129420857D02*
X135866190Y-129754190D01*
X136342380Y-129992285D02*
X135342380Y-129992285D01*
X135342380Y-129611333D01*
X135390000Y-129516095D01*
X135437619Y-129468476D01*
X135532857Y-129420857D01*
X135675714Y-129420857D01*
X135770952Y-129468476D01*
X135818571Y-129516095D01*
X135866190Y-129611333D01*
X135866190Y-129992285D01*
X136342380Y-128468476D02*
X136342380Y-129039904D01*
X136342380Y-128754190D02*
X135342380Y-128754190D01*
X135485238Y-128849428D01*
X135580476Y-128944666D01*
X135628095Y-129039904D01*
X135342380Y-127849428D02*
X135342380Y-127754190D01*
X135390000Y-127658952D01*
X135437619Y-127611333D01*
X135532857Y-127563714D01*
X135723333Y-127516095D01*
X135961428Y-127516095D01*
X136151904Y-127563714D01*
X136247142Y-127611333D01*
X136294761Y-127658952D01*
X136342380Y-127754190D01*
X136342380Y-127849428D01*
X136294761Y-127944666D01*
X136247142Y-127992285D01*
X136151904Y-128039904D01*
X135961428Y-128087523D01*
X135723333Y-128087523D01*
X135532857Y-128039904D01*
X135437619Y-127992285D01*
X135390000Y-127944666D01*
X135342380Y-127849428D01*
%TO.C,R7*%
X119324380Y-116498666D02*
X118848190Y-116832000D01*
X119324380Y-117070095D02*
X118324380Y-117070095D01*
X118324380Y-116689142D01*
X118372000Y-116593904D01*
X118419619Y-116546285D01*
X118514857Y-116498666D01*
X118657714Y-116498666D01*
X118752952Y-116546285D01*
X118800571Y-116593904D01*
X118848190Y-116689142D01*
X118848190Y-117070095D01*
X118324380Y-116165333D02*
X118324380Y-115498666D01*
X119324380Y-115927238D01*
%TO.C,R6*%
X117392380Y-144984166D02*
X116916190Y-145317500D01*
X117392380Y-145555595D02*
X116392380Y-145555595D01*
X116392380Y-145174642D01*
X116440000Y-145079404D01*
X116487619Y-145031785D01*
X116582857Y-144984166D01*
X116725714Y-144984166D01*
X116820952Y-145031785D01*
X116868571Y-145079404D01*
X116916190Y-145174642D01*
X116916190Y-145555595D01*
X116392380Y-144127023D02*
X116392380Y-144317500D01*
X116440000Y-144412738D01*
X116487619Y-144460357D01*
X116630476Y-144555595D01*
X116820952Y-144603214D01*
X117201904Y-144603214D01*
X117297142Y-144555595D01*
X117344761Y-144507976D01*
X117392380Y-144412738D01*
X117392380Y-144222261D01*
X117344761Y-144127023D01*
X117297142Y-144079404D01*
X117201904Y-144031785D01*
X116963809Y-144031785D01*
X116868571Y-144079404D01*
X116820952Y-144127023D01*
X116773333Y-144222261D01*
X116773333Y-144412738D01*
X116820952Y-144507976D01*
X116868571Y-144555595D01*
X116963809Y-144603214D01*
%TO.C,R4*%
X142073333Y-121864380D02*
X141740000Y-121388190D01*
X141501904Y-121864380D02*
X141501904Y-120864380D01*
X141882857Y-120864380D01*
X141978095Y-120912000D01*
X142025714Y-120959619D01*
X142073333Y-121054857D01*
X142073333Y-121197714D01*
X142025714Y-121292952D01*
X141978095Y-121340571D01*
X141882857Y-121388190D01*
X141501904Y-121388190D01*
X142930476Y-121197714D02*
X142930476Y-121864380D01*
X142692380Y-120816761D02*
X142454285Y-121531047D01*
X143073333Y-121531047D01*
%TO.C,R1*%
X133818333Y-121837380D02*
X133485000Y-121361190D01*
X133246904Y-121837380D02*
X133246904Y-120837380D01*
X133627857Y-120837380D01*
X133723095Y-120885000D01*
X133770714Y-120932619D01*
X133818333Y-121027857D01*
X133818333Y-121170714D01*
X133770714Y-121265952D01*
X133723095Y-121313571D01*
X133627857Y-121361190D01*
X133246904Y-121361190D01*
X134770714Y-121837380D02*
X134199285Y-121837380D01*
X134485000Y-121837380D02*
X134485000Y-120837380D01*
X134389761Y-120980238D01*
X134294523Y-121075476D01*
X134199285Y-121123095D01*
%TO.C,R2*%
X145248333Y-121864380D02*
X144915000Y-121388190D01*
X144676904Y-121864380D02*
X144676904Y-120864380D01*
X145057857Y-120864380D01*
X145153095Y-120912000D01*
X145200714Y-120959619D01*
X145248333Y-121054857D01*
X145248333Y-121197714D01*
X145200714Y-121292952D01*
X145153095Y-121340571D01*
X145057857Y-121388190D01*
X144676904Y-121388190D01*
X145629285Y-120959619D02*
X145676904Y-120912000D01*
X145772142Y-120864380D01*
X146010238Y-120864380D01*
X146105476Y-120912000D01*
X146153095Y-120959619D01*
X146200714Y-121054857D01*
X146200714Y-121150095D01*
X146153095Y-121292952D01*
X145581666Y-121864380D01*
X146200714Y-121864380D01*
%TO.C,R3*%
X139025333Y-121864380D02*
X138692000Y-121388190D01*
X138453904Y-121864380D02*
X138453904Y-120864380D01*
X138834857Y-120864380D01*
X138930095Y-120912000D01*
X138977714Y-120959619D01*
X139025333Y-121054857D01*
X139025333Y-121197714D01*
X138977714Y-121292952D01*
X138930095Y-121340571D01*
X138834857Y-121388190D01*
X138453904Y-121388190D01*
X139358666Y-120864380D02*
X139977714Y-120864380D01*
X139644380Y-121245333D01*
X139787238Y-121245333D01*
X139882476Y-121292952D01*
X139930095Y-121340571D01*
X139977714Y-121435809D01*
X139977714Y-121673904D01*
X139930095Y-121769142D01*
X139882476Y-121816761D01*
X139787238Y-121864380D01*
X139501523Y-121864380D01*
X139406285Y-121816761D01*
X139358666Y-121769142D01*
%TO.C,R8*%
X138374380Y-128436666D02*
X137898190Y-128770000D01*
X138374380Y-129008095D02*
X137374380Y-129008095D01*
X137374380Y-128627142D01*
X137422000Y-128531904D01*
X137469619Y-128484285D01*
X137564857Y-128436666D01*
X137707714Y-128436666D01*
X137802952Y-128484285D01*
X137850571Y-128531904D01*
X137898190Y-128627142D01*
X137898190Y-129008095D01*
X137802952Y-127865238D02*
X137755333Y-127960476D01*
X137707714Y-128008095D01*
X137612476Y-128055714D01*
X137564857Y-128055714D01*
X137469619Y-128008095D01*
X137422000Y-127960476D01*
X137374380Y-127865238D01*
X137374380Y-127674761D01*
X137422000Y-127579523D01*
X137469619Y-127531904D01*
X137564857Y-127484285D01*
X137612476Y-127484285D01*
X137707714Y-127531904D01*
X137755333Y-127579523D01*
X137802952Y-127674761D01*
X137802952Y-127865238D01*
X137850571Y-127960476D01*
X137898190Y-128008095D01*
X137993428Y-128055714D01*
X138183904Y-128055714D01*
X138279142Y-128008095D01*
X138326761Y-127960476D01*
X138374380Y-127865238D01*
X138374380Y-127674761D01*
X138326761Y-127579523D01*
X138279142Y-127531904D01*
X138183904Y-127484285D01*
X137993428Y-127484285D01*
X137898190Y-127531904D01*
X137850571Y-127579523D01*
X137802952Y-127674761D01*
%TO.C,R5*%
X125563333Y-124912380D02*
X125230000Y-124436190D01*
X124991904Y-124912380D02*
X124991904Y-123912380D01*
X125372857Y-123912380D01*
X125468095Y-123960000D01*
X125515714Y-124007619D01*
X125563333Y-124102857D01*
X125563333Y-124245714D01*
X125515714Y-124340952D01*
X125468095Y-124388571D01*
X125372857Y-124436190D01*
X124991904Y-124436190D01*
X126468095Y-123912380D02*
X125991904Y-123912380D01*
X125944285Y-124388571D01*
X125991904Y-124340952D01*
X126087142Y-124293333D01*
X126325238Y-124293333D01*
X126420476Y-124340952D01*
X126468095Y-124388571D01*
X126515714Y-124483809D01*
X126515714Y-124721904D01*
X126468095Y-124817142D01*
X126420476Y-124864761D01*
X126325238Y-124912380D01*
X126087142Y-124912380D01*
X125991904Y-124864761D01*
X125944285Y-124817142D01*
%TO.C,R9*%
X123642380Y-116498666D02*
X123166190Y-116832000D01*
X123642380Y-117070095D02*
X122642380Y-117070095D01*
X122642380Y-116689142D01*
X122690000Y-116593904D01*
X122737619Y-116546285D01*
X122832857Y-116498666D01*
X122975714Y-116498666D01*
X123070952Y-116546285D01*
X123118571Y-116593904D01*
X123166190Y-116689142D01*
X123166190Y-117070095D01*
X123642380Y-116022476D02*
X123642380Y-115832000D01*
X123594761Y-115736761D01*
X123547142Y-115689142D01*
X123404285Y-115593904D01*
X123213809Y-115546285D01*
X122832857Y-115546285D01*
X122737619Y-115593904D01*
X122690000Y-115641523D01*
X122642380Y-115736761D01*
X122642380Y-115927238D01*
X122690000Y-116022476D01*
X122737619Y-116070095D01*
X122832857Y-116117714D01*
X123070952Y-116117714D01*
X123166190Y-116070095D01*
X123213809Y-116022476D01*
X123261428Y-115927238D01*
X123261428Y-115736761D01*
X123213809Y-115641523D01*
X123166190Y-115593904D01*
X123070952Y-115546285D01*
%TO.C,R11*%
X123802380Y-134350357D02*
X123326190Y-134683690D01*
X123802380Y-134921785D02*
X122802380Y-134921785D01*
X122802380Y-134540833D01*
X122850000Y-134445595D01*
X122897619Y-134397976D01*
X122992857Y-134350357D01*
X123135714Y-134350357D01*
X123230952Y-134397976D01*
X123278571Y-134445595D01*
X123326190Y-134540833D01*
X123326190Y-134921785D01*
X123802380Y-133397976D02*
X123802380Y-133969404D01*
X123802380Y-133683690D02*
X122802380Y-133683690D01*
X122945238Y-133778928D01*
X123040476Y-133874166D01*
X123088095Y-133969404D01*
X123802380Y-132445595D02*
X123802380Y-133017023D01*
X123802380Y-132731309D02*
X122802380Y-132731309D01*
X122945238Y-132826547D01*
X123040476Y-132921785D01*
X123088095Y-133017023D01*
%TO.C,R12*%
X119245142Y-132024380D02*
X118911809Y-131548190D01*
X118673714Y-132024380D02*
X118673714Y-131024380D01*
X119054666Y-131024380D01*
X119149904Y-131072000D01*
X119197523Y-131119619D01*
X119245142Y-131214857D01*
X119245142Y-131357714D01*
X119197523Y-131452952D01*
X119149904Y-131500571D01*
X119054666Y-131548190D01*
X118673714Y-131548190D01*
X120197523Y-132024380D02*
X119626095Y-132024380D01*
X119911809Y-132024380D02*
X119911809Y-131024380D01*
X119816571Y-131167238D01*
X119721333Y-131262476D01*
X119626095Y-131310095D01*
X120578476Y-131119619D02*
X120626095Y-131072000D01*
X120721333Y-131024380D01*
X120959428Y-131024380D01*
X121054666Y-131072000D01*
X121102285Y-131119619D01*
X121149904Y-131214857D01*
X121149904Y-131310095D01*
X121102285Y-131452952D01*
X120530857Y-132024380D01*
X121149904Y-132024380D01*
%TO.C,R15*%
X121897380Y-144787857D02*
X121421190Y-145121190D01*
X121897380Y-145359285D02*
X120897380Y-145359285D01*
X120897380Y-144978333D01*
X120945000Y-144883095D01*
X120992619Y-144835476D01*
X121087857Y-144787857D01*
X121230714Y-144787857D01*
X121325952Y-144835476D01*
X121373571Y-144883095D01*
X121421190Y-144978333D01*
X121421190Y-145359285D01*
X121897380Y-143835476D02*
X121897380Y-144406904D01*
X121897380Y-144121190D02*
X120897380Y-144121190D01*
X121040238Y-144216428D01*
X121135476Y-144311666D01*
X121183095Y-144406904D01*
X120897380Y-142930714D02*
X120897380Y-143406904D01*
X121373571Y-143454523D01*
X121325952Y-143406904D01*
X121278333Y-143311666D01*
X121278333Y-143073571D01*
X121325952Y-142978333D01*
X121373571Y-142930714D01*
X121468809Y-142883095D01*
X121706904Y-142883095D01*
X121802142Y-142930714D01*
X121849761Y-142978333D01*
X121897380Y-143073571D01*
X121897380Y-143311666D01*
X121849761Y-143406904D01*
X121802142Y-143454523D01*
%TO.C,C3*%
X119213333Y-150725142D02*
X119165714Y-150772761D01*
X119022857Y-150820380D01*
X118927619Y-150820380D01*
X118784761Y-150772761D01*
X118689523Y-150677523D01*
X118641904Y-150582285D01*
X118594285Y-150391809D01*
X118594285Y-150248952D01*
X118641904Y-150058476D01*
X118689523Y-149963238D01*
X118784761Y-149868000D01*
X118927619Y-149820380D01*
X119022857Y-149820380D01*
X119165714Y-149868000D01*
X119213333Y-149915619D01*
X119546666Y-149820380D02*
X120165714Y-149820380D01*
X119832380Y-150201333D01*
X119975238Y-150201333D01*
X120070476Y-150248952D01*
X120118095Y-150296571D01*
X120165714Y-150391809D01*
X120165714Y-150629904D01*
X120118095Y-150725142D01*
X120070476Y-150772761D01*
X119975238Y-150820380D01*
X119689523Y-150820380D01*
X119594285Y-150772761D01*
X119546666Y-150725142D01*
X120721428Y-148970952D02*
X120721428Y-148209047D01*
X121102380Y-148590000D02*
X120340476Y-148590000D01*
X120721428Y-113918952D02*
X120721428Y-113157047D01*
%TO.C,IC1*%
X131611809Y-128722380D02*
X131611809Y-127722380D01*
X132659428Y-128627142D02*
X132611809Y-128674761D01*
X132468952Y-128722380D01*
X132373714Y-128722380D01*
X132230857Y-128674761D01*
X132135619Y-128579523D01*
X132088000Y-128484285D01*
X132040380Y-128293809D01*
X132040380Y-128150952D01*
X132088000Y-127960476D01*
X132135619Y-127865238D01*
X132230857Y-127770000D01*
X132373714Y-127722380D01*
X132468952Y-127722380D01*
X132611809Y-127770000D01*
X132659428Y-127817619D01*
X133611809Y-128722380D02*
X133040380Y-128722380D01*
X133326095Y-128722380D02*
X133326095Y-127722380D01*
X133230857Y-127865238D01*
X133135619Y-127960476D01*
X133040380Y-128008095D01*
%TO.C,SW1*%
X142176666Y-126388761D02*
X142319523Y-126436380D01*
X142557619Y-126436380D01*
X142652857Y-126388761D01*
X142700476Y-126341142D01*
X142748095Y-126245904D01*
X142748095Y-126150666D01*
X142700476Y-126055428D01*
X142652857Y-126007809D01*
X142557619Y-125960190D01*
X142367142Y-125912571D01*
X142271904Y-125864952D01*
X142224285Y-125817333D01*
X142176666Y-125722095D01*
X142176666Y-125626857D01*
X142224285Y-125531619D01*
X142271904Y-125484000D01*
X142367142Y-125436380D01*
X142605238Y-125436380D01*
X142748095Y-125484000D01*
X143081428Y-125436380D02*
X143319523Y-126436380D01*
X143510000Y-125722095D01*
X143700476Y-126436380D01*
X143938571Y-125436380D01*
X144843333Y-126436380D02*
X144271904Y-126436380D01*
X144557619Y-126436380D02*
X144557619Y-125436380D01*
X144462380Y-125579238D01*
X144367142Y-125674476D01*
X144271904Y-125722095D01*
%TO.C,U1*%
X136398095Y-106640380D02*
X136398095Y-107449904D01*
X136445714Y-107545142D01*
X136493333Y-107592761D01*
X136588571Y-107640380D01*
X136779047Y-107640380D01*
X136874285Y-107592761D01*
X136921904Y-107545142D01*
X136969523Y-107449904D01*
X136969523Y-106640380D01*
X137969523Y-107640380D02*
X137398095Y-107640380D01*
X137683809Y-107640380D02*
X137683809Y-106640380D01*
X137588571Y-106783238D01*
X137493333Y-106878476D01*
X137398095Y-106926095D01*
%TO.C,U3*%
X118197380Y-127126904D02*
X119006904Y-127126904D01*
X119102142Y-127079285D01*
X119149761Y-127031666D01*
X119197380Y-126936428D01*
X119197380Y-126745952D01*
X119149761Y-126650714D01*
X119102142Y-126603095D01*
X119006904Y-126555476D01*
X118197380Y-126555476D01*
X118197380Y-126174523D02*
X118197380Y-125555476D01*
X118578333Y-125888809D01*
X118578333Y-125745952D01*
X118625952Y-125650714D01*
X118673571Y-125603095D01*
X118768809Y-125555476D01*
X119006904Y-125555476D01*
X119102142Y-125603095D01*
X119149761Y-125650714D01*
X119197380Y-125745952D01*
X119197380Y-126031666D01*
X119149761Y-126126904D01*
X119102142Y-126174523D01*
%TO.C,C10*%
X124833142Y-137771142D02*
X124785523Y-137818761D01*
X124642666Y-137866380D01*
X124547428Y-137866380D01*
X124404571Y-137818761D01*
X124309333Y-137723523D01*
X124261714Y-137628285D01*
X124214095Y-137437809D01*
X124214095Y-137294952D01*
X124261714Y-137104476D01*
X124309333Y-137009238D01*
X124404571Y-136914000D01*
X124547428Y-136866380D01*
X124642666Y-136866380D01*
X124785523Y-136914000D01*
X124833142Y-136961619D01*
X125785523Y-137866380D02*
X125214095Y-137866380D01*
X125499809Y-137866380D02*
X125499809Y-136866380D01*
X125404571Y-137009238D01*
X125309333Y-137104476D01*
X125214095Y-137152095D01*
X126404571Y-136866380D02*
X126499809Y-136866380D01*
X126595047Y-136914000D01*
X126642666Y-136961619D01*
X126690285Y-137056857D01*
X126737904Y-137247333D01*
X126737904Y-137485428D01*
X126690285Y-137675904D01*
X126642666Y-137771142D01*
X126595047Y-137818761D01*
X126499809Y-137866380D01*
X126404571Y-137866380D01*
X126309333Y-137818761D01*
X126261714Y-137771142D01*
X126214095Y-137675904D01*
X126166476Y-137485428D01*
X126166476Y-137247333D01*
X126214095Y-137056857D01*
X126261714Y-136961619D01*
X126309333Y-136914000D01*
X126404571Y-136866380D01*
%TO.C,C7*%
X117197142Y-116498666D02*
X117244761Y-116546285D01*
X117292380Y-116689142D01*
X117292380Y-116784380D01*
X117244761Y-116927238D01*
X117149523Y-117022476D01*
X117054285Y-117070095D01*
X116863809Y-117117714D01*
X116720952Y-117117714D01*
X116530476Y-117070095D01*
X116435238Y-117022476D01*
X116340000Y-116927238D01*
X116292380Y-116784380D01*
X116292380Y-116689142D01*
X116340000Y-116546285D01*
X116387619Y-116498666D01*
X116292380Y-116165333D02*
X116292380Y-115498666D01*
X117292380Y-115927238D01*
%TO.C,C6*%
X121007142Y-116498666D02*
X121054761Y-116546285D01*
X121102380Y-116689142D01*
X121102380Y-116784380D01*
X121054761Y-116927238D01*
X120959523Y-117022476D01*
X120864285Y-117070095D01*
X120673809Y-117117714D01*
X120530952Y-117117714D01*
X120340476Y-117070095D01*
X120245238Y-117022476D01*
X120150000Y-116927238D01*
X120102380Y-116784380D01*
X120102380Y-116689142D01*
X120150000Y-116546285D01*
X120197619Y-116498666D01*
X120102380Y-115641523D02*
X120102380Y-115832000D01*
X120150000Y-115927238D01*
X120197619Y-115974857D01*
X120340476Y-116070095D01*
X120530952Y-116117714D01*
X120911904Y-116117714D01*
X121007142Y-116070095D01*
X121054761Y-116022476D01*
X121102380Y-115927238D01*
X121102380Y-115736761D01*
X121054761Y-115641523D01*
X121007142Y-115593904D01*
X120911904Y-115546285D01*
X120673809Y-115546285D01*
X120578571Y-115593904D01*
X120530952Y-115641523D01*
X120483333Y-115736761D01*
X120483333Y-115927238D01*
X120530952Y-116022476D01*
X120578571Y-116070095D01*
X120673809Y-116117714D01*
%TO.C,C2*%
X130389333Y-121515142D02*
X130341714Y-121562761D01*
X130198857Y-121610380D01*
X130103619Y-121610380D01*
X129960761Y-121562761D01*
X129865523Y-121467523D01*
X129817904Y-121372285D01*
X129770285Y-121181809D01*
X129770285Y-121038952D01*
X129817904Y-120848476D01*
X129865523Y-120753238D01*
X129960761Y-120658000D01*
X130103619Y-120610380D01*
X130198857Y-120610380D01*
X130341714Y-120658000D01*
X130389333Y-120705619D01*
X130770285Y-120705619D02*
X130817904Y-120658000D01*
X130913142Y-120610380D01*
X131151238Y-120610380D01*
X131246476Y-120658000D01*
X131294095Y-120705619D01*
X131341714Y-120800857D01*
X131341714Y-120896095D01*
X131294095Y-121038952D01*
X130722666Y-121610380D01*
X131341714Y-121610380D01*
%TO.C,C1*%
X127341333Y-121515142D02*
X127293714Y-121562761D01*
X127150857Y-121610380D01*
X127055619Y-121610380D01*
X126912761Y-121562761D01*
X126817523Y-121467523D01*
X126769904Y-121372285D01*
X126722285Y-121181809D01*
X126722285Y-121038952D01*
X126769904Y-120848476D01*
X126817523Y-120753238D01*
X126912761Y-120658000D01*
X127055619Y-120610380D01*
X127150857Y-120610380D01*
X127293714Y-120658000D01*
X127341333Y-120705619D01*
X128293714Y-121610380D02*
X127722285Y-121610380D01*
X128008000Y-121610380D02*
X128008000Y-120610380D01*
X127912761Y-120753238D01*
X127817523Y-120848476D01*
X127722285Y-120896095D01*
%TO.C,L1*%
X113498333Y-133802380D02*
X113022142Y-133802380D01*
X113022142Y-132802380D01*
X114355476Y-133802380D02*
X113784047Y-133802380D01*
X114069761Y-133802380D02*
X114069761Y-132802380D01*
X113974523Y-132945238D01*
X113879285Y-133040476D01*
X113784047Y-133088095D01*
%TO.C,U2*%
X111720380Y-143001904D02*
X112529904Y-143001904D01*
X112625142Y-142954285D01*
X112672761Y-142906666D01*
X112720380Y-142811428D01*
X112720380Y-142620952D01*
X112672761Y-142525714D01*
X112625142Y-142478095D01*
X112529904Y-142430476D01*
X111720380Y-142430476D01*
X111815619Y-142001904D02*
X111768000Y-141954285D01*
X111720380Y-141859047D01*
X111720380Y-141620952D01*
X111768000Y-141525714D01*
X111815619Y-141478095D01*
X111910857Y-141430476D01*
X112006095Y-141430476D01*
X112148952Y-141478095D01*
X112720380Y-142049523D01*
X112720380Y-141430476D01*
%TO.C,D4*%
X124277380Y-146788095D02*
X123277380Y-146788095D01*
X123277380Y-146550000D01*
X123325000Y-146407142D01*
X123420238Y-146311904D01*
X123515476Y-146264285D01*
X123705952Y-146216666D01*
X123848809Y-146216666D01*
X124039285Y-146264285D01*
X124134523Y-146311904D01*
X124229761Y-146407142D01*
X124277380Y-146550000D01*
X124277380Y-146788095D01*
X123610714Y-145359523D02*
X124277380Y-145359523D01*
X123229761Y-145597619D02*
X123944047Y-145835714D01*
X123944047Y-145216666D01*
D11*
%TO.C,J1*%
X136228666Y-140274523D02*
X136228666Y-141181666D01*
X136168190Y-141363095D01*
X136047238Y-141484047D01*
X135865809Y-141544523D01*
X135744857Y-141544523D01*
X137498666Y-141544523D02*
X136772952Y-141544523D01*
X137135809Y-141544523D02*
X137135809Y-140274523D01*
X137014857Y-140455952D01*
X136893904Y-140576904D01*
X136772952Y-140637380D01*
D12*
%TO.C,C9*%
X119740000Y-140227164D02*
X119740000Y-140442836D01*
X119020000Y-140227164D02*
X119020000Y-140442836D01*
%TO.C,C8*%
X113805580Y-137670000D02*
X113524420Y-137670000D01*
X113805580Y-136650000D02*
X113524420Y-136650000D01*
%TO.C,C5*%
X118138752Y-137895000D02*
X117616248Y-137895000D01*
X118138752Y-136425000D02*
X117616248Y-136425000D01*
%TO.C,C4*%
X112803000Y-147835252D02*
X112803000Y-147312748D01*
X114273000Y-147835252D02*
X114273000Y-147312748D01*
%TO.C,C11*%
X117575000Y-133321248D02*
X117575000Y-133843752D01*
X116105000Y-133321248D02*
X116105000Y-133843752D01*
D13*
%TO.C,D2*%
X124510000Y-141487500D02*
G75*
G03*
X124510000Y-141487500I-50000J0D01*
G01*
D12*
%TO.C,D3*%
X129032500Y-125630000D02*
X126747500Y-125630000D01*
X126747500Y-125630000D02*
X126747500Y-127100000D01*
X126747500Y-127100000D02*
X129032500Y-127100000D01*
%TO.C,R16*%
X121665000Y-140218859D02*
X121665000Y-140526141D01*
X120905000Y-140218859D02*
X120905000Y-140526141D01*
%TO.C,R14*%
X117855000Y-140218859D02*
X117855000Y-140526141D01*
X117095000Y-140218859D02*
X117095000Y-140526141D01*
%TO.C,R13*%
X136641141Y-124840000D02*
X136333859Y-124840000D01*
X136641141Y-124080000D02*
X136333859Y-124080000D01*
%TO.C,R10*%
X136232500Y-126248859D02*
X136232500Y-126556141D01*
X135472500Y-126248859D02*
X135472500Y-126556141D01*
%TO.C,R7*%
X118365000Y-120206141D02*
X118365000Y-119898859D01*
X119125000Y-120206141D02*
X119125000Y-119898859D01*
%TO.C,R6*%
X117730000Y-144971141D02*
X117730000Y-144663859D01*
X118490000Y-144971141D02*
X118490000Y-144663859D01*
%TO.C,R4*%
X142393641Y-122935000D02*
X142086359Y-122935000D01*
X142393641Y-122175000D02*
X142086359Y-122175000D01*
%TO.C,R1*%
X133831359Y-122175000D02*
X134138641Y-122175000D01*
X133831359Y-122935000D02*
X134138641Y-122935000D01*
%TO.C,R2*%
X145568641Y-122935000D02*
X145261359Y-122935000D01*
X145568641Y-122175000D02*
X145261359Y-122175000D01*
%TO.C,R3*%
X139218641Y-122935000D02*
X138911359Y-122935000D01*
X139218641Y-122175000D02*
X138911359Y-122175000D01*
%TO.C,R8*%
X138137500Y-126248859D02*
X138137500Y-126556141D01*
X137377500Y-126248859D02*
X137377500Y-126556141D01*
%TO.C,R5*%
X128432258Y-124982500D02*
X127957742Y-124982500D01*
X128432258Y-123937500D02*
X127957742Y-123937500D01*
%TO.C,R9*%
X122667500Y-120252258D02*
X122667500Y-119777742D01*
X123712500Y-120252258D02*
X123712500Y-119777742D01*
%TO.C,R11*%
X122442500Y-133470242D02*
X122442500Y-133944758D01*
X121397500Y-133470242D02*
X121397500Y-133944758D01*
%TO.C,R12*%
X119707500Y-133470242D02*
X119707500Y-133944758D01*
X118662500Y-133470242D02*
X118662500Y-133944758D01*
%TO.C,R15*%
X120537500Y-143907742D02*
X120537500Y-144382258D01*
X119492500Y-143907742D02*
X119492500Y-144382258D01*
D14*
%TO.C,J2*%
X114380000Y-109423000D02*
G75*
G03*
X114480000Y-109423000I50000J0D01*
G01*
X114480000Y-109423000D02*
G75*
G03*
X114380000Y-109423000I-50000J0D01*
G01*
X114380000Y-109423000D02*
G75*
G03*
X114480000Y-109423000I50000J0D01*
G01*
X114480000Y-109423000D02*
X114480000Y-109423000D01*
X114380000Y-109423000D02*
X114380000Y-109423000D01*
X114380000Y-109423000D02*
X114380000Y-109423000D01*
%TO.C,IC1*%
X134527500Y-127230000D02*
X133327500Y-127230000D01*
%TO.C,U3*%
X123865000Y-122865000D02*
X123865000Y-124415000D01*
D12*
%TO.C,C10*%
X122274420Y-136650000D02*
X122555580Y-136650000D01*
X122274420Y-137670000D02*
X122555580Y-137670000D01*
%TO.C,C7*%
X116330000Y-119734420D02*
X116330000Y-120015580D01*
X117350000Y-119734420D02*
X117350000Y-120015580D01*
%TO.C,C6*%
X121160000Y-120155580D02*
X121160000Y-119874420D01*
X120140000Y-120155580D02*
X120140000Y-119874420D01*
%TO.C,C2*%
X130529420Y-123065000D02*
X130810580Y-123065000D01*
X130529420Y-122045000D02*
X130810580Y-122045000D01*
%TO.C,C1*%
X127738080Y-122045000D02*
X127456920Y-122045000D01*
X127738080Y-123065000D02*
X127456920Y-123065000D01*
%TO.C,L1*%
X113502221Y-134110000D02*
X113827779Y-134110000D01*
X113502221Y-135130000D02*
X113827779Y-135130000D01*
D14*
%TO.C,U2*%
X112050000Y-145140000D02*
X112050000Y-143740000D01*
%TO.C,D4*%
X124625000Y-147395000D02*
X124625000Y-144705000D01*
X123025000Y-148375000D02*
X123025000Y-144705000D01*
%TO.C,J1*%
X131252000Y-131642000D02*
G75*
G03*
X131252000Y-131443000I0J99500D01*
G01*
X131252000Y-131443000D02*
G75*
G03*
X131252000Y-131642000I0J-99500D01*
G01*
X131252000Y-131443000D02*
X131252000Y-131443000D01*
X131252000Y-131642000D02*
X131252000Y-131642000D01*
D13*
X130652000Y-133443000D02*
X128652000Y-133443000D01*
X128652000Y-133443000D02*
X128707000Y-142943000D01*
X142652000Y-133443000D02*
X144597000Y-133443000D01*
X144597000Y-133443000D02*
X144597000Y-142943000D01*
X144597000Y-147943000D02*
X144597000Y-150982000D01*
X144597000Y-150982000D02*
X128707000Y-150982000D01*
X128707000Y-150982000D02*
X128707000Y-147943000D01*
%TD*%
%LPC*%
D15*
%TO.C,C9*%
X119380000Y-139855000D03*
X119380000Y-140815000D03*
%TD*%
D16*
%TO.C,C8*%
X114440000Y-137160000D03*
X112890000Y-137160000D03*
%TD*%
D17*
%TO.C,C5*%
X118827500Y-137160000D03*
X116927500Y-137160000D03*
%TD*%
D18*
%TO.C,C4*%
X113538000Y-148524000D03*
X113538000Y-146624000D03*
%TD*%
D19*
%TO.C,C11*%
X116840000Y-132632500D03*
X116840000Y-134532500D03*
%TD*%
D20*
%TO.C,D2*%
X124460000Y-140882500D03*
X124460000Y-139912500D03*
%TD*%
D21*
%TO.C,D3*%
X127445000Y-126365000D03*
X129020000Y-126365000D03*
%TD*%
D22*
%TO.C,R16*%
X121285000Y-139862500D03*
X121285000Y-140882500D03*
%TD*%
%TO.C,R14*%
X117475000Y-139862500D03*
X117475000Y-140882500D03*
%TD*%
D23*
%TO.C,R13*%
X136997500Y-124460000D03*
X135977500Y-124460000D03*
%TD*%
D22*
%TO.C,R10*%
X135852500Y-125892500D03*
X135852500Y-126912500D03*
%TD*%
D24*
%TO.C,R7*%
X118745000Y-120562500D03*
X118745000Y-119542500D03*
%TD*%
%TO.C,R6*%
X118110000Y-145327500D03*
X118110000Y-144307500D03*
%TD*%
D23*
%TO.C,R4*%
X142750000Y-122555000D03*
X141730000Y-122555000D03*
%TD*%
D25*
%TO.C,R1*%
X133475000Y-122555000D03*
X134495000Y-122555000D03*
%TD*%
D23*
%TO.C,R2*%
X145925000Y-122555000D03*
X144905000Y-122555000D03*
%TD*%
%TO.C,R3*%
X139575000Y-122555000D03*
X138555000Y-122555000D03*
%TD*%
D22*
%TO.C,R8*%
X137757500Y-125892500D03*
X137757500Y-126912500D03*
%TD*%
D26*
%TO.C,R5*%
X129020000Y-124460000D03*
X127370000Y-124460000D03*
%TD*%
D27*
%TO.C,R9*%
X123190000Y-120840000D03*
X123190000Y-119190000D03*
%TD*%
D28*
%TO.C,R11*%
X121920000Y-132882500D03*
X121920000Y-134532500D03*
%TD*%
%TO.C,R12*%
X119185000Y-132882500D03*
X119185000Y-134532500D03*
%TD*%
%TO.C,R15*%
X120015000Y-143320000D03*
X120015000Y-144970000D03*
%TD*%
D29*
%TO.C,J2*%
X123190000Y-109423000D03*
X120650000Y-109423000D03*
X118110000Y-109423000D03*
X115570000Y-109423000D03*
%TD*%
D30*
%TO.C,C3*%
X119280000Y-148550000D03*
X119280000Y-113550000D03*
%TD*%
D31*
%TO.C,IC1*%
X131427500Y-126680000D03*
X131427500Y-124780000D03*
X133927500Y-124780000D03*
X133927500Y-125730000D03*
X133927500Y-126680000D03*
%TD*%
D32*
%TO.C,SW1*%
X146012500Y-126730000D03*
X140852500Y-126730000D03*
X140852500Y-124730000D03*
X146012500Y-124730000D03*
%TD*%
D33*
%TO.C,U1*%
X144125000Y-103815000D03*
X144125000Y-105815000D03*
X144125000Y-107815000D03*
X144125000Y-109815000D03*
X144125000Y-111815000D03*
X144125000Y-113815000D03*
X144125000Y-115815000D03*
X144125000Y-117815000D03*
D34*
X141525000Y-119315000D03*
X139525000Y-119315000D03*
X137525000Y-119315000D03*
X135525000Y-119315000D03*
X133525000Y-119315000D03*
X131525000Y-119315000D03*
D33*
X128925000Y-117815000D03*
X128925000Y-115815000D03*
X128925000Y-113815000D03*
X128925000Y-111815000D03*
X128925000Y-109815000D03*
X128925000Y-107815000D03*
X128925000Y-105815000D03*
X128925000Y-103815000D03*
%TD*%
D35*
%TO.C,U3*%
X123190000Y-129090000D03*
X121920000Y-129090000D03*
X120650000Y-129090000D03*
X119380000Y-129090000D03*
X118110000Y-129090000D03*
X116840000Y-129090000D03*
X115570000Y-129090000D03*
X114300000Y-129090000D03*
X114300000Y-123640000D03*
X115570000Y-123640000D03*
X116840000Y-123640000D03*
X118110000Y-123640000D03*
X119380000Y-123640000D03*
X120650000Y-123640000D03*
X121920000Y-123640000D03*
X123190000Y-123640000D03*
%TD*%
D36*
%TO.C,C10*%
X121640000Y-137160000D03*
X123190000Y-137160000D03*
%TD*%
D37*
%TO.C,C7*%
X116840000Y-120650000D03*
X116840000Y-119100000D03*
%TD*%
D38*
%TO.C,C6*%
X120650000Y-119240000D03*
X120650000Y-120790000D03*
%TD*%
D36*
%TO.C,C2*%
X131445000Y-122555000D03*
X129895000Y-122555000D03*
%TD*%
D16*
%TO.C,C1*%
X126822500Y-122555000D03*
X128372500Y-122555000D03*
%TD*%
D21*
%TO.C,L1*%
X112877500Y-134620000D03*
X114452500Y-134620000D03*
%TD*%
D39*
%TO.C,U2*%
X112550000Y-144440000D03*
X113050000Y-144440000D03*
X113550000Y-144440000D03*
X114050000Y-144440000D03*
X114550000Y-144440000D03*
X115050000Y-144440000D03*
X115550000Y-144440000D03*
X116050000Y-144440000D03*
X116050000Y-140040000D03*
X115550000Y-140040000D03*
X115050000Y-140040000D03*
X114550000Y-140040000D03*
X114050000Y-140040000D03*
X113550000Y-140040000D03*
X113050000Y-140040000D03*
X112550000Y-140040000D03*
D40*
X114300000Y-142240000D03*
%TD*%
D41*
%TO.C,D4*%
X123825000Y-147800000D03*
X123825000Y-144300000D03*
%TD*%
D42*
%TO.C,J1*%
X145112000Y-145513000D03*
X128192000Y-145513000D03*
D43*
X141097000Y-133333000D03*
X139827000Y-133333000D03*
X138557000Y-133333000D03*
X137287000Y-133333000D03*
X136017000Y-133333000D03*
X134747000Y-133333000D03*
X133477000Y-133333000D03*
X132207000Y-133333000D03*
%TD*%
M02*
