%TF.GenerationSoftware,KiCad,Pcbnew,6.0.0-d3dd2cf0fa~116~ubuntu20.04.1*%
%TF.CreationDate,2022-01-26T23:02:35+01:00*%
%TF.ProjectId,han_to_wifi_board,68616e5f-746f-45f7-9769-66695f626f61,rev?*%
%TF.SameCoordinates,Original*%
%TF.FileFunction,Soldermask,Top*%
%TF.FilePolarity,Negative*%
%FSLAX46Y46*%
G04 Gerber Fmt 4.6, Leading zero omitted, Abs format (unit mm)*
G04 Created by KiCad (PCBNEW 6.0.0-d3dd2cf0fa~116~ubuntu20.04.1) date 2022-01-26 23:02:35*
%MOMM*%
%LPD*%
G01*
G04 APERTURE LIST*
G04 Aperture macros list*
%AMRoundRect*
0 Rectangle with rounded corners*
0 $1 Rounding radius*
0 $2 $3 $4 $5 $6 $7 $8 $9 X,Y pos of 4 corners*
0 Add a 4 corners polygon primitive as box body*
4,1,4,$2,$3,$4,$5,$6,$7,$8,$9,$2,$3,0*
0 Add four circle primitives for the rounded corners*
1,1,$1+$1,$2,$3*
1,1,$1+$1,$4,$5*
1,1,$1+$1,$6,$7*
1,1,$1+$1,$8,$9*
0 Add four rect primitives between the rounded corners*
20,1,$1+$1,$2,$3,$4,$5,0*
20,1,$1+$1,$4,$5,$6,$7,0*
20,1,$1+$1,$6,$7,$8,$9,0*
20,1,$1+$1,$8,$9,$2,$3,0*%
G04 Aperture macros list end*
%ADD10RoundRect,0.140000X-0.170000X0.140000X-0.170000X-0.140000X0.170000X-0.140000X0.170000X0.140000X0*%
%ADD11RoundRect,0.225000X0.225000X0.250000X-0.225000X0.250000X-0.225000X-0.250000X0.225000X-0.250000X0*%
%ADD12RoundRect,0.250000X0.250000X0.475000X-0.250000X0.475000X-0.250000X-0.475000X0.250000X-0.475000X0*%
%ADD13RoundRect,0.250000X0.475000X-0.250000X0.475000X0.250000X-0.475000X0.250000X-0.475000X-0.250000X0*%
%ADD14RoundRect,0.250000X-0.475000X0.250000X-0.475000X-0.250000X0.475000X-0.250000X0.475000X0.250000X0*%
%ADD15RoundRect,0.147500X0.172500X-0.147500X0.172500X0.147500X-0.172500X0.147500X-0.172500X-0.147500X0*%
%ADD16RoundRect,0.218750X-0.218750X-0.256250X0.218750X-0.256250X0.218750X0.256250X-0.218750X0.256250X0*%
%ADD17RoundRect,0.135000X-0.185000X0.135000X-0.185000X-0.135000X0.185000X-0.135000X0.185000X0.135000X0*%
%ADD18RoundRect,0.135000X0.135000X0.185000X-0.135000X0.185000X-0.135000X-0.185000X0.135000X-0.185000X0*%
%ADD19RoundRect,0.135000X0.185000X-0.135000X0.185000X0.135000X-0.185000X0.135000X-0.185000X-0.135000X0*%
%ADD20RoundRect,0.135000X-0.135000X-0.185000X0.135000X-0.185000X0.135000X0.185000X-0.135000X0.185000X0*%
%ADD21RoundRect,0.200000X0.200000X0.275000X-0.200000X0.275000X-0.200000X-0.275000X0.200000X-0.275000X0*%
%ADD22RoundRect,0.200000X0.275000X-0.200000X0.275000X0.200000X-0.275000X0.200000X-0.275000X-0.200000X0*%
%ADD23RoundRect,0.200000X-0.275000X0.200000X-0.275000X-0.200000X0.275000X-0.200000X0.275000X0.200000X0*%
%ADD24R,1.270000X3.180000*%
%ADD25C,1.524000*%
%ADD26R,1.200000X0.600000*%
%ADD27R,1.450000X0.700000*%
%ADD28R,2.500000X1.000000*%
%ADD29R,1.000000X1.800000*%
%ADD30R,0.650000X1.550000*%
%ADD31RoundRect,0.225000X-0.225000X-0.250000X0.225000X-0.250000X0.225000X0.250000X-0.225000X0.250000X0*%
%ADD32RoundRect,0.225000X-0.250000X0.225000X-0.250000X-0.225000X0.250000X-0.225000X0.250000X0.225000X0*%
%ADD33RoundRect,0.225000X0.250000X-0.225000X0.250000X0.225000X-0.250000X0.225000X-0.250000X-0.225000X0*%
%ADD34R,0.300000X1.400000*%
%ADD35R,2.947000X1.753000*%
%ADD36R,0.800000X1.150000*%
%ADD37R,2.240000X3.510000*%
%ADD38R,0.760000X4.750000*%
G04 APERTURE END LIST*
D10*
%TO.C,C9*%
X119380000Y-139855000D03*
X119380000Y-140815000D03*
%TD*%
D11*
%TO.C,C8*%
X114440000Y-137160000D03*
X112890000Y-137160000D03*
%TD*%
D12*
%TO.C,C5*%
X118827500Y-137160000D03*
X116927500Y-137160000D03*
%TD*%
D13*
%TO.C,C4*%
X113538000Y-148524000D03*
X113538000Y-146624000D03*
%TD*%
D14*
%TO.C,C11*%
X116840000Y-132632500D03*
X116840000Y-134532500D03*
%TD*%
D15*
%TO.C,D2*%
X124460000Y-140882500D03*
X124460000Y-139912500D03*
%TD*%
D16*
%TO.C,D3*%
X127445000Y-126365000D03*
X129020000Y-126365000D03*
%TD*%
D17*
%TO.C,R16*%
X121285000Y-139862500D03*
X121285000Y-140882500D03*
%TD*%
%TO.C,R14*%
X117475000Y-139862500D03*
X117475000Y-140882500D03*
%TD*%
D18*
%TO.C,R13*%
X136997500Y-124460000D03*
X135977500Y-124460000D03*
%TD*%
D17*
%TO.C,R10*%
X135852500Y-125892500D03*
X135852500Y-126912500D03*
%TD*%
D19*
%TO.C,R7*%
X118745000Y-120562500D03*
X118745000Y-119542500D03*
%TD*%
%TO.C,R6*%
X118110000Y-145327500D03*
X118110000Y-144307500D03*
%TD*%
D18*
%TO.C,R4*%
X142750000Y-122555000D03*
X141730000Y-122555000D03*
%TD*%
D20*
%TO.C,R1*%
X133475000Y-122555000D03*
X134495000Y-122555000D03*
%TD*%
D18*
%TO.C,R2*%
X145925000Y-122555000D03*
X144905000Y-122555000D03*
%TD*%
%TO.C,R3*%
X139575000Y-122555000D03*
X138555000Y-122555000D03*
%TD*%
D17*
%TO.C,R8*%
X137757500Y-125892500D03*
X137757500Y-126912500D03*
%TD*%
D21*
%TO.C,R5*%
X129020000Y-124460000D03*
X127370000Y-124460000D03*
%TD*%
D22*
%TO.C,R9*%
X123190000Y-120840000D03*
X123190000Y-119190000D03*
%TD*%
D23*
%TO.C,R11*%
X121920000Y-132882500D03*
X121920000Y-134532500D03*
%TD*%
%TO.C,R12*%
X119185000Y-132882500D03*
X119185000Y-134532500D03*
%TD*%
%TO.C,R15*%
X120015000Y-143320000D03*
X120015000Y-144970000D03*
%TD*%
D24*
%TO.C,J2*%
X123190000Y-109423000D03*
X120650000Y-109423000D03*
X118110000Y-109423000D03*
X115570000Y-109423000D03*
%TD*%
D25*
%TO.C,C3*%
X119280000Y-148550000D03*
X119280000Y-113550000D03*
%TD*%
D26*
%TO.C,IC1*%
X131427500Y-126680000D03*
X131427500Y-124780000D03*
X133927500Y-124780000D03*
X133927500Y-125730000D03*
X133927500Y-126680000D03*
%TD*%
D27*
%TO.C,SW1*%
X146012500Y-126730000D03*
X140852500Y-126730000D03*
X140852500Y-124730000D03*
X146012500Y-124730000D03*
%TD*%
D28*
%TO.C,U1*%
X144125000Y-103815000D03*
X144125000Y-105815000D03*
X144125000Y-107815000D03*
X144125000Y-109815000D03*
X144125000Y-111815000D03*
X144125000Y-113815000D03*
X144125000Y-115815000D03*
X144125000Y-117815000D03*
D29*
X141525000Y-119315000D03*
X139525000Y-119315000D03*
X137525000Y-119315000D03*
X135525000Y-119315000D03*
X133525000Y-119315000D03*
X131525000Y-119315000D03*
D28*
X128925000Y-117815000D03*
X128925000Y-115815000D03*
X128925000Y-113815000D03*
X128925000Y-111815000D03*
X128925000Y-109815000D03*
X128925000Y-107815000D03*
X128925000Y-105815000D03*
X128925000Y-103815000D03*
%TD*%
D30*
%TO.C,U3*%
X123190000Y-129090000D03*
X121920000Y-129090000D03*
X120650000Y-129090000D03*
X119380000Y-129090000D03*
X118110000Y-129090000D03*
X116840000Y-129090000D03*
X115570000Y-129090000D03*
X114300000Y-129090000D03*
X114300000Y-123640000D03*
X115570000Y-123640000D03*
X116840000Y-123640000D03*
X118110000Y-123640000D03*
X119380000Y-123640000D03*
X120650000Y-123640000D03*
X121920000Y-123640000D03*
X123190000Y-123640000D03*
%TD*%
D31*
%TO.C,C10*%
X121640000Y-137160000D03*
X123190000Y-137160000D03*
%TD*%
D32*
%TO.C,C7*%
X116840000Y-120650000D03*
X116840000Y-119100000D03*
%TD*%
D33*
%TO.C,C6*%
X120650000Y-119240000D03*
X120650000Y-120790000D03*
%TD*%
D31*
%TO.C,C2*%
X131445000Y-122555000D03*
X129895000Y-122555000D03*
%TD*%
D11*
%TO.C,C1*%
X126822500Y-122555000D03*
X128372500Y-122555000D03*
%TD*%
D16*
%TO.C,L1*%
X112877500Y-134620000D03*
X114452500Y-134620000D03*
%TD*%
D34*
%TO.C,U2*%
X112550000Y-144440000D03*
X113050000Y-144440000D03*
X113550000Y-144440000D03*
X114050000Y-144440000D03*
X114550000Y-144440000D03*
X115050000Y-144440000D03*
X115550000Y-144440000D03*
X116050000Y-144440000D03*
X116050000Y-140040000D03*
X115550000Y-140040000D03*
X115050000Y-140040000D03*
X114550000Y-140040000D03*
X114050000Y-140040000D03*
X113550000Y-140040000D03*
X113050000Y-140040000D03*
X112550000Y-140040000D03*
D35*
X114300000Y-142240000D03*
%TD*%
D36*
%TO.C,D4*%
X123825000Y-147800000D03*
X123825000Y-144300000D03*
%TD*%
D37*
%TO.C,J1*%
X145112000Y-145513000D03*
X128192000Y-145513000D03*
D38*
X141097000Y-133333000D03*
X139827000Y-133333000D03*
X138557000Y-133333000D03*
X137287000Y-133333000D03*
X136017000Y-133333000D03*
X134747000Y-133333000D03*
X133477000Y-133333000D03*
X132207000Y-133333000D03*
%TD*%
M02*
