%TF.GenerationSoftware,KiCad,Pcbnew,6.0.4-6f826c9f35~116~ubuntu20.04.1*%
%TF.CreationDate,2022-05-04T20:11:08+02:00*%
%TF.ProjectId,han_to_wifi_board,68616e5f-746f-45f7-9769-66695f626f61,rev?*%
%TF.SameCoordinates,Original*%
%TF.FileFunction,Copper,L2,Bot*%
%TF.FilePolarity,Positive*%
%FSLAX46Y46*%
G04 Gerber Fmt 4.6, Leading zero omitted, Abs format (unit mm)*
G04 Created by KiCad (PCBNEW 6.0.4-6f826c9f35~116~ubuntu20.04.1) date 2022-05-04 20:11:08*
%MOMM*%
%LPD*%
G01*
G04 APERTURE LIST*
%TA.AperFunction,ComponentPad*%
%ADD10C,1.524000*%
%TD*%
%TA.AperFunction,ViaPad*%
%ADD11C,0.800000*%
%TD*%
%TA.AperFunction,ViaPad*%
%ADD12C,0.500000*%
%TD*%
%TA.AperFunction,ViaPad*%
%ADD13C,0.600000*%
%TD*%
%TA.AperFunction,Conductor*%
%ADD14C,0.400000*%
%TD*%
%TA.AperFunction,Conductor*%
%ADD15C,0.200000*%
%TD*%
G04 APERTURE END LIST*
D10*
%TO.P,C3,1*%
%TO.N,/24V*%
X121718400Y-71181600D03*
%TO.P,C3,2*%
%TO.N,GND*%
X121718400Y-36181600D03*
%TD*%
D11*
%TO.N,+3V3*%
X122580400Y-39116000D03*
X121056400Y-39116000D03*
D12*
%TO.N,/GPIO0*%
X132633600Y-34600000D03*
X127406400Y-34594800D03*
D13*
%TO.N,GND*%
X116250000Y-65025000D03*
X116275000Y-64125000D03*
D11*
%TO.N,+3V3*%
X128200000Y-52000000D03*
X128200000Y-53000000D03*
X125200000Y-53000000D03*
X129200000Y-52000000D03*
D12*
X121050000Y-65425000D03*
X121050000Y-62925000D03*
D11*
X125200000Y-52000000D03*
X126200000Y-52000000D03*
X126200000Y-53000000D03*
X129200000Y-53000000D03*
%TO.N,GND*%
X121800000Y-64000000D03*
X118110000Y-35052000D03*
D12*
X146558000Y-50800000D03*
D11*
X122000000Y-31400000D03*
X122400000Y-56800000D03*
X125800000Y-40200000D03*
X135483600Y-57759600D03*
D12*
X116840000Y-36068000D03*
D11*
X116400000Y-70200000D03*
D12*
X120142000Y-63500000D03*
D11*
X122312000Y-51832000D03*
X125984000Y-50652000D03*
X148800000Y-47600000D03*
X119634000Y-35102800D03*
X128200000Y-45400000D03*
X130048000Y-36779200D03*
D12*
X124400000Y-42672000D03*
X128200000Y-41400000D03*
D11*
X131876800Y-67000000D03*
X129997200Y-33375600D03*
X130391608Y-49979157D03*
D13*
X118668800Y-65176400D03*
D11*
X128800000Y-50000000D03*
X145338800Y-67000000D03*
X124358400Y-32156400D03*
X143200000Y-57708800D03*
D12*
%TO.N,/ESP_Tx*%
X127000000Y-29600000D03*
X124815600Y-28803600D03*
%TD*%
D14*
%TO.N,+3V3*%
X121056400Y-39116000D02*
X122580400Y-39116000D01*
D15*
%TO.N,/GPIO0*%
X132633600Y-34600000D02*
X132628400Y-34594800D01*
X132628400Y-34594800D02*
X127406400Y-34594800D01*
%TO.N,/ESP_Tx*%
X124815600Y-28803600D02*
X126203600Y-28803600D01*
X126203600Y-28803600D02*
X127000000Y-29600000D01*
D14*
%TO.N,+3V3*%
X121050000Y-62925000D02*
X121000489Y-62974511D01*
X121000489Y-62974511D02*
X121000489Y-65375489D01*
X121000489Y-65375489D02*
X121050000Y-65425000D01*
%TD*%
%TA.AperFunction,Conductor*%
%TO.N,GND*%
G36*
X132030121Y-25112502D02*
G01*
X132076614Y-25166158D01*
X132088000Y-25218500D01*
X132088000Y-32284000D01*
X148328000Y-32284000D01*
X148328000Y-32279407D01*
X148358651Y-32275000D01*
X149076300Y-32275000D01*
X149144421Y-32295002D01*
X149190914Y-32348658D01*
X149202300Y-32401000D01*
X149202300Y-72317500D01*
X149182298Y-72385621D01*
X149128642Y-72432114D01*
X149076300Y-72443500D01*
X115642500Y-72443500D01*
X115574379Y-72423498D01*
X115527886Y-72369842D01*
X115516500Y-72317500D01*
X115516500Y-71168096D01*
X120751337Y-71168096D01*
X120767132Y-71356190D01*
X120819160Y-71537634D01*
X120905440Y-71705517D01*
X120909265Y-71710343D01*
X120909267Y-71710346D01*
X121018856Y-71848614D01*
X121018860Y-71848619D01*
X121022685Y-71853444D01*
X121166430Y-71975780D01*
X121171808Y-71978786D01*
X121171810Y-71978787D01*
X121248815Y-72021824D01*
X121331200Y-72067867D01*
X121510717Y-72126195D01*
X121698145Y-72148545D01*
X121704280Y-72148073D01*
X121704282Y-72148073D01*
X121880203Y-72134537D01*
X121880207Y-72134536D01*
X121886345Y-72134064D01*
X121892277Y-72132408D01*
X121892281Y-72132407D01*
X122062204Y-72084963D01*
X122062208Y-72084962D01*
X122068148Y-72083303D01*
X122147697Y-72043120D01*
X122231128Y-72000977D01*
X122231130Y-72000976D01*
X122236629Y-71998198D01*
X122385370Y-71881988D01*
X122389396Y-71877324D01*
X122389399Y-71877321D01*
X122504678Y-71743769D01*
X122504679Y-71743767D01*
X122508707Y-71739101D01*
X122601942Y-71574978D01*
X122661523Y-71395872D01*
X122685180Y-71208605D01*
X122685557Y-71181600D01*
X122667138Y-70993745D01*
X122612581Y-70813045D01*
X122523966Y-70646383D01*
X122404666Y-70500108D01*
X122398875Y-70495317D01*
X122263977Y-70383720D01*
X122263974Y-70383718D01*
X122259227Y-70379791D01*
X122093188Y-70290014D01*
X121912874Y-70234197D01*
X121906756Y-70233554D01*
X121906751Y-70233553D01*
X121731281Y-70215111D01*
X121731279Y-70215111D01*
X121725152Y-70214467D01*
X121609525Y-70224990D01*
X121543314Y-70231015D01*
X121543313Y-70231015D01*
X121537173Y-70231574D01*
X121356097Y-70284868D01*
X121188820Y-70372318D01*
X121041716Y-70490593D01*
X120920386Y-70635188D01*
X120829452Y-70800596D01*
X120772378Y-70980517D01*
X120751337Y-71168096D01*
X115516500Y-71168096D01*
X115516500Y-65419440D01*
X120594901Y-65419440D01*
X120596065Y-65428342D01*
X120596065Y-65428345D01*
X120610468Y-65538489D01*
X120610469Y-65538493D01*
X120611633Y-65547394D01*
X120663605Y-65665510D01*
X120746639Y-65764291D01*
X120854060Y-65835796D01*
X120977233Y-65874278D01*
X120986203Y-65874442D01*
X120986207Y-65874443D01*
X121044942Y-65875519D01*
X121106255Y-65876643D01*
X121168505Y-65859671D01*
X121222092Y-65845062D01*
X121222093Y-65845062D01*
X121230755Y-65842700D01*
X121238405Y-65838003D01*
X121238407Y-65838002D01*
X121333072Y-65779878D01*
X121333075Y-65779875D01*
X121340724Y-65775179D01*
X121346750Y-65768522D01*
X121421300Y-65686161D01*
X121421303Y-65686157D01*
X121427322Y-65679507D01*
X121483588Y-65563375D01*
X121504997Y-65436120D01*
X121505133Y-65425000D01*
X121486839Y-65297259D01*
X121433428Y-65179788D01*
X121427567Y-65172986D01*
X121422732Y-65165426D01*
X121425281Y-65163796D01*
X121402221Y-65112923D01*
X121400989Y-65095344D01*
X121400989Y-63254794D01*
X121422316Y-63185037D01*
X121427322Y-63179507D01*
X121431233Y-63171435D01*
X121431235Y-63171432D01*
X121455455Y-63121441D01*
X121483588Y-63063375D01*
X121504997Y-62936120D01*
X121505133Y-62925000D01*
X121486839Y-62797259D01*
X121433428Y-62679788D01*
X121349193Y-62582028D01*
X121240906Y-62511841D01*
X121232311Y-62509271D01*
X121232310Y-62509270D01*
X121125874Y-62477438D01*
X121125872Y-62477438D01*
X121117273Y-62474866D01*
X121108298Y-62474811D01*
X121108297Y-62474811D01*
X121053641Y-62474477D01*
X120988231Y-62474078D01*
X120976475Y-62477438D01*
X120872786Y-62507072D01*
X120872784Y-62507073D01*
X120864155Y-62509539D01*
X120755019Y-62578399D01*
X120669596Y-62675122D01*
X120665782Y-62683245D01*
X120665781Y-62683247D01*
X120639794Y-62738598D01*
X120614754Y-62791932D01*
X120613374Y-62800798D01*
X120596282Y-62910567D01*
X120596282Y-62910571D01*
X120594901Y-62919440D01*
X120596065Y-62928342D01*
X120596065Y-62928345D01*
X120598925Y-62950212D01*
X120599989Y-62966550D01*
X120599989Y-65377011D01*
X120598489Y-65396396D01*
X120594901Y-65419440D01*
X115516500Y-65419440D01*
X115516500Y-53468000D01*
X124508500Y-53468000D01*
X124513196Y-53511681D01*
X124524582Y-53564023D01*
X124527070Y-53574203D01*
X124570079Y-53654916D01*
X124616572Y-53708572D01*
X124634165Y-53726527D01*
X124713983Y-53771174D01*
X124734588Y-53777224D01*
X124777781Y-53789907D01*
X124777785Y-53789908D01*
X124782104Y-53791176D01*
X124786552Y-53791816D01*
X124786559Y-53791817D01*
X124835552Y-53798861D01*
X124835559Y-53798862D01*
X124840000Y-53799500D01*
X129668000Y-53799500D01*
X129671346Y-53799140D01*
X129671351Y-53799140D01*
X129708317Y-53795166D01*
X129708323Y-53795165D01*
X129711681Y-53794804D01*
X129764023Y-53783418D01*
X129764717Y-53783248D01*
X129764736Y-53783244D01*
X129765870Y-53782967D01*
X129774203Y-53780930D01*
X129854916Y-53737921D01*
X129868066Y-53726527D01*
X129907111Y-53692694D01*
X129907112Y-53692693D01*
X129908572Y-53691428D01*
X129926527Y-53673835D01*
X129971174Y-53594017D01*
X129991176Y-53525896D01*
X129991817Y-53521441D01*
X129998861Y-53472448D01*
X129998862Y-53472441D01*
X129999500Y-53468000D01*
X129999500Y-51688000D01*
X129994804Y-51644319D01*
X129983418Y-51591977D01*
X129980930Y-51581797D01*
X129937921Y-51501084D01*
X129891428Y-51447428D01*
X129873835Y-51429473D01*
X129794017Y-51384826D01*
X129752910Y-51372756D01*
X129730219Y-51366093D01*
X129730215Y-51366092D01*
X129725896Y-51364824D01*
X129721448Y-51364184D01*
X129721441Y-51364183D01*
X129672448Y-51357139D01*
X129672441Y-51357138D01*
X129668000Y-51356500D01*
X124840000Y-51356500D01*
X124836654Y-51356860D01*
X124836649Y-51356860D01*
X124799683Y-51360834D01*
X124799677Y-51360835D01*
X124796319Y-51361196D01*
X124743977Y-51372582D01*
X124743283Y-51372752D01*
X124743264Y-51372756D01*
X124742130Y-51373033D01*
X124733797Y-51375070D01*
X124653084Y-51418079D01*
X124647738Y-51422711D01*
X124647737Y-51422712D01*
X124632508Y-51435908D01*
X124599428Y-51464572D01*
X124581473Y-51482165D01*
X124536826Y-51561983D01*
X124516824Y-51630104D01*
X124516184Y-51634552D01*
X124516183Y-51634559D01*
X124509139Y-51683552D01*
X124509138Y-51683559D01*
X124508500Y-51688000D01*
X124508500Y-53468000D01*
X115516500Y-53468000D01*
X115516500Y-39116000D01*
X120450718Y-39116000D01*
X120471356Y-39272762D01*
X120531864Y-39418841D01*
X120628118Y-39544282D01*
X120753559Y-39640536D01*
X120899638Y-39701044D01*
X121056400Y-39721682D01*
X121064588Y-39720604D01*
X121204974Y-39702122D01*
X121213162Y-39701044D01*
X121359241Y-39640536D01*
X121484682Y-39544282D01*
X121486472Y-39546614D01*
X121536348Y-39519379D01*
X121563131Y-39516500D01*
X122073669Y-39516500D01*
X122141790Y-39536502D01*
X122151860Y-39544618D01*
X122152118Y-39544282D01*
X122277559Y-39640536D01*
X122423638Y-39701044D01*
X122580400Y-39721682D01*
X122588588Y-39720604D01*
X122728974Y-39702122D01*
X122737162Y-39701044D01*
X122883241Y-39640536D01*
X123008682Y-39544282D01*
X123104936Y-39418841D01*
X123165444Y-39272762D01*
X123186082Y-39116000D01*
X123165444Y-38959238D01*
X123104936Y-38813159D01*
X123008682Y-38687718D01*
X122883241Y-38591464D01*
X122737162Y-38530956D01*
X122580400Y-38510318D01*
X122423638Y-38530956D01*
X122277559Y-38591464D01*
X122152118Y-38687718D01*
X122150328Y-38685386D01*
X122100452Y-38712621D01*
X122073669Y-38715500D01*
X121563131Y-38715500D01*
X121495010Y-38695498D01*
X121484940Y-38687382D01*
X121484682Y-38687718D01*
X121365792Y-38596491D01*
X121359241Y-38591464D01*
X121213162Y-38530956D01*
X121056400Y-38510318D01*
X120899638Y-38530956D01*
X120753559Y-38591464D01*
X120628118Y-38687718D01*
X120531864Y-38813159D01*
X120471356Y-38959238D01*
X120450718Y-39116000D01*
X115516500Y-39116000D01*
X115516500Y-36944720D01*
X121320110Y-36944720D01*
X121323621Y-36949409D01*
X121444524Y-37003239D01*
X121457021Y-37007299D01*
X121621343Y-37042228D01*
X121634403Y-37043600D01*
X121802397Y-37043600D01*
X121815457Y-37042228D01*
X121979779Y-37007299D01*
X121992276Y-37003239D01*
X122106191Y-36952521D01*
X122116937Y-36943387D01*
X122115340Y-36937750D01*
X121731212Y-36553622D01*
X121717268Y-36546008D01*
X121715435Y-36546139D01*
X121708820Y-36550390D01*
X121326870Y-36932340D01*
X121320110Y-36944720D01*
X115516500Y-36944720D01*
X115516500Y-36188165D01*
X120852342Y-36188165D01*
X120869903Y-36355243D01*
X120872633Y-36368086D01*
X120924544Y-36527854D01*
X120929890Y-36539861D01*
X120946835Y-36569210D01*
X120957040Y-36578941D01*
X120965059Y-36575731D01*
X121346378Y-36194412D01*
X121352756Y-36182732D01*
X122082808Y-36182732D01*
X122082939Y-36184565D01*
X122087190Y-36191180D01*
X122468096Y-36572086D01*
X122480476Y-36578846D01*
X122487391Y-36573670D01*
X122506910Y-36539861D01*
X122512256Y-36527854D01*
X122564167Y-36368086D01*
X122566897Y-36355243D01*
X122584458Y-36188165D01*
X122584458Y-36175035D01*
X122566897Y-36007957D01*
X122564167Y-35995114D01*
X122512256Y-35835346D01*
X122506910Y-35823339D01*
X122489965Y-35793990D01*
X122479760Y-35784259D01*
X122471741Y-35787469D01*
X122090422Y-36168788D01*
X122082808Y-36182732D01*
X121352756Y-36182732D01*
X121353992Y-36180468D01*
X121353861Y-36178635D01*
X121349610Y-36172020D01*
X120968704Y-35791114D01*
X120956324Y-35784354D01*
X120949409Y-35789530D01*
X120929890Y-35823339D01*
X120924544Y-35835346D01*
X120872633Y-35995114D01*
X120869903Y-36007957D01*
X120852342Y-36175035D01*
X120852342Y-36188165D01*
X115516500Y-36188165D01*
X115516500Y-35419813D01*
X121319863Y-35419813D01*
X121321460Y-35425450D01*
X121705588Y-35809578D01*
X121719532Y-35817192D01*
X121721365Y-35817061D01*
X121727980Y-35812810D01*
X122109930Y-35430860D01*
X122116690Y-35418480D01*
X122113179Y-35413791D01*
X121992276Y-35359961D01*
X121979779Y-35355901D01*
X121815457Y-35320972D01*
X121802397Y-35319600D01*
X121634403Y-35319600D01*
X121621343Y-35320972D01*
X121457021Y-35355901D01*
X121444524Y-35359961D01*
X121330609Y-35410679D01*
X121319863Y-35419813D01*
X115516500Y-35419813D01*
X115516500Y-34589240D01*
X126951301Y-34589240D01*
X126952465Y-34598142D01*
X126952465Y-34598145D01*
X126966868Y-34708289D01*
X126966869Y-34708293D01*
X126968033Y-34717194D01*
X127020005Y-34835310D01*
X127103039Y-34934091D01*
X127210460Y-35005596D01*
X127333633Y-35044078D01*
X127342603Y-35044242D01*
X127342607Y-35044243D01*
X127401342Y-35045319D01*
X127462655Y-35046443D01*
X127524905Y-35029471D01*
X127578492Y-35014862D01*
X127578493Y-35014862D01*
X127587155Y-35012500D01*
X127594805Y-35007803D01*
X127594807Y-35007802D01*
X127689472Y-34949678D01*
X127689475Y-34949675D01*
X127697124Y-34944979D01*
X127704577Y-34936745D01*
X127706377Y-34935643D01*
X127710055Y-34932589D01*
X127710496Y-34933120D01*
X127765120Y-34899664D01*
X127797992Y-34895300D01*
X132234833Y-34895300D01*
X132302954Y-34915302D01*
X132318817Y-34927371D01*
X132324461Y-34932418D01*
X132330239Y-34939291D01*
X132437660Y-35010796D01*
X132526538Y-35038564D01*
X132551759Y-35046443D01*
X132560833Y-35049278D01*
X132569803Y-35049442D01*
X132569807Y-35049443D01*
X132628542Y-35050519D01*
X132689855Y-35051643D01*
X132752105Y-35034672D01*
X132805692Y-35020062D01*
X132805693Y-35020062D01*
X132814355Y-35017700D01*
X132822005Y-35013003D01*
X132822007Y-35013002D01*
X132916672Y-34954878D01*
X132916675Y-34954875D01*
X132924324Y-34950179D01*
X132930350Y-34943522D01*
X133004900Y-34861161D01*
X133004903Y-34861157D01*
X133010922Y-34854507D01*
X133067188Y-34738375D01*
X133070752Y-34717194D01*
X133087790Y-34615917D01*
X133088597Y-34611120D01*
X133088733Y-34600000D01*
X133070439Y-34472259D01*
X133065653Y-34461732D01*
X133020745Y-34362962D01*
X133020743Y-34362959D01*
X133017028Y-34354788D01*
X132991225Y-34324842D01*
X132938651Y-34263826D01*
X132938649Y-34263824D01*
X132932793Y-34257028D01*
X132824506Y-34186841D01*
X132815911Y-34184271D01*
X132815910Y-34184270D01*
X132709474Y-34152438D01*
X132709472Y-34152438D01*
X132700873Y-34149866D01*
X132691898Y-34149811D01*
X132691897Y-34149811D01*
X132637241Y-34149477D01*
X132571831Y-34149078D01*
X132560075Y-34152438D01*
X132456386Y-34182072D01*
X132456384Y-34182073D01*
X132447755Y-34184539D01*
X132440165Y-34189328D01*
X132354454Y-34243408D01*
X132338619Y-34253399D01*
X132332678Y-34260126D01*
X132327830Y-34264252D01*
X132262990Y-34293172D01*
X132246165Y-34294300D01*
X127799578Y-34294300D01*
X127731457Y-34274298D01*
X127716747Y-34263247D01*
X127711452Y-34258627D01*
X127705593Y-34251828D01*
X127597306Y-34181641D01*
X127588711Y-34179071D01*
X127588710Y-34179070D01*
X127482274Y-34147238D01*
X127482272Y-34147238D01*
X127473673Y-34144666D01*
X127464698Y-34144611D01*
X127464697Y-34144611D01*
X127410041Y-34144277D01*
X127344631Y-34143878D01*
X127282593Y-34161608D01*
X127229186Y-34176872D01*
X127229184Y-34176873D01*
X127220555Y-34179339D01*
X127111419Y-34248199D01*
X127105476Y-34254928D01*
X127105475Y-34254929D01*
X127097241Y-34264252D01*
X127025996Y-34344922D01*
X126971154Y-34461732D01*
X126962026Y-34520358D01*
X126952682Y-34580367D01*
X126952682Y-34580371D01*
X126951301Y-34589240D01*
X115516500Y-34589240D01*
X115516500Y-28798040D01*
X124360501Y-28798040D01*
X124361665Y-28806942D01*
X124361665Y-28806945D01*
X124376068Y-28917089D01*
X124376069Y-28917093D01*
X124377233Y-28925994D01*
X124429205Y-29044110D01*
X124512239Y-29142891D01*
X124619660Y-29214396D01*
X124742833Y-29252878D01*
X124751803Y-29253042D01*
X124751807Y-29253043D01*
X124810542Y-29254119D01*
X124871855Y-29255243D01*
X124934105Y-29238271D01*
X124987692Y-29223662D01*
X124987693Y-29223662D01*
X124996355Y-29221300D01*
X125004005Y-29216603D01*
X125004007Y-29216602D01*
X125098672Y-29158478D01*
X125098675Y-29158475D01*
X125106324Y-29153779D01*
X125113777Y-29145545D01*
X125115577Y-29144443D01*
X125119255Y-29141389D01*
X125119696Y-29141920D01*
X125174320Y-29108464D01*
X125207192Y-29104100D01*
X126026939Y-29104100D01*
X126095060Y-29124102D01*
X126116034Y-29141005D01*
X126510918Y-29535889D01*
X126544944Y-29598201D01*
X126546758Y-29608642D01*
X126561633Y-29722394D01*
X126613605Y-29840510D01*
X126696639Y-29939291D01*
X126804060Y-30010796D01*
X126927233Y-30049278D01*
X126936203Y-30049442D01*
X126936207Y-30049443D01*
X126994942Y-30050519D01*
X127056255Y-30051643D01*
X127118505Y-30034672D01*
X127172092Y-30020062D01*
X127172093Y-30020062D01*
X127180755Y-30017700D01*
X127188405Y-30013003D01*
X127188407Y-30013002D01*
X127283072Y-29954878D01*
X127283075Y-29954875D01*
X127290724Y-29950179D01*
X127296750Y-29943522D01*
X127371300Y-29861161D01*
X127371303Y-29861157D01*
X127377322Y-29854507D01*
X127433588Y-29738375D01*
X127454997Y-29611120D01*
X127455133Y-29600000D01*
X127436839Y-29472259D01*
X127383428Y-29354788D01*
X127299193Y-29257028D01*
X127190906Y-29186841D01*
X127182311Y-29184271D01*
X127182310Y-29184270D01*
X127075874Y-29152438D01*
X127075872Y-29152438D01*
X127067273Y-29149866D01*
X127058298Y-29149811D01*
X127058297Y-29149811D01*
X127027174Y-29149621D01*
X127026010Y-29149614D01*
X126958012Y-29129196D01*
X126937684Y-29112712D01*
X126453116Y-28628145D01*
X126451363Y-28626115D01*
X126449025Y-28621331D01*
X126413123Y-28588027D01*
X126409718Y-28584747D01*
X126396323Y-28571352D01*
X126392353Y-28568628D01*
X126389705Y-28566303D01*
X126375481Y-28553108D01*
X126375478Y-28553106D01*
X126366954Y-28545199D01*
X126356150Y-28540889D01*
X126352161Y-28538367D01*
X126341373Y-28532606D01*
X126337048Y-28530689D01*
X126327454Y-28524108D01*
X126316135Y-28521422D01*
X126316133Y-28521421D01*
X126303473Y-28518417D01*
X126285876Y-28512852D01*
X126271238Y-28507012D01*
X126271235Y-28507011D01*
X126262978Y-28503717D01*
X126256685Y-28503100D01*
X126253606Y-28503100D01*
X126250533Y-28502950D01*
X126250544Y-28502734D01*
X126239169Y-28501402D01*
X126229854Y-28500946D01*
X126218534Y-28498260D01*
X126207005Y-28499829D01*
X126207004Y-28499829D01*
X126191427Y-28501949D01*
X126174436Y-28503100D01*
X125208778Y-28503100D01*
X125140657Y-28483098D01*
X125125947Y-28472047D01*
X125120652Y-28467427D01*
X125114793Y-28460628D01*
X125006506Y-28390441D01*
X124997911Y-28387871D01*
X124997910Y-28387870D01*
X124891474Y-28356038D01*
X124891472Y-28356038D01*
X124882873Y-28353466D01*
X124873898Y-28353411D01*
X124873897Y-28353411D01*
X124819241Y-28353077D01*
X124753831Y-28352678D01*
X124742075Y-28356038D01*
X124638386Y-28385672D01*
X124638384Y-28385673D01*
X124629755Y-28388139D01*
X124520619Y-28456999D01*
X124514676Y-28463728D01*
X124514675Y-28463729D01*
X124480920Y-28501949D01*
X124435196Y-28553722D01*
X124431382Y-28561845D01*
X124431381Y-28561847D01*
X124420630Y-28584747D01*
X124380354Y-28670532D01*
X124378974Y-28679398D01*
X124361882Y-28789167D01*
X124361882Y-28789171D01*
X124360501Y-28798040D01*
X115516500Y-28798040D01*
X115516500Y-25218500D01*
X115536502Y-25150379D01*
X115590158Y-25103886D01*
X115642500Y-25092500D01*
X131962000Y-25092500D01*
X132030121Y-25112502D01*
G37*
%TD.AperFunction*%
%TD*%
%TA.AperFunction,Conductor*%
%TO.N,+3V3*%
G36*
X129736121Y-51582002D02*
G01*
X129782614Y-51635658D01*
X129794000Y-51688000D01*
X129794000Y-53468000D01*
X129773998Y-53536121D01*
X129720342Y-53582614D01*
X129668000Y-53594000D01*
X124840000Y-53594000D01*
X124771879Y-53573998D01*
X124725386Y-53520342D01*
X124714000Y-53468000D01*
X124714000Y-51688000D01*
X124734002Y-51619879D01*
X124787658Y-51573386D01*
X124840000Y-51562000D01*
X129668000Y-51562000D01*
X129736121Y-51582002D01*
G37*
%TD.AperFunction*%
%TD*%
M02*
