%TF.GenerationSoftware,KiCad,Pcbnew,6.0.4-6f826c9f35~116~ubuntu20.04.1*%
%TF.CreationDate,2022-05-04T20:11:08+02:00*%
%TF.ProjectId,han_to_wifi_board,68616e5f-746f-45f7-9769-66695f626f61,rev?*%
%TF.SameCoordinates,Original*%
%TF.FileFunction,Legend,Top*%
%TF.FilePolarity,Positive*%
%FSLAX46Y46*%
G04 Gerber Fmt 4.6, Leading zero omitted, Abs format (unit mm)*
G04 Created by KiCad (PCBNEW 6.0.4-6f826c9f35~116~ubuntu20.04.1) date 2022-05-04 20:11:08*
%MOMM*%
%LPD*%
G01*
G04 APERTURE LIST*
G04 Aperture macros list*
%AMRoundRect*
0 Rectangle with rounded corners*
0 $1 Rounding radius*
0 $2 $3 $4 $5 $6 $7 $8 $9 X,Y pos of 4 corners*
0 Add a 4 corners polygon primitive as box body*
4,1,4,$2,$3,$4,$5,$6,$7,$8,$9,$2,$3,0*
0 Add four circle primitives for the rounded corners*
1,1,$1+$1,$2,$3*
1,1,$1+$1,$4,$5*
1,1,$1+$1,$6,$7*
1,1,$1+$1,$8,$9*
0 Add four rect primitives between the rounded corners*
20,1,$1+$1,$2,$3,$4,$5,0*
20,1,$1+$1,$4,$5,$6,$7,0*
20,1,$1+$1,$6,$7,$8,$9,0*
20,1,$1+$1,$8,$9,$2,$3,0*%
G04 Aperture macros list end*
%ADD10C,0.150000*%
%ADD11C,0.254000*%
%ADD12C,0.250000*%
%ADD13C,0.120000*%
%ADD14C,0.200000*%
%ADD15C,0.100000*%
%ADD16C,1.524000*%
%ADD17R,1.250000X1.250000*%
%ADD18R,0.775000X0.300000*%
%ADD19R,0.850000X0.300000*%
%ADD20R,0.300000X0.775000*%
%ADD21R,0.300000X0.850000*%
%ADD22RoundRect,0.225000X0.225000X0.250000X-0.225000X0.250000X-0.225000X-0.250000X0.225000X-0.250000X0*%
%ADD23R,1.550000X0.650000*%
%ADD24RoundRect,0.135000X0.185000X-0.135000X0.185000X0.135000X-0.185000X0.135000X-0.185000X-0.135000X0*%
%ADD25RoundRect,0.135000X0.135000X0.185000X-0.135000X0.185000X-0.135000X-0.185000X0.135000X-0.185000X0*%
%ADD26RoundRect,0.250000X0.475000X-0.250000X0.475000X0.250000X-0.475000X0.250000X-0.475000X-0.250000X0*%
%ADD27RoundRect,0.135000X-0.135000X-0.185000X0.135000X-0.185000X0.135000X0.185000X-0.135000X0.185000X0*%
%ADD28R,0.800000X1.150000*%
%ADD29RoundRect,0.225000X-0.250000X0.225000X-0.250000X-0.225000X0.250000X-0.225000X0.250000X0.225000X0*%
%ADD30RoundRect,0.218750X-0.256250X0.218750X-0.256250X-0.218750X0.256250X-0.218750X0.256250X0.218750X0*%
%ADD31R,2.500000X1.000000*%
%ADD32R,1.000000X1.800000*%
%ADD33R,0.700000X1.450000*%
%ADD34RoundRect,0.250000X-0.250000X-0.475000X0.250000X-0.475000X0.250000X0.475000X-0.250000X0.475000X0*%
%ADD35R,1.800000X2.500000*%
%ADD36RoundRect,0.200000X-0.275000X0.200000X-0.275000X-0.200000X0.275000X-0.200000X0.275000X0.200000X0*%
%ADD37RoundRect,0.135000X-0.185000X0.135000X-0.185000X-0.135000X0.185000X-0.135000X0.185000X0.135000X0*%
%ADD38R,0.760000X4.750000*%
%ADD39R,2.240000X3.510000*%
%ADD40R,0.600000X1.200000*%
%ADD41RoundRect,0.200000X0.275000X-0.200000X0.275000X0.200000X-0.275000X0.200000X-0.275000X-0.200000X0*%
%ADD42RoundRect,0.225000X-0.225000X-0.250000X0.225000X-0.250000X0.225000X0.250000X-0.225000X0.250000X0*%
%ADD43R,2.790000X1.903000*%
%ADD44RoundRect,0.250000X-0.475000X0.250000X-0.475000X-0.250000X0.475000X-0.250000X0.475000X0.250000X0*%
%ADD45RoundRect,0.200000X0.200000X0.600000X-0.200000X0.600000X-0.200000X-0.600000X0.200000X-0.600000X0*%
%ADD46RoundRect,0.250001X0.799999X1.249999X-0.799999X1.249999X-0.799999X-1.249999X0.799999X-1.249999X0*%
%ADD47RoundRect,0.225000X0.250000X-0.225000X0.250000X0.225000X-0.250000X0.225000X-0.250000X-0.225000X0*%
G04 APERTURE END LIST*
D10*
X135980952Y-41452380D02*
X135980952Y-42166666D01*
X135933333Y-42309523D01*
X135838095Y-42404761D01*
X135695238Y-42452380D01*
X135600000Y-42452380D01*
X136933333Y-42452380D02*
X136457142Y-42452380D01*
X136457142Y-41452380D01*
X137838095Y-42357142D02*
X137790476Y-42404761D01*
X137647619Y-42452380D01*
X137552380Y-42452380D01*
X137409523Y-42404761D01*
X137314285Y-42309523D01*
X137266666Y-42214285D01*
X137219047Y-42023809D01*
X137219047Y-41880952D01*
X137266666Y-41690476D01*
X137314285Y-41595238D01*
X137409523Y-41500000D01*
X137552380Y-41452380D01*
X137647619Y-41452380D01*
X137790476Y-41500000D01*
X137838095Y-41547619D01*
X138552380Y-41452380D02*
X138552380Y-42166666D01*
X138504761Y-42309523D01*
X138409523Y-42404761D01*
X138266666Y-42452380D01*
X138171428Y-42452380D01*
X139504761Y-42452380D02*
X139028571Y-42452380D01*
X139028571Y-41452380D01*
X140409523Y-42357142D02*
X140361904Y-42404761D01*
X140219047Y-42452380D01*
X140123809Y-42452380D01*
X139980952Y-42404761D01*
X139885714Y-42309523D01*
X139838095Y-42214285D01*
X139790476Y-42023809D01*
X139790476Y-41880952D01*
X139838095Y-41690476D01*
X139885714Y-41595238D01*
X139980952Y-41500000D01*
X140123809Y-41452380D01*
X140219047Y-41452380D01*
X140361904Y-41500000D01*
X140409523Y-41547619D01*
X141123809Y-41452380D02*
X141123809Y-42166666D01*
X141076190Y-42309523D01*
X140980952Y-42404761D01*
X140838095Y-42452380D01*
X140742857Y-42452380D01*
X142076190Y-42452380D02*
X141600000Y-42452380D01*
X141600000Y-41452380D01*
X142980952Y-42357142D02*
X142933333Y-42404761D01*
X142790476Y-42452380D01*
X142695238Y-42452380D01*
X142552380Y-42404761D01*
X142457142Y-42309523D01*
X142409523Y-42214285D01*
X142361904Y-42023809D01*
X142361904Y-41880952D01*
X142409523Y-41690476D01*
X142457142Y-41595238D01*
X142552380Y-41500000D01*
X142695238Y-41452380D01*
X142790476Y-41452380D01*
X142933333Y-41500000D01*
X142980952Y-41547619D01*
X143695238Y-41452380D02*
X143695238Y-42166666D01*
X143647619Y-42309523D01*
X143552380Y-42404761D01*
X143409523Y-42452380D01*
X143314285Y-42452380D01*
X144647619Y-42452380D02*
X144171428Y-42452380D01*
X144171428Y-41452380D01*
X145552380Y-42357142D02*
X145504761Y-42404761D01*
X145361904Y-42452380D01*
X145266666Y-42452380D01*
X145123809Y-42404761D01*
X145028571Y-42309523D01*
X144980952Y-42214285D01*
X144933333Y-42023809D01*
X144933333Y-41880952D01*
X144980952Y-41690476D01*
X145028571Y-41595238D01*
X145123809Y-41500000D01*
X145266666Y-41452380D01*
X145361904Y-41452380D01*
X145504761Y-41500000D01*
X145552380Y-41547619D01*
%TO.C,C3*%
X123159828Y-71602552D02*
X123159828Y-70840647D01*
X123540780Y-71221600D02*
X122778876Y-71221600D01*
X122046952Y-34980571D02*
X121285047Y-34980571D01*
%TO.C,IC3*%
X117452380Y-63976190D02*
X116452380Y-63976190D01*
X117357142Y-62928571D02*
X117404761Y-62976190D01*
X117452380Y-63119047D01*
X117452380Y-63214285D01*
X117404761Y-63357142D01*
X117309523Y-63452380D01*
X117214285Y-63500000D01*
X117023809Y-63547619D01*
X116880952Y-63547619D01*
X116690476Y-63500000D01*
X116595238Y-63452380D01*
X116500000Y-63357142D01*
X116452380Y-63214285D01*
X116452380Y-63119047D01*
X116500000Y-62976190D01*
X116547619Y-62928571D01*
X116452380Y-62595238D02*
X116452380Y-61976190D01*
X116833333Y-62309523D01*
X116833333Y-62166666D01*
X116880952Y-62071428D01*
X116928571Y-62023809D01*
X117023809Y-61976190D01*
X117261904Y-61976190D01*
X117357142Y-62023809D01*
X117404761Y-62071428D01*
X117452380Y-62166666D01*
X117452380Y-62452380D01*
X117404761Y-62547619D01*
X117357142Y-62595238D01*
%TO.C,C7*%
X123524333Y-52157142D02*
X123476714Y-52204761D01*
X123333857Y-52252380D01*
X123238619Y-52252380D01*
X123095761Y-52204761D01*
X123000523Y-52109523D01*
X122952904Y-52014285D01*
X122905285Y-51823809D01*
X122905285Y-51680952D01*
X122952904Y-51490476D01*
X123000523Y-51395238D01*
X123095761Y-51300000D01*
X123238619Y-51252380D01*
X123333857Y-51252380D01*
X123476714Y-51300000D01*
X123524333Y-51347619D01*
X123857666Y-51252380D02*
X124524333Y-51252380D01*
X124095761Y-52252380D01*
%TO.C,U3*%
X119888095Y-45172380D02*
X119888095Y-45981904D01*
X119935714Y-46077142D01*
X119983333Y-46124761D01*
X120078571Y-46172380D01*
X120269047Y-46172380D01*
X120364285Y-46124761D01*
X120411904Y-46077142D01*
X120459523Y-45981904D01*
X120459523Y-45172380D01*
X120840476Y-45172380D02*
X121459523Y-45172380D01*
X121126190Y-45553333D01*
X121269047Y-45553333D01*
X121364285Y-45600952D01*
X121411904Y-45648571D01*
X121459523Y-45743809D01*
X121459523Y-45981904D01*
X121411904Y-46077142D01*
X121364285Y-46124761D01*
X121269047Y-46172380D01*
X120983333Y-46172380D01*
X120888095Y-46124761D01*
X120840476Y-46077142D01*
%TO.C,R7*%
X117343180Y-39435066D02*
X116866990Y-39768400D01*
X117343180Y-40006495D02*
X116343180Y-40006495D01*
X116343180Y-39625542D01*
X116390800Y-39530304D01*
X116438419Y-39482685D01*
X116533657Y-39435066D01*
X116676514Y-39435066D01*
X116771752Y-39482685D01*
X116819371Y-39530304D01*
X116866990Y-39625542D01*
X116866990Y-40006495D01*
X116343180Y-39101733D02*
X116343180Y-38435066D01*
X117343180Y-38863638D01*
%TO.C,R2*%
X147591333Y-51452380D02*
X147258000Y-50976190D01*
X147019904Y-51452380D02*
X147019904Y-50452380D01*
X147400857Y-50452380D01*
X147496095Y-50500000D01*
X147543714Y-50547619D01*
X147591333Y-50642857D01*
X147591333Y-50785714D01*
X147543714Y-50880952D01*
X147496095Y-50928571D01*
X147400857Y-50976190D01*
X147019904Y-50976190D01*
X147972285Y-50547619D02*
X148019904Y-50500000D01*
X148115142Y-50452380D01*
X148353238Y-50452380D01*
X148448476Y-50500000D01*
X148496095Y-50547619D01*
X148543714Y-50642857D01*
X148543714Y-50738095D01*
X148496095Y-50880952D01*
X147924666Y-51452380D01*
X148543714Y-51452380D01*
%TO.C,R10*%
X131052380Y-44842857D02*
X130576190Y-45176190D01*
X131052380Y-45414285D02*
X130052380Y-45414285D01*
X130052380Y-45033333D01*
X130100000Y-44938095D01*
X130147619Y-44890476D01*
X130242857Y-44842857D01*
X130385714Y-44842857D01*
X130480952Y-44890476D01*
X130528571Y-44938095D01*
X130576190Y-45033333D01*
X130576190Y-45414285D01*
X131052380Y-43890476D02*
X131052380Y-44461904D01*
X131052380Y-44176190D02*
X130052380Y-44176190D01*
X130195238Y-44271428D01*
X130290476Y-44366666D01*
X130338095Y-44461904D01*
X130052380Y-43271428D02*
X130052380Y-43176190D01*
X130100000Y-43080952D01*
X130147619Y-43033333D01*
X130242857Y-42985714D01*
X130433333Y-42938095D01*
X130671428Y-42938095D01*
X130861904Y-42985714D01*
X130957142Y-43033333D01*
X131004761Y-43080952D01*
X131052380Y-43176190D01*
X131052380Y-43271428D01*
X131004761Y-43366666D01*
X130957142Y-43414285D01*
X130861904Y-43461904D01*
X130671428Y-43509523D01*
X130433333Y-43509523D01*
X130242857Y-43461904D01*
X130147619Y-43414285D01*
X130100000Y-43366666D01*
X130052380Y-43271428D01*
%TO.C,C21*%
X124357142Y-55616405D02*
X124404761Y-55664024D01*
X124452380Y-55806881D01*
X124452380Y-55902119D01*
X124404761Y-56044976D01*
X124309523Y-56140214D01*
X124214285Y-56187833D01*
X124023809Y-56235452D01*
X123880952Y-56235452D01*
X123690476Y-56187833D01*
X123595238Y-56140214D01*
X123500000Y-56044976D01*
X123452380Y-55902119D01*
X123452380Y-55806881D01*
X123500000Y-55664024D01*
X123547619Y-55616405D01*
X123547619Y-55235452D02*
X123500000Y-55187833D01*
X123452380Y-55092595D01*
X123452380Y-54854500D01*
X123500000Y-54759262D01*
X123547619Y-54711643D01*
X123642857Y-54664024D01*
X123738095Y-54664024D01*
X123880952Y-54711643D01*
X124452380Y-55283071D01*
X124452380Y-54664024D01*
X124452380Y-53711643D02*
X124452380Y-54283071D01*
X124452380Y-53997357D02*
X123452380Y-53997357D01*
X123595238Y-54092595D01*
X123690476Y-54187833D01*
X123738095Y-54283071D01*
%TO.C,R13*%
X128757142Y-46852380D02*
X128423809Y-46376190D01*
X128185714Y-46852380D02*
X128185714Y-45852380D01*
X128566666Y-45852380D01*
X128661904Y-45900000D01*
X128709523Y-45947619D01*
X128757142Y-46042857D01*
X128757142Y-46185714D01*
X128709523Y-46280952D01*
X128661904Y-46328571D01*
X128566666Y-46376190D01*
X128185714Y-46376190D01*
X129709523Y-46852380D02*
X129138095Y-46852380D01*
X129423809Y-46852380D02*
X129423809Y-45852380D01*
X129328571Y-45995238D01*
X129233333Y-46090476D01*
X129138095Y-46138095D01*
X130042857Y-45852380D02*
X130661904Y-45852380D01*
X130328571Y-46233333D01*
X130471428Y-46233333D01*
X130566666Y-46280952D01*
X130614285Y-46328571D01*
X130661904Y-46423809D01*
X130661904Y-46661904D01*
X130614285Y-46757142D01*
X130566666Y-46804761D01*
X130471428Y-46852380D01*
X130185714Y-46852380D01*
X130090476Y-46804761D01*
X130042857Y-46757142D01*
%TO.C,D4*%
X126817380Y-70334095D02*
X125817380Y-70334095D01*
X125817380Y-70096000D01*
X125865000Y-69953142D01*
X125960238Y-69857904D01*
X126055476Y-69810285D01*
X126245952Y-69762666D01*
X126388809Y-69762666D01*
X126579285Y-69810285D01*
X126674523Y-69857904D01*
X126769761Y-69953142D01*
X126817380Y-70096000D01*
X126817380Y-70334095D01*
X126150714Y-68905523D02*
X126817380Y-68905523D01*
X125769761Y-69143619D02*
X126484047Y-69381714D01*
X126484047Y-68762666D01*
%TO.C,C19*%
X122531142Y-63431657D02*
X122578761Y-63479276D01*
X122626380Y-63622133D01*
X122626380Y-63717371D01*
X122578761Y-63860228D01*
X122483523Y-63955466D01*
X122388285Y-64003085D01*
X122197809Y-64050704D01*
X122054952Y-64050704D01*
X121864476Y-64003085D01*
X121769238Y-63955466D01*
X121674000Y-63860228D01*
X121626380Y-63717371D01*
X121626380Y-63622133D01*
X121674000Y-63479276D01*
X121721619Y-63431657D01*
X122626380Y-62479276D02*
X122626380Y-63050704D01*
X122626380Y-62764990D02*
X121626380Y-62764990D01*
X121769238Y-62860228D01*
X121864476Y-62955466D01*
X121912095Y-63050704D01*
X122626380Y-62003085D02*
X122626380Y-61812609D01*
X122578761Y-61717371D01*
X122531142Y-61669752D01*
X122388285Y-61574514D01*
X122197809Y-61526895D01*
X121816857Y-61526895D01*
X121721619Y-61574514D01*
X121674000Y-61622133D01*
X121626380Y-61717371D01*
X121626380Y-61907847D01*
X121674000Y-62003085D01*
X121721619Y-62050704D01*
X121816857Y-62098323D01*
X122054952Y-62098323D01*
X122150190Y-62050704D01*
X122197809Y-62003085D01*
X122245428Y-61907847D01*
X122245428Y-61717371D01*
X122197809Y-61622133D01*
X122150190Y-61574514D01*
X122054952Y-61526895D01*
%TO.C,D3*%
X123439180Y-34113695D02*
X122439180Y-34113695D01*
X122439180Y-33875600D01*
X122486800Y-33732742D01*
X122582038Y-33637504D01*
X122677276Y-33589885D01*
X122867752Y-33542266D01*
X123010609Y-33542266D01*
X123201085Y-33589885D01*
X123296323Y-33637504D01*
X123391561Y-33732742D01*
X123439180Y-33875600D01*
X123439180Y-34113695D01*
X122439180Y-33208933D02*
X122439180Y-32589885D01*
X122820133Y-32923219D01*
X122820133Y-32780361D01*
X122867752Y-32685123D01*
X122915371Y-32637504D01*
X123010609Y-32589885D01*
X123248704Y-32589885D01*
X123343942Y-32637504D01*
X123391561Y-32685123D01*
X123439180Y-32780361D01*
X123439180Y-33066076D01*
X123391561Y-33161314D01*
X123343942Y-33208933D01*
%TO.C,U1*%
X139438095Y-36452380D02*
X139438095Y-37261904D01*
X139485714Y-37357142D01*
X139533333Y-37404761D01*
X139628571Y-37452380D01*
X139819047Y-37452380D01*
X139914285Y-37404761D01*
X139961904Y-37357142D01*
X140009523Y-37261904D01*
X140009523Y-36452380D01*
X141009523Y-37452380D02*
X140438095Y-37452380D01*
X140723809Y-37452380D02*
X140723809Y-36452380D01*
X140628571Y-36595238D01*
X140533333Y-36690476D01*
X140438095Y-36738095D01*
%TO.C,SW1*%
X129436761Y-36537733D02*
X129484380Y-36394876D01*
X129484380Y-36156780D01*
X129436761Y-36061542D01*
X129389142Y-36013923D01*
X129293904Y-35966304D01*
X129198666Y-35966304D01*
X129103428Y-36013923D01*
X129055809Y-36061542D01*
X129008190Y-36156780D01*
X128960571Y-36347257D01*
X128912952Y-36442495D01*
X128865333Y-36490114D01*
X128770095Y-36537733D01*
X128674857Y-36537733D01*
X128579619Y-36490114D01*
X128532000Y-36442495D01*
X128484380Y-36347257D01*
X128484380Y-36109161D01*
X128532000Y-35966304D01*
X128484380Y-35632971D02*
X129484380Y-35394876D01*
X128770095Y-35204400D01*
X129484380Y-35013923D01*
X128484380Y-34775828D01*
X129484380Y-33871066D02*
X129484380Y-34442495D01*
X129484380Y-34156780D02*
X128484380Y-34156780D01*
X128627238Y-34252019D01*
X128722476Y-34347257D01*
X128770095Y-34442495D01*
%TO.C,C12*%
X117157142Y-71357142D02*
X117109523Y-71404761D01*
X116966666Y-71452380D01*
X116871428Y-71452380D01*
X116728571Y-71404761D01*
X116633333Y-71309523D01*
X116585714Y-71214285D01*
X116538095Y-71023809D01*
X116538095Y-70880952D01*
X116585714Y-70690476D01*
X116633333Y-70595238D01*
X116728571Y-70500000D01*
X116871428Y-70452380D01*
X116966666Y-70452380D01*
X117109523Y-70500000D01*
X117157142Y-70547619D01*
X118109523Y-71452380D02*
X117538095Y-71452380D01*
X117823809Y-71452380D02*
X117823809Y-70452380D01*
X117728571Y-70595238D01*
X117633333Y-70690476D01*
X117538095Y-70738095D01*
X118490476Y-70547619D02*
X118538095Y-70500000D01*
X118633333Y-70452380D01*
X118871428Y-70452380D01*
X118966666Y-70500000D01*
X119014285Y-70547619D01*
X119061904Y-70642857D01*
X119061904Y-70738095D01*
X119014285Y-70880952D01*
X118442857Y-71452380D01*
X119061904Y-71452380D01*
%TO.C,C2*%
X130757142Y-51566666D02*
X130804761Y-51614285D01*
X130852380Y-51757142D01*
X130852380Y-51852380D01*
X130804761Y-51995238D01*
X130709523Y-52090476D01*
X130614285Y-52138095D01*
X130423809Y-52185714D01*
X130280952Y-52185714D01*
X130090476Y-52138095D01*
X129995238Y-52090476D01*
X129900000Y-51995238D01*
X129852380Y-51852380D01*
X129852380Y-51757142D01*
X129900000Y-51614285D01*
X129947619Y-51566666D01*
X129947619Y-51185714D02*
X129900000Y-51138095D01*
X129852380Y-51042857D01*
X129852380Y-50804761D01*
X129900000Y-50709523D01*
X129947619Y-50661904D01*
X130042857Y-50614285D01*
X130138095Y-50614285D01*
X130280952Y-50661904D01*
X130852380Y-51233333D01*
X130852380Y-50614285D01*
%TO.C,D2*%
X125461904Y-63852380D02*
X125461904Y-62852380D01*
X125700000Y-62852380D01*
X125842857Y-62900000D01*
X125938095Y-62995238D01*
X125985714Y-63090476D01*
X126033333Y-63280952D01*
X126033333Y-63423809D01*
X125985714Y-63614285D01*
X125938095Y-63709523D01*
X125842857Y-63804761D01*
X125700000Y-63852380D01*
X125461904Y-63852380D01*
X126414285Y-62947619D02*
X126461904Y-62900000D01*
X126557142Y-62852380D01*
X126795238Y-62852380D01*
X126890476Y-62900000D01*
X126938095Y-62947619D01*
X126985714Y-63042857D01*
X126985714Y-63138095D01*
X126938095Y-63280952D01*
X126366666Y-63852380D01*
X126985714Y-63852380D01*
%TO.C,R11*%
X128272780Y-58250057D02*
X127796590Y-58583390D01*
X128272780Y-58821485D02*
X127272780Y-58821485D01*
X127272780Y-58440533D01*
X127320400Y-58345295D01*
X127368019Y-58297676D01*
X127463257Y-58250057D01*
X127606114Y-58250057D01*
X127701352Y-58297676D01*
X127748971Y-58345295D01*
X127796590Y-58440533D01*
X127796590Y-58821485D01*
X128272780Y-57297676D02*
X128272780Y-57869104D01*
X128272780Y-57583390D02*
X127272780Y-57583390D01*
X127415638Y-57678628D01*
X127510876Y-57773866D01*
X127558495Y-57869104D01*
X128272780Y-56345295D02*
X128272780Y-56916723D01*
X128272780Y-56631009D02*
X127272780Y-56631009D01*
X127415638Y-56726247D01*
X127510876Y-56821485D01*
X127558495Y-56916723D01*
%TO.C,R8*%
X127503180Y-46089866D02*
X127026990Y-46423200D01*
X127503180Y-46661295D02*
X126503180Y-46661295D01*
X126503180Y-46280342D01*
X126550800Y-46185104D01*
X126598419Y-46137485D01*
X126693657Y-46089866D01*
X126836514Y-46089866D01*
X126931752Y-46137485D01*
X126979371Y-46185104D01*
X127026990Y-46280342D01*
X127026990Y-46661295D01*
X126931752Y-45518438D02*
X126884133Y-45613676D01*
X126836514Y-45661295D01*
X126741276Y-45708914D01*
X126693657Y-45708914D01*
X126598419Y-45661295D01*
X126550800Y-45613676D01*
X126503180Y-45518438D01*
X126503180Y-45327961D01*
X126550800Y-45232723D01*
X126598419Y-45185104D01*
X126693657Y-45137485D01*
X126741276Y-45137485D01*
X126836514Y-45185104D01*
X126884133Y-45232723D01*
X126931752Y-45327961D01*
X126931752Y-45518438D01*
X126979371Y-45613676D01*
X127026990Y-45661295D01*
X127122228Y-45708914D01*
X127312704Y-45708914D01*
X127407942Y-45661295D01*
X127455561Y-45613676D01*
X127503180Y-45518438D01*
X127503180Y-45327961D01*
X127455561Y-45232723D01*
X127407942Y-45185104D01*
X127312704Y-45137485D01*
X127122228Y-45137485D01*
X127026990Y-45185104D01*
X126979371Y-45232723D01*
X126931752Y-45327961D01*
D11*
%TO.C,J1*%
X138260666Y-61788523D02*
X138260666Y-62695666D01*
X138200190Y-62877095D01*
X138079238Y-62998047D01*
X137897809Y-63058523D01*
X137776857Y-63058523D01*
X139530666Y-63058523D02*
X138804952Y-63058523D01*
X139167809Y-63058523D02*
X139167809Y-61788523D01*
X139046857Y-61969952D01*
X138925904Y-62090904D01*
X138804952Y-62151380D01*
D10*
%TO.C,R4*%
X140754533Y-51452380D02*
X140421200Y-50976190D01*
X140183104Y-51452380D02*
X140183104Y-50452380D01*
X140564057Y-50452380D01*
X140659295Y-50500000D01*
X140706914Y-50547619D01*
X140754533Y-50642857D01*
X140754533Y-50785714D01*
X140706914Y-50880952D01*
X140659295Y-50928571D01*
X140564057Y-50976190D01*
X140183104Y-50976190D01*
X141611676Y-50785714D02*
X141611676Y-51452380D01*
X141373580Y-50404761D02*
X141135485Y-51119047D01*
X141754533Y-51119047D01*
%TO.C,IC1*%
X128569980Y-41209790D02*
X127569980Y-41209790D01*
X128474742Y-40162171D02*
X128522361Y-40209790D01*
X128569980Y-40352647D01*
X128569980Y-40447885D01*
X128522361Y-40590742D01*
X128427123Y-40685980D01*
X128331885Y-40733600D01*
X128141409Y-40781219D01*
X127998552Y-40781219D01*
X127808076Y-40733600D01*
X127712838Y-40685980D01*
X127617600Y-40590742D01*
X127569980Y-40447885D01*
X127569980Y-40352647D01*
X127617600Y-40209790D01*
X127665219Y-40162171D01*
X128569980Y-39209790D02*
X128569980Y-39781219D01*
X128569980Y-39495504D02*
X127569980Y-39495504D01*
X127712838Y-39590742D01*
X127808076Y-39685980D01*
X127855695Y-39781219D01*
%TO.C,R12*%
X125827380Y-44717857D02*
X125351190Y-45051190D01*
X125827380Y-45289285D02*
X124827380Y-45289285D01*
X124827380Y-44908333D01*
X124875000Y-44813095D01*
X124922619Y-44765476D01*
X125017857Y-44717857D01*
X125160714Y-44717857D01*
X125255952Y-44765476D01*
X125303571Y-44813095D01*
X125351190Y-44908333D01*
X125351190Y-45289285D01*
X125827380Y-43765476D02*
X125827380Y-44336904D01*
X125827380Y-44051190D02*
X124827380Y-44051190D01*
X124970238Y-44146428D01*
X125065476Y-44241666D01*
X125113095Y-44336904D01*
X124922619Y-43384523D02*
X124875000Y-43336904D01*
X124827380Y-43241666D01*
X124827380Y-43003571D01*
X124875000Y-42908333D01*
X124922619Y-42860714D01*
X125017857Y-42813095D01*
X125113095Y-42813095D01*
X125255952Y-42860714D01*
X125827380Y-43432142D01*
X125827380Y-42813095D01*
%TO.C,C20*%
X120464342Y-61113942D02*
X120416723Y-61161561D01*
X120273866Y-61209180D01*
X120178628Y-61209180D01*
X120035771Y-61161561D01*
X119940533Y-61066323D01*
X119892914Y-60971085D01*
X119845295Y-60780609D01*
X119845295Y-60637752D01*
X119892914Y-60447276D01*
X119940533Y-60352038D01*
X120035771Y-60256800D01*
X120178628Y-60209180D01*
X120273866Y-60209180D01*
X120416723Y-60256800D01*
X120464342Y-60304419D01*
X120845295Y-60304419D02*
X120892914Y-60256800D01*
X120988152Y-60209180D01*
X121226247Y-60209180D01*
X121321485Y-60256800D01*
X121369104Y-60304419D01*
X121416723Y-60399657D01*
X121416723Y-60494895D01*
X121369104Y-60637752D01*
X120797676Y-61209180D01*
X121416723Y-61209180D01*
X122035771Y-60209180D02*
X122131009Y-60209180D01*
X122226247Y-60256800D01*
X122273866Y-60304419D01*
X122321485Y-60399657D01*
X122369104Y-60590133D01*
X122369104Y-60828228D01*
X122321485Y-61018704D01*
X122273866Y-61113942D01*
X122226247Y-61161561D01*
X122131009Y-61209180D01*
X122035771Y-61209180D01*
X121940533Y-61161561D01*
X121892914Y-61113942D01*
X121845295Y-61018704D01*
X121797676Y-60828228D01*
X121797676Y-60590133D01*
X121845295Y-60399657D01*
X121892914Y-60304419D01*
X121940533Y-60256800D01*
X122035771Y-60209180D01*
%TO.C,R9*%
X120187980Y-39447266D02*
X119711790Y-39780600D01*
X120187980Y-40018695D02*
X119187980Y-40018695D01*
X119187980Y-39637742D01*
X119235600Y-39542504D01*
X119283219Y-39494885D01*
X119378457Y-39447266D01*
X119521314Y-39447266D01*
X119616552Y-39494885D01*
X119664171Y-39542504D01*
X119711790Y-39637742D01*
X119711790Y-40018695D01*
X120187980Y-38971076D02*
X120187980Y-38780600D01*
X120140361Y-38685361D01*
X120092742Y-38637742D01*
X119949885Y-38542504D01*
X119759409Y-38494885D01*
X119378457Y-38494885D01*
X119283219Y-38542504D01*
X119235600Y-38590123D01*
X119187980Y-38685361D01*
X119187980Y-38875838D01*
X119235600Y-38971076D01*
X119283219Y-39018695D01*
X119378457Y-39066314D01*
X119616552Y-39066314D01*
X119711790Y-39018695D01*
X119759409Y-38971076D01*
X119807028Y-38875838D01*
X119807028Y-38685361D01*
X119759409Y-38590123D01*
X119711790Y-38542504D01*
X119616552Y-38494885D01*
%TO.C,C1*%
X129157142Y-51366666D02*
X129204761Y-51414285D01*
X129252380Y-51557142D01*
X129252380Y-51652380D01*
X129204761Y-51795238D01*
X129109523Y-51890476D01*
X129014285Y-51938095D01*
X128823809Y-51985714D01*
X128680952Y-51985714D01*
X128490476Y-51938095D01*
X128395238Y-51890476D01*
X128300000Y-51795238D01*
X128252380Y-51652380D01*
X128252380Y-51557142D01*
X128300000Y-51414285D01*
X128347619Y-51366666D01*
X129252380Y-50414285D02*
X129252380Y-50985714D01*
X129252380Y-50700000D02*
X128252380Y-50700000D01*
X128395238Y-50795238D01*
X128490476Y-50890476D01*
X128538095Y-50985714D01*
%TO.C,L3*%
X118233333Y-57258680D02*
X117757142Y-57258680D01*
X117757142Y-56258680D01*
X118471428Y-56258680D02*
X119090476Y-56258680D01*
X118757142Y-56639633D01*
X118900000Y-56639633D01*
X118995238Y-56687252D01*
X119042857Y-56734871D01*
X119090476Y-56830109D01*
X119090476Y-57068204D01*
X119042857Y-57163442D01*
X118995238Y-57211061D01*
X118900000Y-57258680D01*
X118614285Y-57258680D01*
X118519047Y-57211061D01*
X118471428Y-57163442D01*
%TO.C,R3*%
X126588780Y-35980666D02*
X126112590Y-36314000D01*
X126588780Y-36552095D02*
X125588780Y-36552095D01*
X125588780Y-36171142D01*
X125636400Y-36075904D01*
X125684019Y-36028285D01*
X125779257Y-35980666D01*
X125922114Y-35980666D01*
X126017352Y-36028285D01*
X126064971Y-36075904D01*
X126112590Y-36171142D01*
X126112590Y-36552095D01*
X125588780Y-35647333D02*
X125588780Y-35028285D01*
X125969733Y-35361619D01*
X125969733Y-35218761D01*
X126017352Y-35123523D01*
X126064971Y-35075904D01*
X126160209Y-35028285D01*
X126398304Y-35028285D01*
X126493542Y-35075904D01*
X126541161Y-35123523D01*
X126588780Y-35218761D01*
X126588780Y-35504476D01*
X126541161Y-35599714D01*
X126493542Y-35647333D01*
%TO.C,C18*%
X122966742Y-69757142D02*
X122919123Y-69804761D01*
X122776266Y-69852380D01*
X122681028Y-69852380D01*
X122538171Y-69804761D01*
X122442933Y-69709523D01*
X122395314Y-69614285D01*
X122347695Y-69423809D01*
X122347695Y-69280952D01*
X122395314Y-69090476D01*
X122442933Y-68995238D01*
X122538171Y-68900000D01*
X122681028Y-68852380D01*
X122776266Y-68852380D01*
X122919123Y-68900000D01*
X122966742Y-68947619D01*
X123919123Y-69852380D02*
X123347695Y-69852380D01*
X123633409Y-69852380D02*
X123633409Y-68852380D01*
X123538171Y-68995238D01*
X123442933Y-69090476D01*
X123347695Y-69138095D01*
X124490552Y-69280952D02*
X124395314Y-69233333D01*
X124347695Y-69185714D01*
X124300076Y-69090476D01*
X124300076Y-69042857D01*
X124347695Y-68947619D01*
X124395314Y-68900000D01*
X124490552Y-68852380D01*
X124681028Y-68852380D01*
X124776266Y-68900000D01*
X124823885Y-68947619D01*
X124871504Y-69042857D01*
X124871504Y-69090476D01*
X124823885Y-69185714D01*
X124776266Y-69233333D01*
X124681028Y-69280952D01*
X124490552Y-69280952D01*
X124395314Y-69328571D01*
X124347695Y-69376190D01*
X124300076Y-69471428D01*
X124300076Y-69661904D01*
X124347695Y-69757142D01*
X124395314Y-69804761D01*
X124490552Y-69852380D01*
X124681028Y-69852380D01*
X124776266Y-69804761D01*
X124823885Y-69757142D01*
X124871504Y-69661904D01*
X124871504Y-69471428D01*
X124823885Y-69376190D01*
X124776266Y-69328571D01*
X124681028Y-69280952D01*
%TO.C,R1*%
X131052380Y-41566666D02*
X130576190Y-41900000D01*
X131052380Y-42138095D02*
X130052380Y-42138095D01*
X130052380Y-41757142D01*
X130100000Y-41661904D01*
X130147619Y-41614285D01*
X130242857Y-41566666D01*
X130385714Y-41566666D01*
X130480952Y-41614285D01*
X130528571Y-41661904D01*
X130576190Y-41757142D01*
X130576190Y-42138095D01*
X131052380Y-40614285D02*
X131052380Y-41185714D01*
X131052380Y-40900000D02*
X130052380Y-40900000D01*
X130195238Y-40995238D01*
X130290476Y-41090476D01*
X130338095Y-41185714D01*
%TO.C,R19*%
X124099980Y-63379257D02*
X123623790Y-63712590D01*
X124099980Y-63950685D02*
X123099980Y-63950685D01*
X123099980Y-63569733D01*
X123147600Y-63474495D01*
X123195219Y-63426876D01*
X123290457Y-63379257D01*
X123433314Y-63379257D01*
X123528552Y-63426876D01*
X123576171Y-63474495D01*
X123623790Y-63569733D01*
X123623790Y-63950685D01*
X124099980Y-62426876D02*
X124099980Y-62998304D01*
X124099980Y-62712590D02*
X123099980Y-62712590D01*
X123242838Y-62807828D01*
X123338076Y-62903066D01*
X123385695Y-62998304D01*
X124099980Y-61950685D02*
X124099980Y-61760209D01*
X124052361Y-61664971D01*
X124004742Y-61617352D01*
X123861885Y-61522114D01*
X123671409Y-61474495D01*
X123290457Y-61474495D01*
X123195219Y-61522114D01*
X123147600Y-61569733D01*
X123099980Y-61664971D01*
X123099980Y-61855447D01*
X123147600Y-61950685D01*
X123195219Y-61998304D01*
X123290457Y-62045923D01*
X123528552Y-62045923D01*
X123623790Y-61998304D01*
X123671409Y-61950685D01*
X123719028Y-61855447D01*
X123719028Y-61664971D01*
X123671409Y-61569733D01*
X123623790Y-61522114D01*
X123528552Y-61474495D01*
%TO.C,C11*%
X127637142Y-49892857D02*
X127684761Y-49940476D01*
X127732380Y-50083333D01*
X127732380Y-50178571D01*
X127684761Y-50321428D01*
X127589523Y-50416666D01*
X127494285Y-50464285D01*
X127303809Y-50511904D01*
X127160952Y-50511904D01*
X126970476Y-50464285D01*
X126875238Y-50416666D01*
X126780000Y-50321428D01*
X126732380Y-50178571D01*
X126732380Y-50083333D01*
X126780000Y-49940476D01*
X126827619Y-49892857D01*
X127732380Y-48940476D02*
X127732380Y-49511904D01*
X127732380Y-49226190D02*
X126732380Y-49226190D01*
X126875238Y-49321428D01*
X126970476Y-49416666D01*
X127018095Y-49511904D01*
X127732380Y-47988095D02*
X127732380Y-48559523D01*
X127732380Y-48273809D02*
X126732380Y-48273809D01*
X126875238Y-48369047D01*
X126970476Y-48464285D01*
X127018095Y-48559523D01*
%TO.C,J3*%
X124126666Y-27392380D02*
X124126666Y-28106666D01*
X124079047Y-28249523D01*
X123983809Y-28344761D01*
X123840952Y-28392380D01*
X123745714Y-28392380D01*
X124507619Y-27392380D02*
X125126666Y-27392380D01*
X124793333Y-27773333D01*
X124936190Y-27773333D01*
X125031428Y-27820952D01*
X125079047Y-27868571D01*
X125126666Y-27963809D01*
X125126666Y-28201904D01*
X125079047Y-28297142D01*
X125031428Y-28344761D01*
X124936190Y-28392380D01*
X124650476Y-28392380D01*
X124555238Y-28344761D01*
X124507619Y-28297142D01*
%TO.C,C6*%
X118416342Y-39435066D02*
X118463961Y-39482685D01*
X118511580Y-39625542D01*
X118511580Y-39720780D01*
X118463961Y-39863638D01*
X118368723Y-39958876D01*
X118273485Y-40006495D01*
X118083009Y-40054114D01*
X117940152Y-40054114D01*
X117749676Y-40006495D01*
X117654438Y-39958876D01*
X117559200Y-39863638D01*
X117511580Y-39720780D01*
X117511580Y-39625542D01*
X117559200Y-39482685D01*
X117606819Y-39435066D01*
X117511580Y-38577923D02*
X117511580Y-38768400D01*
X117559200Y-38863638D01*
X117606819Y-38911257D01*
X117749676Y-39006495D01*
X117940152Y-39054114D01*
X118321104Y-39054114D01*
X118416342Y-39006495D01*
X118463961Y-38958876D01*
X118511580Y-38863638D01*
X118511580Y-38673161D01*
X118463961Y-38577923D01*
X118416342Y-38530304D01*
X118321104Y-38482685D01*
X118083009Y-38482685D01*
X117987771Y-38530304D01*
X117940152Y-38577923D01*
X117892533Y-38673161D01*
X117892533Y-38863638D01*
X117940152Y-38958876D01*
X117987771Y-39006495D01*
X118083009Y-39054114D01*
%TO.C,R5*%
X123489980Y-37606266D02*
X123013790Y-37939600D01*
X123489980Y-38177695D02*
X122489980Y-38177695D01*
X122489980Y-37796742D01*
X122537600Y-37701504D01*
X122585219Y-37653885D01*
X122680457Y-37606266D01*
X122823314Y-37606266D01*
X122918552Y-37653885D01*
X122966171Y-37701504D01*
X123013790Y-37796742D01*
X123013790Y-38177695D01*
X122489980Y-36701504D02*
X122489980Y-37177695D01*
X122966171Y-37225314D01*
X122918552Y-37177695D01*
X122870933Y-37082457D01*
X122870933Y-36844361D01*
X122918552Y-36749123D01*
X122966171Y-36701504D01*
X123061409Y-36653885D01*
X123299504Y-36653885D01*
X123394742Y-36701504D01*
X123442361Y-36749123D01*
X123489980Y-36844361D01*
X123489980Y-37082457D01*
X123442361Y-37177695D01*
X123394742Y-37225314D01*
D12*
%TO.C,IC3*%
X117293800Y-67051400D02*
G75*
G03*
X117293800Y-67051400I-125000J0D01*
G01*
D13*
%TO.C,C7*%
X121031580Y-52326000D02*
X120750420Y-52326000D01*
X121031580Y-51306000D02*
X120750420Y-51306000D01*
D14*
%TO.C,U3*%
X117150000Y-40600000D02*
X118700000Y-40600000D01*
D13*
%TO.C,R7*%
X117220000Y-37489641D02*
X117220000Y-37182359D01*
X116460000Y-37489641D02*
X116460000Y-37182359D01*
%TO.C,R2*%
X145891641Y-51230800D02*
X145584359Y-51230800D01*
X145891641Y-50470800D02*
X145584359Y-50470800D01*
%TO.C,R10*%
X129183641Y-43257200D02*
X128876359Y-43257200D01*
X129183641Y-44017200D02*
X128876359Y-44017200D01*
%TO.C,C21*%
X123112200Y-55496052D02*
X123112200Y-54973548D01*
X121642200Y-55496052D02*
X121642200Y-54973548D01*
%TO.C,R13*%
X128936359Y-44476400D02*
X129243641Y-44476400D01*
X128936359Y-45236400D02*
X129243641Y-45236400D01*
D14*
%TO.C,D4*%
X125565000Y-71921000D02*
X125565000Y-68251000D01*
X127165000Y-70941000D02*
X127165000Y-68251000D01*
D13*
%TO.C,C19*%
X122582400Y-65340620D02*
X122582400Y-65621780D01*
X121562400Y-65340620D02*
X121562400Y-65621780D01*
%TO.C,D3*%
X123623400Y-32119100D02*
X123623400Y-34404100D01*
X125093400Y-34404100D02*
X125093400Y-32119100D01*
X125093400Y-32119100D02*
X123623400Y-32119100D01*
%TO.C,C12*%
X117051148Y-70026200D02*
X117573652Y-70026200D01*
X117051148Y-68556200D02*
X117573652Y-68556200D01*
%TO.C,C2*%
X129842800Y-48360420D02*
X129842800Y-48641580D01*
X130862800Y-48360420D02*
X130862800Y-48641580D01*
%TO.C,D2*%
X124588000Y-66747600D02*
X124588000Y-61347600D01*
X124588000Y-66747600D02*
X127888000Y-66747600D01*
X127888000Y-66747600D02*
X127888000Y-61347600D01*
%TO.C,R11*%
X126912900Y-57369942D02*
X126912900Y-57844458D01*
X125867900Y-57369942D02*
X125867900Y-57844458D01*
%TO.C,R8*%
X127380000Y-43942759D02*
X127380000Y-44250041D01*
X126620000Y-43942759D02*
X126620000Y-44250041D01*
D15*
%TO.C,J1*%
X132684000Y-54957000D02*
X130684000Y-54957000D01*
X130739000Y-72496000D02*
X130739000Y-69457000D01*
D14*
X133284000Y-52957000D02*
X133284000Y-52957000D01*
X133284000Y-53156000D02*
X133284000Y-53156000D01*
D15*
X146629000Y-54957000D02*
X146629000Y-64457000D01*
X144684000Y-54957000D02*
X146629000Y-54957000D01*
X130684000Y-54957000D02*
X130739000Y-64457000D01*
X146629000Y-69457000D02*
X146629000Y-72496000D01*
X146629000Y-72496000D02*
X130739000Y-72496000D01*
D14*
X133284000Y-52957000D02*
G75*
G03*
X133284000Y-53156000I0J-99500D01*
G01*
X133284000Y-53156000D02*
G75*
G03*
X133284000Y-52957000I0J99500D01*
G01*
D13*
%TO.C,R4*%
X142899159Y-50470800D02*
X143206441Y-50470800D01*
X142899159Y-51230800D02*
X143206441Y-51230800D01*
%TO.C,R12*%
X124877500Y-41612258D02*
X124877500Y-41137742D01*
X125922500Y-41612258D02*
X125922500Y-41137742D01*
%TO.C,C20*%
X118634420Y-61262800D02*
X118915580Y-61262800D01*
X118634420Y-62282800D02*
X118915580Y-62282800D01*
%TO.C,R9*%
X120156500Y-37067258D02*
X120156500Y-36592742D01*
X119111500Y-37067258D02*
X119111500Y-36592742D01*
%TO.C,C1*%
X129288000Y-48360420D02*
X129288000Y-48641580D01*
X128268000Y-48360420D02*
X128268000Y-48641580D01*
%TO.C,L3*%
X121054800Y-54166300D02*
X120109800Y-54166300D01*
X115774800Y-54166300D02*
X116719800Y-54166300D01*
X121054800Y-59446300D02*
X121054800Y-54166300D01*
X120109800Y-59446300D02*
X121054800Y-59446300D01*
X116719800Y-59446300D02*
X115774800Y-59446300D01*
X115774800Y-59446300D02*
X115774800Y-54166300D01*
%TO.C,R3*%
X125705600Y-33986441D02*
X125705600Y-33679159D01*
X126465600Y-33986441D02*
X126465600Y-33679159D01*
%TO.C,C18*%
X120965580Y-69699600D02*
X120684420Y-69699600D01*
X120965580Y-68679600D02*
X120684420Y-68679600D01*
%TO.C,R1*%
X130936000Y-39622759D02*
X130936000Y-39930041D01*
X130176000Y-39622759D02*
X130176000Y-39930041D01*
%TO.C,R19*%
X123124700Y-65256142D02*
X123124700Y-65730658D01*
X124169700Y-65256142D02*
X124169700Y-65730658D01*
%TO.C,C11*%
X126335000Y-48988748D02*
X126335000Y-49511252D01*
X124865000Y-48988748D02*
X124865000Y-49511252D01*
%TO.C,J3*%
X128570000Y-25680000D02*
X128570000Y-25230000D01*
X128570000Y-29200000D02*
X128570000Y-29650000D01*
X128570000Y-25230000D02*
X120350000Y-25230000D01*
X120350000Y-29650000D02*
X121300000Y-29650000D01*
X128570000Y-29650000D02*
X127620000Y-29650000D01*
X120350000Y-29200000D02*
X120350000Y-29650000D01*
X120350000Y-25230000D02*
X120350000Y-25680000D01*
X127620000Y-29650000D02*
X127620000Y-31140000D01*
%TO.C,C6*%
X117600000Y-36957580D02*
X117600000Y-36676420D01*
X118620000Y-36957580D02*
X118620000Y-36676420D01*
%TO.C,R5*%
X123835900Y-36478942D02*
X123835900Y-36953458D01*
X124880900Y-36478942D02*
X124880900Y-36953458D01*
%TD*%
%LPC*%
D16*
%TO.C,C3*%
X121718400Y-71181600D03*
X121718400Y-36181600D03*
%TD*%
D17*
%TO.C,IC3*%
X118668800Y-65176400D03*
D18*
X117181300Y-65926400D03*
D19*
X117218800Y-65426400D03*
X117218800Y-64926400D03*
D18*
X117181300Y-64426400D03*
D20*
X117918800Y-63688900D03*
D21*
X118418800Y-63726400D03*
X118918800Y-63726400D03*
D20*
X119418800Y-63688900D03*
D18*
X120156300Y-64426400D03*
D19*
X120118800Y-64926400D03*
X120118800Y-65426400D03*
D18*
X120156300Y-65926400D03*
D20*
X119418800Y-66663900D03*
D21*
X118918800Y-66626400D03*
X118418800Y-66626400D03*
D20*
X117918800Y-66663900D03*
%TD*%
D22*
%TO.C,C7*%
X121666000Y-51816000D03*
X120116000Y-51816000D03*
%TD*%
D23*
%TO.C,U3*%
X117925000Y-41275000D03*
X117925000Y-42545000D03*
X117925000Y-43815000D03*
X117925000Y-45085000D03*
X117925000Y-46355000D03*
X117925000Y-47625000D03*
X117925000Y-48895000D03*
X117925000Y-50165000D03*
X123375000Y-50165000D03*
X123375000Y-48895000D03*
X123375000Y-47625000D03*
X123375000Y-46355000D03*
X123375000Y-45085000D03*
X123375000Y-43815000D03*
X123375000Y-42545000D03*
X123375000Y-41275000D03*
%TD*%
D24*
%TO.C,R7*%
X116840000Y-37846000D03*
X116840000Y-36826000D03*
%TD*%
D25*
%TO.C,R2*%
X146248000Y-50850800D03*
X145228000Y-50850800D03*
%TD*%
%TO.C,R10*%
X129540000Y-43637200D03*
X128520000Y-43637200D03*
%TD*%
D26*
%TO.C,C21*%
X122377200Y-56184800D03*
X122377200Y-54284800D03*
%TD*%
D27*
%TO.C,R13*%
X128580000Y-44856400D03*
X129600000Y-44856400D03*
%TD*%
D28*
%TO.C,D4*%
X126365000Y-71346000D03*
X126365000Y-67846000D03*
%TD*%
D29*
%TO.C,C19*%
X122072400Y-64706200D03*
X122072400Y-66256200D03*
%TD*%
D30*
%TO.C,D3*%
X124358400Y-32816600D03*
X124358400Y-34391600D03*
%TD*%
D31*
%TO.C,U1*%
X132608000Y-33584000D03*
X132608000Y-35584000D03*
X132608000Y-37584000D03*
X132608000Y-39584000D03*
X132608000Y-41584000D03*
X132608000Y-43584000D03*
X132608000Y-45584000D03*
X132608000Y-47584000D03*
D32*
X135208000Y-49084000D03*
X137208000Y-49084000D03*
X139208000Y-49084000D03*
X141208000Y-49084000D03*
X143208000Y-49084000D03*
X145208000Y-49084000D03*
D31*
X147808000Y-47584000D03*
X147808000Y-45584000D03*
X147808000Y-43584000D03*
X147808000Y-41584000D03*
X147808000Y-39584000D03*
X147808000Y-37584000D03*
X147808000Y-35584000D03*
X147808000Y-33584000D03*
%TD*%
D33*
%TO.C,SW1*%
X130032000Y-32624400D03*
X130032000Y-37784400D03*
X128032000Y-37784400D03*
X128032000Y-32624400D03*
%TD*%
D34*
%TO.C,C12*%
X116362400Y-69291200D03*
X118262400Y-69291200D03*
%TD*%
D29*
%TO.C,C2*%
X130352800Y-47726000D03*
X130352800Y-49276000D03*
%TD*%
D35*
%TO.C,D2*%
X126238000Y-65347600D03*
X126238000Y-61347600D03*
%TD*%
D36*
%TO.C,R11*%
X126390400Y-56782200D03*
X126390400Y-58432200D03*
%TD*%
D37*
%TO.C,R8*%
X127000000Y-43586400D03*
X127000000Y-44606400D03*
%TD*%
D38*
%TO.C,J1*%
X134239000Y-54847000D03*
X135509000Y-54847000D03*
X136779000Y-54847000D03*
X138049000Y-54847000D03*
X139319000Y-54847000D03*
X140589000Y-54847000D03*
X141859000Y-54847000D03*
X143129000Y-54847000D03*
D39*
X130224000Y-67027000D03*
X147144000Y-67027000D03*
%TD*%
D27*
%TO.C,R4*%
X142542800Y-50850800D03*
X143562800Y-50850800D03*
%TD*%
D40*
%TO.C,IC1*%
X127167600Y-42144000D03*
X128117600Y-42144000D03*
X129067600Y-42144000D03*
X129067600Y-39644000D03*
X127167600Y-39644000D03*
%TD*%
D41*
%TO.C,R12*%
X125400000Y-42200000D03*
X125400000Y-40550000D03*
%TD*%
D42*
%TO.C,C20*%
X118000000Y-61772800D03*
X119550000Y-61772800D03*
%TD*%
D41*
%TO.C,R9*%
X119634000Y-36005000D03*
X119634000Y-37655000D03*
%TD*%
D29*
%TO.C,C1*%
X128778000Y-47726000D03*
X128778000Y-49276000D03*
%TD*%
D43*
%TO.C,L3*%
X118414800Y-59232800D03*
X118414800Y-54379800D03*
%TD*%
D24*
%TO.C,R3*%
X126085600Y-34342800D03*
X126085600Y-33322800D03*
%TD*%
D22*
%TO.C,C18*%
X121600000Y-69189600D03*
X120050000Y-69189600D03*
%TD*%
D37*
%TO.C,R1*%
X130556000Y-39266400D03*
X130556000Y-40286400D03*
%TD*%
D36*
%TO.C,R19*%
X123647200Y-64668400D03*
X123647200Y-66318400D03*
%TD*%
D44*
%TO.C,C11*%
X125600000Y-48300000D03*
X125600000Y-50200000D03*
%TD*%
D45*
%TO.C,J3*%
X126960000Y-30340000D03*
X125710000Y-30340000D03*
X124460000Y-30340000D03*
X123210000Y-30340000D03*
X121960000Y-30340000D03*
D46*
X119410000Y-27440000D03*
X129510000Y-27440000D03*
%TD*%
D47*
%TO.C,C6*%
X118110000Y-37592000D03*
X118110000Y-36042000D03*
%TD*%
D36*
%TO.C,R5*%
X124358400Y-35891200D03*
X124358400Y-37541200D03*
%TD*%
M02*
