%TF.GenerationSoftware,KiCad,Pcbnew,6.0.0-d3dd2cf0fa~116~ubuntu20.04.1*%
%TF.CreationDate,2022-01-26T23:10:17+01:00*%
%TF.ProjectId,han_to_wifi_board,68616e5f-746f-45f7-9769-66695f626f61,rev?*%
%TF.SameCoordinates,Original*%
%TF.FileFunction,Legend,Bot*%
%TF.FilePolarity,Positive*%
%FSLAX46Y46*%
G04 Gerber Fmt 4.6, Leading zero omitted, Abs format (unit mm)*
G04 Created by KiCad (PCBNEW 6.0.0-d3dd2cf0fa~116~ubuntu20.04.1) date 2022-01-26 23:10:17*
%MOMM*%
%LPD*%
G01*
G04 APERTURE LIST*
%ADD10C,0.150000*%
%ADD11C,1.524000*%
G04 APERTURE END LIST*
D10*
X143936404Y-98918380D02*
X143936404Y-97918380D01*
X143936404Y-98394571D02*
X143364976Y-98394571D01*
X143364976Y-98918380D02*
X143364976Y-97918380D01*
X142936404Y-98632666D02*
X142460214Y-98632666D01*
X143031642Y-98918380D02*
X142698309Y-97918380D01*
X142364976Y-98918380D01*
X142031642Y-98918380D02*
X142031642Y-97918380D01*
X141460214Y-98918380D01*
X141460214Y-97918380D01*
X140222119Y-98918380D02*
X140222119Y-98251714D01*
X140222119Y-98346952D02*
X140174500Y-98299333D01*
X140079261Y-98251714D01*
X139936404Y-98251714D01*
X139841166Y-98299333D01*
X139793547Y-98394571D01*
X139793547Y-98918380D01*
X139793547Y-98394571D02*
X139745928Y-98299333D01*
X139650690Y-98251714D01*
X139507833Y-98251714D01*
X139412595Y-98299333D01*
X139364976Y-98394571D01*
X139364976Y-98918380D01*
X138745928Y-98918380D02*
X138841166Y-98870761D01*
X138888785Y-98823142D01*
X138936404Y-98727904D01*
X138936404Y-98442190D01*
X138888785Y-98346952D01*
X138841166Y-98299333D01*
X138745928Y-98251714D01*
X138603071Y-98251714D01*
X138507833Y-98299333D01*
X138460214Y-98346952D01*
X138412595Y-98442190D01*
X138412595Y-98727904D01*
X138460214Y-98823142D01*
X138507833Y-98870761D01*
X138603071Y-98918380D01*
X138745928Y-98918380D01*
X137555452Y-98918380D02*
X137555452Y-97918380D01*
X137555452Y-98870761D02*
X137650690Y-98918380D01*
X137841166Y-98918380D01*
X137936404Y-98870761D01*
X137984023Y-98823142D01*
X138031642Y-98727904D01*
X138031642Y-98442190D01*
X137984023Y-98346952D01*
X137936404Y-98299333D01*
X137841166Y-98251714D01*
X137650690Y-98251714D01*
X137555452Y-98299333D01*
X136650690Y-98251714D02*
X136650690Y-98918380D01*
X137079261Y-98251714D02*
X137079261Y-98775523D01*
X137031642Y-98870761D01*
X136936404Y-98918380D01*
X136793547Y-98918380D01*
X136698309Y-98870761D01*
X136650690Y-98823142D01*
X136031642Y-98918380D02*
X136126880Y-98870761D01*
X136174500Y-98775523D01*
X136174500Y-97918380D01*
X143936404Y-100528380D02*
X143936404Y-99528380D01*
X143364976Y-100528380D01*
X143364976Y-99528380D01*
X142888785Y-100528380D02*
X142888785Y-99861714D01*
X142888785Y-99528380D02*
X142936404Y-99576000D01*
X142888785Y-99623619D01*
X142841166Y-99576000D01*
X142888785Y-99528380D01*
X142888785Y-99623619D01*
X141984023Y-100480761D02*
X142079261Y-100528380D01*
X142269738Y-100528380D01*
X142364976Y-100480761D01*
X142412595Y-100433142D01*
X142460214Y-100337904D01*
X142460214Y-100052190D01*
X142412595Y-99956952D01*
X142364976Y-99909333D01*
X142269738Y-99861714D01*
X142079261Y-99861714D01*
X141984023Y-99909333D01*
X141555452Y-100528380D02*
X141555452Y-99528380D01*
X141126880Y-100528380D02*
X141126880Y-100004571D01*
X141174500Y-99909333D01*
X141269738Y-99861714D01*
X141412595Y-99861714D01*
X141507833Y-99909333D01*
X141555452Y-99956952D01*
X140507833Y-100528380D02*
X140603071Y-100480761D01*
X140650690Y-100433142D01*
X140698309Y-100337904D01*
X140698309Y-100052190D01*
X140650690Y-99956952D01*
X140603071Y-99909333D01*
X140507833Y-99861714D01*
X140364976Y-99861714D01*
X140269738Y-99909333D01*
X140222119Y-99956952D01*
X140174500Y-100052190D01*
X140174500Y-100337904D01*
X140222119Y-100433142D01*
X140269738Y-100480761D01*
X140364976Y-100528380D01*
X140507833Y-100528380D01*
X139603071Y-100528380D02*
X139698309Y-100480761D01*
X139745928Y-100385523D01*
X139745928Y-99528380D01*
X138793547Y-100528380D02*
X138793547Y-100004571D01*
X138841166Y-99909333D01*
X138936404Y-99861714D01*
X139126880Y-99861714D01*
X139222119Y-99909333D01*
X138793547Y-100480761D02*
X138888785Y-100528380D01*
X139126880Y-100528380D01*
X139222119Y-100480761D01*
X139269738Y-100385523D01*
X139269738Y-100290285D01*
X139222119Y-100195047D01*
X139126880Y-100147428D01*
X138888785Y-100147428D01*
X138793547Y-100099809D01*
X138364976Y-100480761D02*
X138269738Y-100528380D01*
X138079261Y-100528380D01*
X137984023Y-100480761D01*
X137936404Y-100385523D01*
X137936404Y-100337904D01*
X137984023Y-100242666D01*
X138079261Y-100195047D01*
X138222119Y-100195047D01*
X138317357Y-100147428D01*
X138364976Y-100052190D01*
X138364976Y-100004571D01*
X138317357Y-99909333D01*
X138222119Y-99861714D01*
X138079261Y-99861714D01*
X137984023Y-99909333D01*
X136412595Y-100004571D02*
X136269738Y-100052190D01*
X136222119Y-100099809D01*
X136174500Y-100195047D01*
X136174500Y-100337904D01*
X136222119Y-100433142D01*
X136269738Y-100480761D01*
X136364976Y-100528380D01*
X136745928Y-100528380D01*
X136745928Y-99528380D01*
X136412595Y-99528380D01*
X136317357Y-99576000D01*
X136269738Y-99623619D01*
X136222119Y-99718857D01*
X136222119Y-99814095D01*
X136269738Y-99909333D01*
X136317357Y-99956952D01*
X136412595Y-100004571D01*
X136745928Y-100004571D01*
X135745928Y-100528380D02*
X135745928Y-99861714D01*
X135745928Y-100052190D02*
X135698309Y-99956952D01*
X135650690Y-99909333D01*
X135555452Y-99861714D01*
X135460214Y-99861714D01*
X134698309Y-100528380D02*
X134698309Y-100004571D01*
X134745928Y-99909333D01*
X134841166Y-99861714D01*
X135031642Y-99861714D01*
X135126880Y-99909333D01*
X134698309Y-100480761D02*
X134793547Y-100528380D01*
X135031642Y-100528380D01*
X135126880Y-100480761D01*
X135174500Y-100385523D01*
X135174500Y-100290285D01*
X135126880Y-100195047D01*
X135031642Y-100147428D01*
X134793547Y-100147428D01*
X134698309Y-100099809D01*
X133793547Y-100528380D02*
X133793547Y-100004571D01*
X133841166Y-99909333D01*
X133936404Y-99861714D01*
X134126880Y-99861714D01*
X134222119Y-99909333D01*
X133793547Y-100480761D02*
X133888785Y-100528380D01*
X134126880Y-100528380D01*
X134222119Y-100480761D01*
X134269738Y-100385523D01*
X134269738Y-100290285D01*
X134222119Y-100195047D01*
X134126880Y-100147428D01*
X133888785Y-100147428D01*
X133793547Y-100099809D01*
X133460214Y-99861714D02*
X133079261Y-99861714D01*
X133317357Y-99528380D02*
X133317357Y-100385523D01*
X133269738Y-100480761D01*
X133174500Y-100528380D01*
X133079261Y-100528380D01*
X132364976Y-100480761D02*
X132460214Y-100528380D01*
X132650690Y-100528380D01*
X132745928Y-100480761D01*
X132793547Y-100385523D01*
X132793547Y-100004571D01*
X132745928Y-99909333D01*
X132650690Y-99861714D01*
X132460214Y-99861714D01*
X132364976Y-99909333D01*
X132317357Y-100004571D01*
X132317357Y-100099809D01*
X132793547Y-100195047D01*
X131888785Y-99861714D02*
X131888785Y-100528380D01*
X131888785Y-99956952D02*
X131841166Y-99909333D01*
X131745928Y-99861714D01*
X131603071Y-99861714D01*
X131507833Y-99909333D01*
X131460214Y-100004571D01*
X131460214Y-100528380D01*
X143650690Y-101138380D02*
X143650690Y-101852666D01*
X143698309Y-101995523D01*
X143793547Y-102090761D01*
X143936404Y-102138380D01*
X144031642Y-102138380D01*
X142745928Y-102138380D02*
X142745928Y-101614571D01*
X142793547Y-101519333D01*
X142888785Y-101471714D01*
X143079261Y-101471714D01*
X143174500Y-101519333D01*
X142745928Y-102090761D02*
X142841166Y-102138380D01*
X143079261Y-102138380D01*
X143174500Y-102090761D01*
X143222119Y-101995523D01*
X143222119Y-101900285D01*
X143174500Y-101805047D01*
X143079261Y-101757428D01*
X142841166Y-101757428D01*
X142745928Y-101709809D01*
X142269738Y-101471714D02*
X142269738Y-102138380D01*
X142269738Y-101566952D02*
X142222119Y-101519333D01*
X142126880Y-101471714D01*
X141984023Y-101471714D01*
X141888785Y-101519333D01*
X141841166Y-101614571D01*
X141841166Y-102138380D01*
X140936404Y-101471714D02*
X140936404Y-102138380D01*
X141364976Y-101471714D02*
X141364976Y-101995523D01*
X141317357Y-102090761D01*
X141222119Y-102138380D01*
X141079261Y-102138380D01*
X140984023Y-102090761D01*
X140936404Y-102043142D01*
X140031642Y-102138380D02*
X140031642Y-101614571D01*
X140079261Y-101519333D01*
X140174500Y-101471714D01*
X140364976Y-101471714D01*
X140460214Y-101519333D01*
X140031642Y-102090761D02*
X140126880Y-102138380D01*
X140364976Y-102138380D01*
X140460214Y-102090761D01*
X140507833Y-101995523D01*
X140507833Y-101900285D01*
X140460214Y-101805047D01*
X140364976Y-101757428D01*
X140126880Y-101757428D01*
X140031642Y-101709809D01*
X139555452Y-102138380D02*
X139555452Y-101471714D01*
X139555452Y-101662190D02*
X139507833Y-101566952D01*
X139460214Y-101519333D01*
X139364976Y-101471714D01*
X139269738Y-101471714D01*
X138222119Y-101233619D02*
X138174500Y-101186000D01*
X138079261Y-101138380D01*
X137841166Y-101138380D01*
X137745928Y-101186000D01*
X137698309Y-101233619D01*
X137650690Y-101328857D01*
X137650690Y-101424095D01*
X137698309Y-101566952D01*
X138269738Y-102138380D01*
X137650690Y-102138380D01*
X137031642Y-101138380D02*
X136936404Y-101138380D01*
X136841166Y-101186000D01*
X136793547Y-101233619D01*
X136745928Y-101328857D01*
X136698309Y-101519333D01*
X136698309Y-101757428D01*
X136745928Y-101947904D01*
X136793547Y-102043142D01*
X136841166Y-102090761D01*
X136936404Y-102138380D01*
X137031642Y-102138380D01*
X137126880Y-102090761D01*
X137174500Y-102043142D01*
X137222119Y-101947904D01*
X137269738Y-101757428D01*
X137269738Y-101519333D01*
X137222119Y-101328857D01*
X137174500Y-101233619D01*
X137126880Y-101186000D01*
X137031642Y-101138380D01*
X136317357Y-101233619D02*
X136269738Y-101186000D01*
X136174500Y-101138380D01*
X135936404Y-101138380D01*
X135841166Y-101186000D01*
X135793547Y-101233619D01*
X135745928Y-101328857D01*
X135745928Y-101424095D01*
X135793547Y-101566952D01*
X136364976Y-102138380D01*
X135745928Y-102138380D01*
X135364976Y-101233619D02*
X135317357Y-101186000D01*
X135222119Y-101138380D01*
X134984023Y-101138380D01*
X134888785Y-101186000D01*
X134841166Y-101233619D01*
X134793547Y-101328857D01*
X134793547Y-101424095D01*
X134841166Y-101566952D01*
X135412595Y-102138380D01*
X134793547Y-102138380D01*
%LPC*%
D11*
%TO.C,C3*%
X119280000Y-148550000D03*
X119280000Y-113550000D03*
%TD*%
M02*
