M48
; DRILL file {KiCad 6.0.0-d3dd2cf0fa~116~ubuntu20.04.1} date on. 26. jan. 2022 kl. 23.10 +0100
; FORMAT={-:-/ absolute / metric / decimal}
; #@! TF.CreationDate,2022-01-26T23:10:35+01:00
; #@! TF.GenerationSoftware,Kicad,Pcbnew,6.0.0-d3dd2cf0fa~116~ubuntu20.04.1
; #@! TF.FileFunction,Plated,1,2,PTH
FMAT,2
METRIC
; #@! TA.AperFunction,Plated,PTH,ViaDrill
T1C0.300
; #@! TA.AperFunction,Plated,PTH,ViaDrill
T2C0.400
; #@! TA.AperFunction,Plated,PTH,ComponentDrill
T3C0.900
%
G90
G05
T1
X113.284Y-141.732
X113.284Y-142.748
X114.3Y-141.732
X114.3Y-142.748
X115.189Y-145.593
X115.316Y-141.732
X115.316Y-142.748
X121.412Y-141.986
T2
X113.538Y-149.86
X116.332Y-143.256
X116.84Y-117.856
X116.84Y-135.636
X117.856Y-143.256
X118.872Y-118.364
X118.872Y-135.636
X119.888Y-136.144
X119.888Y-146.304
X120.904Y-117.856
X121.92Y-130.556
X123.444Y-111.76
X123.444Y-117.856
X123.444Y-138.176
X125.476Y-122.428
X125.984Y-126.492
X128.27Y-143.51
X131.572Y-103.632
X131.572Y-110.236
X131.572Y-121.412
X132.588Y-125.984
X133.35Y-137.16
X138.176Y-124.46
X140.97Y-137.16
X142.24Y-124.968
X144.78Y-124.968
X145.034Y-143.51
X146.304Y-117.856
X146.812Y-121.412
T3
X119.28Y-113.55
X119.28Y-148.55
T0
M30
