%FSLAX45Y45*%
G04 Gerber Fmt 4.5, Leading zero omitted, Abs format (unit mm)*
G04 Created by KiCad (PCBNEW 6.0.4-6f826c9f35~116~ubuntu20.04.1) date 2022-05-04 20:12:23*
%MOMM*%
%LPD*%
G01*
G04 APERTURE LIST*
%TA.AperFunction,Profile*%
%ADD10C,0.050000*%
%TD*%
%ADD11C,0.200000*%
%ADD12C,0.030000*%
%ADD13C,0.040000*%
%ADD14C,0.090000*%
G04 APERTURE END LIST*
D10*
X14940280Y-7264400D02*
X11531600Y-7264400D01*
X11531600Y-7264400D02*
X11531600Y-2489200D01*
X11531600Y-2489200D02*
X14940280Y-2489200D01*
X14940280Y-2489200D02*
X14940280Y-7264400D01*
D11*
D12*
X11610000Y-6487500D02*
X11640000Y-6517500D01*
X11640000Y-6487500D02*
X11610000Y-6517500D01*
X11612500Y-6397500D02*
X11642500Y-6427500D01*
X11642500Y-6397500D02*
X11612500Y-6427500D01*
X11669000Y-3591800D02*
X11699000Y-3621800D01*
X11699000Y-3591800D02*
X11669000Y-3621800D01*
X11851880Y-6502640D02*
X11881880Y-6532640D01*
X11881880Y-6502640D02*
X11851880Y-6532640D01*
X11999200Y-6335000D02*
X12029200Y-6365000D01*
X12029200Y-6335000D02*
X11999200Y-6365000D01*
X12090000Y-6277500D02*
X12120000Y-6307500D01*
X12120000Y-6277500D02*
X12090000Y-6307500D01*
X12090000Y-6527500D02*
X12120000Y-6557500D01*
X12120000Y-6527500D02*
X12090000Y-6557500D01*
X12425000Y-4252200D02*
X12455000Y-4282200D01*
X12455000Y-4252200D02*
X12425000Y-4282200D01*
X12466560Y-2865360D02*
X12496560Y-2895360D01*
X12496560Y-2865360D02*
X12466560Y-2895360D01*
X12685000Y-2945000D02*
X12715000Y-2975000D01*
X12715000Y-2945000D02*
X12685000Y-2975000D01*
X12725640Y-3444480D02*
X12755640Y-3474480D01*
X12755640Y-3444480D02*
X12725640Y-3474480D01*
X12805000Y-4125000D02*
X12835000Y-4155000D01*
X12835000Y-4125000D02*
X12805000Y-4155000D01*
X13248360Y-3445000D02*
X13278360Y-3475000D01*
X13278360Y-3445000D02*
X13248360Y-3475000D01*
X14640800Y-5065000D02*
X14670800Y-5095000D01*
X14670800Y-5065000D02*
X14640800Y-5095000D01*
D13*
X11660000Y-7020000D02*
G75*
G03*
X11660000Y-7020000I-20000J0D01*
G01*
X11831000Y-3505200D02*
G75*
G03*
X11831000Y-3505200I-20000J0D01*
G01*
X11983400Y-3510280D02*
G75*
G03*
X11983400Y-3510280I-20000J0D01*
G01*
X12125640Y-3911600D02*
G75*
G03*
X12125640Y-3911600I-20000J0D01*
G01*
X12200000Y-6400000D02*
G75*
G03*
X12200000Y-6400000I-20000J0D01*
G01*
X12220000Y-3140000D02*
G75*
G03*
X12220000Y-3140000I-20000J0D01*
G01*
X12251200Y-5183200D02*
G75*
G03*
X12251200Y-5183200I-20000J0D01*
G01*
X12260000Y-5680000D02*
G75*
G03*
X12260000Y-5680000I-20000J0D01*
G01*
X12278040Y-3911600D02*
G75*
G03*
X12278040Y-3911600I-20000J0D01*
G01*
X12455840Y-3215640D02*
G75*
G03*
X12455840Y-3215640I-20000J0D01*
G01*
X12540000Y-5200000D02*
G75*
G03*
X12540000Y-5200000I-20000J0D01*
G01*
X12540000Y-5300000D02*
G75*
G03*
X12540000Y-5300000I-20000J0D01*
G01*
X12600000Y-4020000D02*
G75*
G03*
X12600000Y-4020000I-20000J0D01*
G01*
X12618400Y-5065200D02*
G75*
G03*
X12618400Y-5065200I-20000J0D01*
G01*
X12640000Y-5200000D02*
G75*
G03*
X12640000Y-5200000I-20000J0D01*
G01*
X12640000Y-5300000D02*
G75*
G03*
X12640000Y-5300000I-20000J0D01*
G01*
X12840000Y-4540000D02*
G75*
G03*
X12840000Y-4540000I-20000J0D01*
G01*
X12840000Y-5200000D02*
G75*
G03*
X12840000Y-5200000I-20000J0D01*
G01*
X12840000Y-5300000D02*
G75*
G03*
X12840000Y-5300000I-20000J0D01*
G01*
X12900000Y-5000000D02*
G75*
G03*
X12900000Y-5000000I-20000J0D01*
G01*
X12940000Y-5200000D02*
G75*
G03*
X12940000Y-5200000I-20000J0D01*
G01*
X12940000Y-5300000D02*
G75*
G03*
X12940000Y-5300000I-20000J0D01*
G01*
X13019720Y-3337560D02*
G75*
G03*
X13019720Y-3337560I-20000J0D01*
G01*
X13024800Y-3677920D02*
G75*
G03*
X13024800Y-3677920I-20000J0D01*
G01*
X13059161Y-4997916D02*
G75*
G03*
X13059161Y-4997916I-20000J0D01*
G01*
X13207680Y-6700000D02*
G75*
G03*
X13207680Y-6700000I-20000J0D01*
G01*
X13568360Y-5775960D02*
G75*
G03*
X13568360Y-5775960I-20000J0D01*
G01*
X14340000Y-5770880D02*
G75*
G03*
X14340000Y-5770880I-20000J0D01*
G01*
X14553880Y-6700000D02*
G75*
G03*
X14553880Y-6700000I-20000J0D01*
G01*
X14900000Y-4760000D02*
G75*
G03*
X14900000Y-4760000I-20000J0D01*
G01*
D14*
X12171840Y-3573160D02*
X12171840Y-3663160D01*
X12126840Y-3618160D02*
X12216840Y-3618160D01*
X12171840Y-7073160D02*
X12171840Y-7163160D01*
X12126840Y-7118160D02*
X12216840Y-7118160D01*
D11*
X11786719Y-7577376D02*
X11786719Y-7377376D01*
X11834338Y-7377376D01*
X11862909Y-7386900D01*
X11881957Y-7405948D01*
X11891481Y-7424995D01*
X11901005Y-7463090D01*
X11901005Y-7491662D01*
X11891481Y-7529757D01*
X11881957Y-7548805D01*
X11862909Y-7567852D01*
X11834338Y-7577376D01*
X11786719Y-7577376D01*
X11986719Y-7577376D02*
X11986719Y-7444043D01*
X11986719Y-7482138D02*
X11996243Y-7463090D01*
X12005767Y-7453567D01*
X12024814Y-7444043D01*
X12043862Y-7444043D01*
X12110528Y-7577376D02*
X12110528Y-7444043D01*
X12110528Y-7377376D02*
X12101005Y-7386900D01*
X12110528Y-7396424D01*
X12120052Y-7386900D01*
X12110528Y-7377376D01*
X12110528Y-7396424D01*
X12234338Y-7577376D02*
X12215290Y-7567852D01*
X12205767Y-7548805D01*
X12205767Y-7377376D01*
X12339100Y-7577376D02*
X12320052Y-7567852D01*
X12310528Y-7548805D01*
X12310528Y-7377376D01*
X12567671Y-7577376D02*
X12567671Y-7377376D01*
X12634338Y-7520233D01*
X12701005Y-7377376D01*
X12701005Y-7577376D01*
X12881957Y-7577376D02*
X12881957Y-7472614D01*
X12872433Y-7453567D01*
X12853386Y-7444043D01*
X12815290Y-7444043D01*
X12796243Y-7453567D01*
X12881957Y-7567852D02*
X12862909Y-7577376D01*
X12815290Y-7577376D01*
X12796243Y-7567852D01*
X12786719Y-7548805D01*
X12786719Y-7529757D01*
X12796243Y-7510709D01*
X12815290Y-7501186D01*
X12862909Y-7501186D01*
X12881957Y-7491662D01*
X12977195Y-7444043D02*
X12977195Y-7644043D01*
X12977195Y-7453567D02*
X12996243Y-7444043D01*
X13034338Y-7444043D01*
X13053386Y-7453567D01*
X13062909Y-7463090D01*
X13072433Y-7482138D01*
X13072433Y-7539281D01*
X13062909Y-7558328D01*
X13053386Y-7567852D01*
X13034338Y-7577376D01*
X12996243Y-7577376D01*
X12977195Y-7567852D01*
X13158148Y-7558328D02*
X13167671Y-7567852D01*
X13158148Y-7577376D01*
X13148624Y-7567852D01*
X13158148Y-7558328D01*
X13158148Y-7577376D01*
X13158148Y-7453567D02*
X13167671Y-7463090D01*
X13158148Y-7472614D01*
X13148624Y-7463090D01*
X13158148Y-7453567D01*
X13158148Y-7472614D01*
D12*
X11499100Y-7891900D02*
X11529100Y-7921900D01*
X11529100Y-7891900D02*
X11499100Y-7921900D01*
D11*
X11824814Y-7797376D02*
X11843862Y-7797376D01*
X11862909Y-7806900D01*
X11872433Y-7816424D01*
X11881957Y-7835471D01*
X11891481Y-7873567D01*
X11891481Y-7921186D01*
X11881957Y-7959281D01*
X11872433Y-7978328D01*
X11862909Y-7987852D01*
X11843862Y-7997376D01*
X11824814Y-7997376D01*
X11805767Y-7987852D01*
X11796243Y-7978328D01*
X11786719Y-7959281D01*
X11777195Y-7921186D01*
X11777195Y-7873567D01*
X11786719Y-7835471D01*
X11796243Y-7816424D01*
X11805767Y-7806900D01*
X11824814Y-7797376D01*
X11977195Y-7978328D02*
X11986719Y-7987852D01*
X11977195Y-7997376D01*
X11967671Y-7987852D01*
X11977195Y-7978328D01*
X11977195Y-7997376D01*
X12053386Y-7797376D02*
X12177195Y-7797376D01*
X12110528Y-7873567D01*
X12139100Y-7873567D01*
X12158148Y-7883090D01*
X12167671Y-7892614D01*
X12177195Y-7911662D01*
X12177195Y-7959281D01*
X12167671Y-7978328D01*
X12158148Y-7987852D01*
X12139100Y-7997376D01*
X12081957Y-7997376D01*
X12062909Y-7987852D01*
X12053386Y-7978328D01*
X12301005Y-7797376D02*
X12320052Y-7797376D01*
X12339100Y-7806900D01*
X12348624Y-7816424D01*
X12358148Y-7835471D01*
X12367671Y-7873567D01*
X12367671Y-7921186D01*
X12358148Y-7959281D01*
X12348624Y-7978328D01*
X12339100Y-7987852D01*
X12320052Y-7997376D01*
X12301005Y-7997376D01*
X12281957Y-7987852D01*
X12272433Y-7978328D01*
X12262909Y-7959281D01*
X12253386Y-7921186D01*
X12253386Y-7873567D01*
X12262909Y-7835471D01*
X12272433Y-7816424D01*
X12281957Y-7806900D01*
X12301005Y-7797376D01*
X12491481Y-7797376D02*
X12510528Y-7797376D01*
X12529576Y-7806900D01*
X12539100Y-7816424D01*
X12548624Y-7835471D01*
X12558148Y-7873567D01*
X12558148Y-7921186D01*
X12548624Y-7959281D01*
X12539100Y-7978328D01*
X12529576Y-7987852D01*
X12510528Y-7997376D01*
X12491481Y-7997376D01*
X12472433Y-7987852D01*
X12462909Y-7978328D01*
X12453386Y-7959281D01*
X12443862Y-7921186D01*
X12443862Y-7873567D01*
X12453386Y-7835471D01*
X12462909Y-7816424D01*
X12472433Y-7806900D01*
X12491481Y-7797376D01*
X12643862Y-7997376D02*
X12643862Y-7864043D01*
X12643862Y-7883090D02*
X12653386Y-7873567D01*
X12672433Y-7864043D01*
X12701005Y-7864043D01*
X12720052Y-7873567D01*
X12729576Y-7892614D01*
X12729576Y-7997376D01*
X12729576Y-7892614D02*
X12739100Y-7873567D01*
X12758148Y-7864043D01*
X12786719Y-7864043D01*
X12805767Y-7873567D01*
X12815290Y-7892614D01*
X12815290Y-7997376D01*
X12910528Y-7997376D02*
X12910528Y-7864043D01*
X12910528Y-7883090D02*
X12920052Y-7873567D01*
X12939100Y-7864043D01*
X12967671Y-7864043D01*
X12986719Y-7873567D01*
X12996243Y-7892614D01*
X12996243Y-7997376D01*
X12996243Y-7892614D02*
X13005767Y-7873567D01*
X13024814Y-7864043D01*
X13053386Y-7864043D01*
X13072433Y-7873567D01*
X13081957Y-7892614D01*
X13081957Y-7997376D01*
X13472433Y-7787852D02*
X13301005Y-8044995D01*
X13729576Y-7797376D02*
X13748624Y-7797376D01*
X13767671Y-7806900D01*
X13777195Y-7816424D01*
X13786719Y-7835471D01*
X13796243Y-7873567D01*
X13796243Y-7921186D01*
X13786719Y-7959281D01*
X13777195Y-7978328D01*
X13767671Y-7987852D01*
X13748624Y-7997376D01*
X13729576Y-7997376D01*
X13710528Y-7987852D01*
X13701005Y-7978328D01*
X13691481Y-7959281D01*
X13681957Y-7921186D01*
X13681957Y-7873567D01*
X13691481Y-7835471D01*
X13701005Y-7816424D01*
X13710528Y-7806900D01*
X13729576Y-7797376D01*
X13881957Y-7978328D02*
X13891481Y-7987852D01*
X13881957Y-7997376D01*
X13872433Y-7987852D01*
X13881957Y-7978328D01*
X13881957Y-7997376D01*
X14015290Y-7797376D02*
X14034338Y-7797376D01*
X14053386Y-7806900D01*
X14062909Y-7816424D01*
X14072433Y-7835471D01*
X14081957Y-7873567D01*
X14081957Y-7921186D01*
X14072433Y-7959281D01*
X14062909Y-7978328D01*
X14053386Y-7987852D01*
X14034338Y-7997376D01*
X14015290Y-7997376D01*
X13996243Y-7987852D01*
X13986719Y-7978328D01*
X13977195Y-7959281D01*
X13967671Y-7921186D01*
X13967671Y-7873567D01*
X13977195Y-7835471D01*
X13986719Y-7816424D01*
X13996243Y-7806900D01*
X14015290Y-7797376D01*
X14272433Y-7997376D02*
X14158148Y-7997376D01*
X14215290Y-7997376D02*
X14215290Y-7797376D01*
X14196243Y-7825948D01*
X14177195Y-7844995D01*
X14158148Y-7854519D01*
X14462909Y-7997376D02*
X14348624Y-7997376D01*
X14405767Y-7997376D02*
X14405767Y-7797376D01*
X14386719Y-7825948D01*
X14367671Y-7844995D01*
X14348624Y-7854519D01*
X14577195Y-7883090D02*
X14558148Y-7873567D01*
X14548624Y-7864043D01*
X14539100Y-7844995D01*
X14539100Y-7835471D01*
X14548624Y-7816424D01*
X14558148Y-7806900D01*
X14577195Y-7797376D01*
X14615290Y-7797376D01*
X14634338Y-7806900D01*
X14643862Y-7816424D01*
X14653386Y-7835471D01*
X14653386Y-7844995D01*
X14643862Y-7864043D01*
X14634338Y-7873567D01*
X14615290Y-7883090D01*
X14577195Y-7883090D01*
X14558148Y-7892614D01*
X14548624Y-7902138D01*
X14539100Y-7921186D01*
X14539100Y-7959281D01*
X14548624Y-7978328D01*
X14558148Y-7987852D01*
X14577195Y-7997376D01*
X14615290Y-7997376D01*
X14634338Y-7987852D01*
X14643862Y-7978328D01*
X14653386Y-7959281D01*
X14653386Y-7921186D01*
X14643862Y-7902138D01*
X14634338Y-7892614D01*
X14615290Y-7883090D01*
X14729576Y-7797376D02*
X14729576Y-7835471D01*
X14805767Y-7797376D02*
X14805767Y-7835471D01*
X15101005Y-8073567D02*
X15091481Y-8064043D01*
X15072433Y-8035471D01*
X15062909Y-8016424D01*
X15053386Y-7987852D01*
X15043862Y-7940233D01*
X15043862Y-7902138D01*
X15053386Y-7854519D01*
X15062909Y-7825948D01*
X15072433Y-7806900D01*
X15091481Y-7778328D01*
X15101005Y-7768805D01*
X15281957Y-7997376D02*
X15167671Y-7997376D01*
X15224814Y-7997376D02*
X15224814Y-7797376D01*
X15205767Y-7825948D01*
X15186719Y-7844995D01*
X15167671Y-7854519D01*
X15453386Y-7864043D02*
X15453386Y-7997376D01*
X15405767Y-7787852D02*
X15358148Y-7930709D01*
X15481957Y-7930709D01*
X15710528Y-7997376D02*
X15710528Y-7797376D01*
X15796243Y-7997376D02*
X15796243Y-7892614D01*
X15786719Y-7873567D01*
X15767671Y-7864043D01*
X15739100Y-7864043D01*
X15720052Y-7873567D01*
X15710528Y-7883090D01*
X15920052Y-7997376D02*
X15901005Y-7987852D01*
X15891481Y-7978328D01*
X15881957Y-7959281D01*
X15881957Y-7902138D01*
X15891481Y-7883090D01*
X15901005Y-7873567D01*
X15920052Y-7864043D01*
X15948624Y-7864043D01*
X15967671Y-7873567D01*
X15977195Y-7883090D01*
X15986719Y-7902138D01*
X15986719Y-7959281D01*
X15977195Y-7978328D01*
X15967671Y-7987852D01*
X15948624Y-7997376D01*
X15920052Y-7997376D01*
X16101005Y-7997376D02*
X16081957Y-7987852D01*
X16072433Y-7968805D01*
X16072433Y-7797376D01*
X16253386Y-7987852D02*
X16234338Y-7997376D01*
X16196243Y-7997376D01*
X16177195Y-7987852D01*
X16167671Y-7968805D01*
X16167671Y-7892614D01*
X16177195Y-7873567D01*
X16196243Y-7864043D01*
X16234338Y-7864043D01*
X16253386Y-7873567D01*
X16262909Y-7892614D01*
X16262909Y-7911662D01*
X16167671Y-7930709D01*
X16339100Y-7987852D02*
X16358148Y-7997376D01*
X16396243Y-7997376D01*
X16415290Y-7987852D01*
X16424814Y-7968805D01*
X16424814Y-7959281D01*
X16415290Y-7940233D01*
X16396243Y-7930709D01*
X16367671Y-7930709D01*
X16348624Y-7921186D01*
X16339100Y-7902138D01*
X16339100Y-7892614D01*
X16348624Y-7873567D01*
X16367671Y-7864043D01*
X16396243Y-7864043D01*
X16415290Y-7873567D01*
X16491481Y-8073567D02*
X16501005Y-8064043D01*
X16520052Y-8035471D01*
X16529576Y-8016424D01*
X16539100Y-7987852D01*
X16548624Y-7940233D01*
X16548624Y-7902138D01*
X16539100Y-7854519D01*
X16529576Y-7825948D01*
X16520052Y-7806900D01*
X16501005Y-7778328D01*
X16491481Y-7768805D01*
D13*
X11529100Y-8170900D02*
G75*
G03*
X11529100Y-8170900I-20000J0D01*
G01*
D11*
X11824814Y-8061376D02*
X11843862Y-8061376D01*
X11862909Y-8070900D01*
X11872433Y-8080424D01*
X11881957Y-8099471D01*
X11891481Y-8137567D01*
X11891481Y-8185186D01*
X11881957Y-8223281D01*
X11872433Y-8242328D01*
X11862909Y-8251852D01*
X11843862Y-8261376D01*
X11824814Y-8261376D01*
X11805767Y-8251852D01*
X11796243Y-8242328D01*
X11786719Y-8223281D01*
X11777195Y-8185186D01*
X11777195Y-8137567D01*
X11786719Y-8099471D01*
X11796243Y-8080424D01*
X11805767Y-8070900D01*
X11824814Y-8061376D01*
X11977195Y-8242328D02*
X11986719Y-8251852D01*
X11977195Y-8261376D01*
X11967671Y-8251852D01*
X11977195Y-8242328D01*
X11977195Y-8261376D01*
X12158148Y-8128043D02*
X12158148Y-8261376D01*
X12110528Y-8051852D02*
X12062909Y-8194709D01*
X12186719Y-8194709D01*
X12301005Y-8061376D02*
X12320052Y-8061376D01*
X12339100Y-8070900D01*
X12348624Y-8080424D01*
X12358148Y-8099471D01*
X12367671Y-8137567D01*
X12367671Y-8185186D01*
X12358148Y-8223281D01*
X12348624Y-8242328D01*
X12339100Y-8251852D01*
X12320052Y-8261376D01*
X12301005Y-8261376D01*
X12281957Y-8251852D01*
X12272433Y-8242328D01*
X12262909Y-8223281D01*
X12253386Y-8185186D01*
X12253386Y-8137567D01*
X12262909Y-8099471D01*
X12272433Y-8080424D01*
X12281957Y-8070900D01*
X12301005Y-8061376D01*
X12491481Y-8061376D02*
X12510528Y-8061376D01*
X12529576Y-8070900D01*
X12539100Y-8080424D01*
X12548624Y-8099471D01*
X12558148Y-8137567D01*
X12558148Y-8185186D01*
X12548624Y-8223281D01*
X12539100Y-8242328D01*
X12529576Y-8251852D01*
X12510528Y-8261376D01*
X12491481Y-8261376D01*
X12472433Y-8251852D01*
X12462909Y-8242328D01*
X12453386Y-8223281D01*
X12443862Y-8185186D01*
X12443862Y-8137567D01*
X12453386Y-8099471D01*
X12462909Y-8080424D01*
X12472433Y-8070900D01*
X12491481Y-8061376D01*
X12643862Y-8261376D02*
X12643862Y-8128043D01*
X12643862Y-8147090D02*
X12653386Y-8137567D01*
X12672433Y-8128043D01*
X12701005Y-8128043D01*
X12720052Y-8137567D01*
X12729576Y-8156614D01*
X12729576Y-8261376D01*
X12729576Y-8156614D02*
X12739100Y-8137567D01*
X12758148Y-8128043D01*
X12786719Y-8128043D01*
X12805767Y-8137567D01*
X12815290Y-8156614D01*
X12815290Y-8261376D01*
X12910528Y-8261376D02*
X12910528Y-8128043D01*
X12910528Y-8147090D02*
X12920052Y-8137567D01*
X12939100Y-8128043D01*
X12967671Y-8128043D01*
X12986719Y-8137567D01*
X12996243Y-8156614D01*
X12996243Y-8261376D01*
X12996243Y-8156614D02*
X13005767Y-8137567D01*
X13024814Y-8128043D01*
X13053386Y-8128043D01*
X13072433Y-8137567D01*
X13081957Y-8156614D01*
X13081957Y-8261376D01*
X13472433Y-8051852D02*
X13301005Y-8308995D01*
X13729576Y-8061376D02*
X13748624Y-8061376D01*
X13767671Y-8070900D01*
X13777195Y-8080424D01*
X13786719Y-8099471D01*
X13796243Y-8137567D01*
X13796243Y-8185186D01*
X13786719Y-8223281D01*
X13777195Y-8242328D01*
X13767671Y-8251852D01*
X13748624Y-8261376D01*
X13729576Y-8261376D01*
X13710528Y-8251852D01*
X13701005Y-8242328D01*
X13691481Y-8223281D01*
X13681957Y-8185186D01*
X13681957Y-8137567D01*
X13691481Y-8099471D01*
X13701005Y-8080424D01*
X13710528Y-8070900D01*
X13729576Y-8061376D01*
X13881957Y-8242328D02*
X13891481Y-8251852D01*
X13881957Y-8261376D01*
X13872433Y-8251852D01*
X13881957Y-8242328D01*
X13881957Y-8261376D01*
X14015290Y-8061376D02*
X14034338Y-8061376D01*
X14053386Y-8070900D01*
X14062909Y-8080424D01*
X14072433Y-8099471D01*
X14081957Y-8137567D01*
X14081957Y-8185186D01*
X14072433Y-8223281D01*
X14062909Y-8242328D01*
X14053386Y-8251852D01*
X14034338Y-8261376D01*
X14015290Y-8261376D01*
X13996243Y-8251852D01*
X13986719Y-8242328D01*
X13977195Y-8223281D01*
X13967671Y-8185186D01*
X13967671Y-8137567D01*
X13977195Y-8099471D01*
X13986719Y-8080424D01*
X13996243Y-8070900D01*
X14015290Y-8061376D01*
X14272433Y-8261376D02*
X14158148Y-8261376D01*
X14215290Y-8261376D02*
X14215290Y-8061376D01*
X14196243Y-8089948D01*
X14177195Y-8108995D01*
X14158148Y-8118519D01*
X14453386Y-8061376D02*
X14358148Y-8061376D01*
X14348624Y-8156614D01*
X14358148Y-8147090D01*
X14377195Y-8137567D01*
X14424814Y-8137567D01*
X14443862Y-8147090D01*
X14453386Y-8156614D01*
X14462909Y-8175662D01*
X14462909Y-8223281D01*
X14453386Y-8242328D01*
X14443862Y-8251852D01*
X14424814Y-8261376D01*
X14377195Y-8261376D01*
X14358148Y-8251852D01*
X14348624Y-8242328D01*
X14529576Y-8061376D02*
X14662909Y-8061376D01*
X14577195Y-8261376D01*
X14729576Y-8061376D02*
X14729576Y-8099471D01*
X14805767Y-8061376D02*
X14805767Y-8099471D01*
X15101005Y-8337567D02*
X15091481Y-8328043D01*
X15072433Y-8299471D01*
X15062909Y-8280424D01*
X15053386Y-8251852D01*
X15043862Y-8204233D01*
X15043862Y-8166138D01*
X15053386Y-8118519D01*
X15062909Y-8089948D01*
X15072433Y-8070900D01*
X15091481Y-8042328D01*
X15101005Y-8032805D01*
X15158148Y-8061376D02*
X15281957Y-8061376D01*
X15215290Y-8137567D01*
X15243862Y-8137567D01*
X15262909Y-8147090D01*
X15272433Y-8156614D01*
X15281957Y-8175662D01*
X15281957Y-8223281D01*
X15272433Y-8242328D01*
X15262909Y-8251852D01*
X15243862Y-8261376D01*
X15186719Y-8261376D01*
X15167671Y-8251852D01*
X15158148Y-8242328D01*
X15405767Y-8061376D02*
X15424814Y-8061376D01*
X15443862Y-8070900D01*
X15453386Y-8080424D01*
X15462909Y-8099471D01*
X15472433Y-8137567D01*
X15472433Y-8185186D01*
X15462909Y-8223281D01*
X15453386Y-8242328D01*
X15443862Y-8251852D01*
X15424814Y-8261376D01*
X15405767Y-8261376D01*
X15386719Y-8251852D01*
X15377195Y-8242328D01*
X15367671Y-8223281D01*
X15358148Y-8185186D01*
X15358148Y-8137567D01*
X15367671Y-8099471D01*
X15377195Y-8080424D01*
X15386719Y-8070900D01*
X15405767Y-8061376D01*
X15710528Y-8261376D02*
X15710528Y-8061376D01*
X15796243Y-8261376D02*
X15796243Y-8156614D01*
X15786719Y-8137567D01*
X15767671Y-8128043D01*
X15739100Y-8128043D01*
X15720052Y-8137567D01*
X15710528Y-8147090D01*
X15920052Y-8261376D02*
X15901005Y-8251852D01*
X15891481Y-8242328D01*
X15881957Y-8223281D01*
X15881957Y-8166138D01*
X15891481Y-8147090D01*
X15901005Y-8137567D01*
X15920052Y-8128043D01*
X15948624Y-8128043D01*
X15967671Y-8137567D01*
X15977195Y-8147090D01*
X15986719Y-8166138D01*
X15986719Y-8223281D01*
X15977195Y-8242328D01*
X15967671Y-8251852D01*
X15948624Y-8261376D01*
X15920052Y-8261376D01*
X16101005Y-8261376D02*
X16081957Y-8251852D01*
X16072433Y-8232805D01*
X16072433Y-8061376D01*
X16253386Y-8251852D02*
X16234338Y-8261376D01*
X16196243Y-8261376D01*
X16177195Y-8251852D01*
X16167671Y-8232805D01*
X16167671Y-8156614D01*
X16177195Y-8137567D01*
X16196243Y-8128043D01*
X16234338Y-8128043D01*
X16253386Y-8137567D01*
X16262909Y-8156614D01*
X16262909Y-8175662D01*
X16167671Y-8194709D01*
X16339100Y-8251852D02*
X16358148Y-8261376D01*
X16396243Y-8261376D01*
X16415290Y-8251852D01*
X16424814Y-8232805D01*
X16424814Y-8223281D01*
X16415290Y-8204233D01*
X16396243Y-8194709D01*
X16367671Y-8194709D01*
X16348624Y-8185186D01*
X16339100Y-8166138D01*
X16339100Y-8156614D01*
X16348624Y-8137567D01*
X16367671Y-8128043D01*
X16396243Y-8128043D01*
X16415290Y-8137567D01*
X16491481Y-8337567D02*
X16501005Y-8328043D01*
X16520052Y-8299471D01*
X16529576Y-8280424D01*
X16539100Y-8251852D01*
X16548624Y-8204233D01*
X16548624Y-8166138D01*
X16539100Y-8118519D01*
X16529576Y-8089948D01*
X16520052Y-8070900D01*
X16501005Y-8042328D01*
X16491481Y-8032805D01*
D14*
X11484100Y-8389900D02*
X11484100Y-8479900D01*
X11439100Y-8434900D02*
X11529100Y-8434900D01*
D11*
X11824814Y-8325376D02*
X11843862Y-8325376D01*
X11862909Y-8334900D01*
X11872433Y-8344424D01*
X11881957Y-8363471D01*
X11891481Y-8401567D01*
X11891481Y-8449186D01*
X11881957Y-8487281D01*
X11872433Y-8506329D01*
X11862909Y-8515852D01*
X11843862Y-8525376D01*
X11824814Y-8525376D01*
X11805767Y-8515852D01*
X11796243Y-8506329D01*
X11786719Y-8487281D01*
X11777195Y-8449186D01*
X11777195Y-8401567D01*
X11786719Y-8363471D01*
X11796243Y-8344424D01*
X11805767Y-8334900D01*
X11824814Y-8325376D01*
X11977195Y-8506329D02*
X11986719Y-8515852D01*
X11977195Y-8525376D01*
X11967671Y-8515852D01*
X11977195Y-8506329D01*
X11977195Y-8525376D01*
X12081957Y-8525376D02*
X12120052Y-8525376D01*
X12139100Y-8515852D01*
X12148624Y-8506329D01*
X12167671Y-8477757D01*
X12177195Y-8439662D01*
X12177195Y-8363471D01*
X12167671Y-8344424D01*
X12158148Y-8334900D01*
X12139100Y-8325376D01*
X12101005Y-8325376D01*
X12081957Y-8334900D01*
X12072433Y-8344424D01*
X12062909Y-8363471D01*
X12062909Y-8411090D01*
X12072433Y-8430138D01*
X12081957Y-8439662D01*
X12101005Y-8449186D01*
X12139100Y-8449186D01*
X12158148Y-8439662D01*
X12167671Y-8430138D01*
X12177195Y-8411090D01*
X12301005Y-8325376D02*
X12320052Y-8325376D01*
X12339100Y-8334900D01*
X12348624Y-8344424D01*
X12358148Y-8363471D01*
X12367671Y-8401567D01*
X12367671Y-8449186D01*
X12358148Y-8487281D01*
X12348624Y-8506329D01*
X12339100Y-8515852D01*
X12320052Y-8525376D01*
X12301005Y-8525376D01*
X12281957Y-8515852D01*
X12272433Y-8506329D01*
X12262909Y-8487281D01*
X12253386Y-8449186D01*
X12253386Y-8401567D01*
X12262909Y-8363471D01*
X12272433Y-8344424D01*
X12281957Y-8334900D01*
X12301005Y-8325376D01*
X12491481Y-8325376D02*
X12510528Y-8325376D01*
X12529576Y-8334900D01*
X12539100Y-8344424D01*
X12548624Y-8363471D01*
X12558148Y-8401567D01*
X12558148Y-8449186D01*
X12548624Y-8487281D01*
X12539100Y-8506329D01*
X12529576Y-8515852D01*
X12510528Y-8525376D01*
X12491481Y-8525376D01*
X12472433Y-8515852D01*
X12462909Y-8506329D01*
X12453386Y-8487281D01*
X12443862Y-8449186D01*
X12443862Y-8401567D01*
X12453386Y-8363471D01*
X12462909Y-8344424D01*
X12472433Y-8334900D01*
X12491481Y-8325376D01*
X12643862Y-8525376D02*
X12643862Y-8392043D01*
X12643862Y-8411090D02*
X12653386Y-8401567D01*
X12672433Y-8392043D01*
X12701005Y-8392043D01*
X12720052Y-8401567D01*
X12729576Y-8420614D01*
X12729576Y-8525376D01*
X12729576Y-8420614D02*
X12739100Y-8401567D01*
X12758148Y-8392043D01*
X12786719Y-8392043D01*
X12805767Y-8401567D01*
X12815290Y-8420614D01*
X12815290Y-8525376D01*
X12910528Y-8525376D02*
X12910528Y-8392043D01*
X12910528Y-8411090D02*
X12920052Y-8401567D01*
X12939100Y-8392043D01*
X12967671Y-8392043D01*
X12986719Y-8401567D01*
X12996243Y-8420614D01*
X12996243Y-8525376D01*
X12996243Y-8420614D02*
X13005767Y-8401567D01*
X13024814Y-8392043D01*
X13053386Y-8392043D01*
X13072433Y-8401567D01*
X13081957Y-8420614D01*
X13081957Y-8525376D01*
X13472433Y-8315852D02*
X13301005Y-8572995D01*
X13729576Y-8325376D02*
X13748624Y-8325376D01*
X13767671Y-8334900D01*
X13777195Y-8344424D01*
X13786719Y-8363471D01*
X13796243Y-8401567D01*
X13796243Y-8449186D01*
X13786719Y-8487281D01*
X13777195Y-8506329D01*
X13767671Y-8515852D01*
X13748624Y-8525376D01*
X13729576Y-8525376D01*
X13710528Y-8515852D01*
X13701005Y-8506329D01*
X13691481Y-8487281D01*
X13681957Y-8449186D01*
X13681957Y-8401567D01*
X13691481Y-8363471D01*
X13701005Y-8344424D01*
X13710528Y-8334900D01*
X13729576Y-8325376D01*
X13881957Y-8506329D02*
X13891481Y-8515852D01*
X13881957Y-8525376D01*
X13872433Y-8515852D01*
X13881957Y-8506329D01*
X13881957Y-8525376D01*
X14015290Y-8325376D02*
X14034338Y-8325376D01*
X14053386Y-8334900D01*
X14062909Y-8344424D01*
X14072433Y-8363471D01*
X14081957Y-8401567D01*
X14081957Y-8449186D01*
X14072433Y-8487281D01*
X14062909Y-8506329D01*
X14053386Y-8515852D01*
X14034338Y-8525376D01*
X14015290Y-8525376D01*
X13996243Y-8515852D01*
X13986719Y-8506329D01*
X13977195Y-8487281D01*
X13967671Y-8449186D01*
X13967671Y-8401567D01*
X13977195Y-8363471D01*
X13986719Y-8344424D01*
X13996243Y-8334900D01*
X14015290Y-8325376D01*
X14148624Y-8325376D02*
X14272433Y-8325376D01*
X14205767Y-8401567D01*
X14234338Y-8401567D01*
X14253386Y-8411090D01*
X14262909Y-8420614D01*
X14272433Y-8439662D01*
X14272433Y-8487281D01*
X14262909Y-8506329D01*
X14253386Y-8515852D01*
X14234338Y-8525376D01*
X14177195Y-8525376D01*
X14158148Y-8515852D01*
X14148624Y-8506329D01*
X14453386Y-8325376D02*
X14358148Y-8325376D01*
X14348624Y-8420614D01*
X14358148Y-8411090D01*
X14377195Y-8401567D01*
X14424814Y-8401567D01*
X14443862Y-8411090D01*
X14453386Y-8420614D01*
X14462909Y-8439662D01*
X14462909Y-8487281D01*
X14453386Y-8506329D01*
X14443862Y-8515852D01*
X14424814Y-8525376D01*
X14377195Y-8525376D01*
X14358148Y-8515852D01*
X14348624Y-8506329D01*
X14634338Y-8392043D02*
X14634338Y-8525376D01*
X14586719Y-8315852D02*
X14539100Y-8458710D01*
X14662909Y-8458710D01*
X14729576Y-8325376D02*
X14729576Y-8363471D01*
X14805767Y-8325376D02*
X14805767Y-8363471D01*
X15101005Y-8601567D02*
X15091481Y-8592043D01*
X15072433Y-8563471D01*
X15062909Y-8544424D01*
X15053386Y-8515852D01*
X15043862Y-8468233D01*
X15043862Y-8430138D01*
X15053386Y-8382519D01*
X15062909Y-8353948D01*
X15072433Y-8334900D01*
X15091481Y-8306328D01*
X15101005Y-8296805D01*
X15167671Y-8344424D02*
X15177195Y-8334900D01*
X15196243Y-8325376D01*
X15243862Y-8325376D01*
X15262909Y-8334900D01*
X15272433Y-8344424D01*
X15281957Y-8363471D01*
X15281957Y-8382519D01*
X15272433Y-8411090D01*
X15158148Y-8525376D01*
X15281957Y-8525376D01*
X15520052Y-8525376D02*
X15520052Y-8325376D01*
X15605767Y-8525376D02*
X15605767Y-8420614D01*
X15596243Y-8401567D01*
X15577195Y-8392043D01*
X15548624Y-8392043D01*
X15529576Y-8401567D01*
X15520052Y-8411090D01*
X15729576Y-8525376D02*
X15710528Y-8515852D01*
X15701005Y-8506329D01*
X15691481Y-8487281D01*
X15691481Y-8430138D01*
X15701005Y-8411090D01*
X15710528Y-8401567D01*
X15729576Y-8392043D01*
X15758148Y-8392043D01*
X15777195Y-8401567D01*
X15786719Y-8411090D01*
X15796243Y-8430138D01*
X15796243Y-8487281D01*
X15786719Y-8506329D01*
X15777195Y-8515852D01*
X15758148Y-8525376D01*
X15729576Y-8525376D01*
X15910528Y-8525376D02*
X15891481Y-8515852D01*
X15881957Y-8496805D01*
X15881957Y-8325376D01*
X16062909Y-8515852D02*
X16043862Y-8525376D01*
X16005767Y-8525376D01*
X15986719Y-8515852D01*
X15977195Y-8496805D01*
X15977195Y-8420614D01*
X15986719Y-8401567D01*
X16005767Y-8392043D01*
X16043862Y-8392043D01*
X16062909Y-8401567D01*
X16072433Y-8420614D01*
X16072433Y-8439662D01*
X15977195Y-8458710D01*
X16148624Y-8515852D02*
X16167671Y-8525376D01*
X16205767Y-8525376D01*
X16224814Y-8515852D01*
X16234338Y-8496805D01*
X16234338Y-8487281D01*
X16224814Y-8468233D01*
X16205767Y-8458710D01*
X16177195Y-8458710D01*
X16158148Y-8449186D01*
X16148624Y-8430138D01*
X16148624Y-8420614D01*
X16158148Y-8401567D01*
X16177195Y-8392043D01*
X16205767Y-8392043D01*
X16224814Y-8401567D01*
X16301005Y-8601567D02*
X16310528Y-8592043D01*
X16329576Y-8563471D01*
X16339100Y-8544424D01*
X16348624Y-8515852D01*
X16358148Y-8468233D01*
X16358148Y-8430138D01*
X16348624Y-8382519D01*
X16339100Y-8353948D01*
X16329576Y-8334900D01*
X16310528Y-8306328D01*
X16301005Y-8296805D01*
M02*
