%FSLAX45Y45*%
G04 Gerber Fmt 4.5, Leading zero omitted, Abs format (unit mm)*
G04 Created by KiCad (PCBNEW 6.0.0-d3dd2cf0fa~116~ubuntu20.04.1) date 2022-01-26 23:10:37*
%MOMM*%
%LPD*%
G01*
G04 APERTURE LIST*
%TA.AperFunction,Profile*%
%ADD10C,0.050000*%
%TD*%
%ADD11C,0.200000*%
%ADD12C,0.030000*%
%ADD13C,0.040000*%
%ADD14C,0.090000*%
G04 APERTURE END LIST*
D10*
X11112500Y-9334500D02*
X14795500Y-9334500D01*
X14795500Y-9334500D02*
X14795500Y-15113000D01*
X14795500Y-15113000D02*
X11112500Y-15113000D01*
X11112500Y-15113000D02*
X11112500Y-9334500D01*
D11*
D12*
X11313400Y-14158200D02*
X11343400Y-14188200D01*
X11343400Y-14158200D02*
X11313400Y-14188200D01*
X11313400Y-14259800D02*
X11343400Y-14289800D01*
X11343400Y-14259800D02*
X11313400Y-14289800D01*
X11415000Y-14158200D02*
X11445000Y-14188200D01*
X11445000Y-14158200D02*
X11415000Y-14188200D01*
X11415000Y-14259800D02*
X11445000Y-14289800D01*
X11445000Y-14259800D02*
X11415000Y-14289800D01*
X11503900Y-14544280D02*
X11533900Y-14574280D01*
X11533900Y-14544280D02*
X11503900Y-14574280D01*
X11516600Y-14158200D02*
X11546600Y-14188200D01*
X11546600Y-14158200D02*
X11516600Y-14188200D01*
X11516600Y-14259800D02*
X11546600Y-14289800D01*
X11546600Y-14259800D02*
X11516600Y-14289800D01*
X12126200Y-14183600D02*
X12156200Y-14213600D01*
X12156200Y-14183600D02*
X12126200Y-14213600D01*
D13*
X11373800Y-14986000D02*
G75*
G03*
X11373800Y-14986000I-20000J0D01*
G01*
X11653200Y-14325600D02*
G75*
G03*
X11653200Y-14325600I-20000J0D01*
G01*
X11704000Y-11785600D02*
G75*
G03*
X11704000Y-11785600I-20000J0D01*
G01*
X11704000Y-13563600D02*
G75*
G03*
X11704000Y-13563600I-20000J0D01*
G01*
X11805600Y-14325600D02*
G75*
G03*
X11805600Y-14325600I-20000J0D01*
G01*
X11907200Y-11836400D02*
G75*
G03*
X11907200Y-11836400I-20000J0D01*
G01*
X11907200Y-13563600D02*
G75*
G03*
X11907200Y-13563600I-20000J0D01*
G01*
X12008800Y-13614400D02*
G75*
G03*
X12008800Y-13614400I-20000J0D01*
G01*
X12008800Y-14630400D02*
G75*
G03*
X12008800Y-14630400I-20000J0D01*
G01*
X12110400Y-11785600D02*
G75*
G03*
X12110400Y-11785600I-20000J0D01*
G01*
X12212000Y-13055600D02*
G75*
G03*
X12212000Y-13055600I-20000J0D01*
G01*
X12364400Y-11176000D02*
G75*
G03*
X12364400Y-11176000I-20000J0D01*
G01*
X12364400Y-11785600D02*
G75*
G03*
X12364400Y-11785600I-20000J0D01*
G01*
X12364400Y-13817600D02*
G75*
G03*
X12364400Y-13817600I-20000J0D01*
G01*
X12567600Y-12242800D02*
G75*
G03*
X12567600Y-12242800I-20000J0D01*
G01*
X12618400Y-12649200D02*
G75*
G03*
X12618400Y-12649200I-20000J0D01*
G01*
X12847000Y-14351000D02*
G75*
G03*
X12847000Y-14351000I-20000J0D01*
G01*
X13177200Y-10363200D02*
G75*
G03*
X13177200Y-10363200I-20000J0D01*
G01*
X13177200Y-11023600D02*
G75*
G03*
X13177200Y-11023600I-20000J0D01*
G01*
X13177200Y-12141200D02*
G75*
G03*
X13177200Y-12141200I-20000J0D01*
G01*
X13278800Y-12598400D02*
G75*
G03*
X13278800Y-12598400I-20000J0D01*
G01*
X13355000Y-13716000D02*
G75*
G03*
X13355000Y-13716000I-20000J0D01*
G01*
X13837600Y-12446000D02*
G75*
G03*
X13837600Y-12446000I-20000J0D01*
G01*
X14117000Y-13716000D02*
G75*
G03*
X14117000Y-13716000I-20000J0D01*
G01*
X14244000Y-12496800D02*
G75*
G03*
X14244000Y-12496800I-20000J0D01*
G01*
X14498000Y-12496800D02*
G75*
G03*
X14498000Y-12496800I-20000J0D01*
G01*
X14523400Y-14351000D02*
G75*
G03*
X14523400Y-14351000I-20000J0D01*
G01*
X14650400Y-11785600D02*
G75*
G03*
X14650400Y-11785600I-20000J0D01*
G01*
X14701200Y-12141200D02*
G75*
G03*
X14701200Y-12141200I-20000J0D01*
G01*
D14*
X11928000Y-11310000D02*
X11928000Y-11400000D01*
X11883000Y-11355000D02*
X11973000Y-11355000D01*
X11928000Y-14810000D02*
X11928000Y-14900000D01*
X11883000Y-14855000D02*
X11973000Y-14855000D01*
D11*
X11367619Y-15425976D02*
X11367619Y-15225976D01*
X11415238Y-15225976D01*
X11443809Y-15235500D01*
X11462857Y-15254548D01*
X11472381Y-15273595D01*
X11481905Y-15311690D01*
X11481905Y-15340262D01*
X11472381Y-15378357D01*
X11462857Y-15397405D01*
X11443809Y-15416452D01*
X11415238Y-15425976D01*
X11367619Y-15425976D01*
X11567619Y-15425976D02*
X11567619Y-15292643D01*
X11567619Y-15330738D02*
X11577143Y-15311690D01*
X11586667Y-15302167D01*
X11605714Y-15292643D01*
X11624762Y-15292643D01*
X11691428Y-15425976D02*
X11691428Y-15292643D01*
X11691428Y-15225976D02*
X11681905Y-15235500D01*
X11691428Y-15245024D01*
X11700952Y-15235500D01*
X11691428Y-15225976D01*
X11691428Y-15245024D01*
X11815238Y-15425976D02*
X11796190Y-15416452D01*
X11786667Y-15397405D01*
X11786667Y-15225976D01*
X11920000Y-15425976D02*
X11900952Y-15416452D01*
X11891428Y-15397405D01*
X11891428Y-15225976D01*
X12148571Y-15425976D02*
X12148571Y-15225976D01*
X12215238Y-15368833D01*
X12281905Y-15225976D01*
X12281905Y-15425976D01*
X12462857Y-15425976D02*
X12462857Y-15321214D01*
X12453333Y-15302167D01*
X12434286Y-15292643D01*
X12396190Y-15292643D01*
X12377143Y-15302167D01*
X12462857Y-15416452D02*
X12443809Y-15425976D01*
X12396190Y-15425976D01*
X12377143Y-15416452D01*
X12367619Y-15397405D01*
X12367619Y-15378357D01*
X12377143Y-15359309D01*
X12396190Y-15349786D01*
X12443809Y-15349786D01*
X12462857Y-15340262D01*
X12558095Y-15292643D02*
X12558095Y-15492643D01*
X12558095Y-15302167D02*
X12577143Y-15292643D01*
X12615238Y-15292643D01*
X12634286Y-15302167D01*
X12643809Y-15311690D01*
X12653333Y-15330738D01*
X12653333Y-15387881D01*
X12643809Y-15406928D01*
X12634286Y-15416452D01*
X12615238Y-15425976D01*
X12577143Y-15425976D01*
X12558095Y-15416452D01*
X12739048Y-15406928D02*
X12748571Y-15416452D01*
X12739048Y-15425976D01*
X12729524Y-15416452D01*
X12739048Y-15406928D01*
X12739048Y-15425976D01*
X12739048Y-15302167D02*
X12748571Y-15311690D01*
X12739048Y-15321214D01*
X12729524Y-15311690D01*
X12739048Y-15302167D01*
X12739048Y-15321214D01*
D12*
X11080000Y-15740500D02*
X11110000Y-15770500D01*
X11110000Y-15740500D02*
X11080000Y-15770500D01*
D11*
X11405714Y-15645976D02*
X11424762Y-15645976D01*
X11443809Y-15655500D01*
X11453333Y-15665024D01*
X11462857Y-15684071D01*
X11472381Y-15722167D01*
X11472381Y-15769786D01*
X11462857Y-15807881D01*
X11453333Y-15826928D01*
X11443809Y-15836452D01*
X11424762Y-15845976D01*
X11405714Y-15845976D01*
X11386667Y-15836452D01*
X11377143Y-15826928D01*
X11367619Y-15807881D01*
X11358095Y-15769786D01*
X11358095Y-15722167D01*
X11367619Y-15684071D01*
X11377143Y-15665024D01*
X11386667Y-15655500D01*
X11405714Y-15645976D01*
X11558095Y-15826928D02*
X11567619Y-15836452D01*
X11558095Y-15845976D01*
X11548571Y-15836452D01*
X11558095Y-15826928D01*
X11558095Y-15845976D01*
X11634286Y-15645976D02*
X11758095Y-15645976D01*
X11691428Y-15722167D01*
X11720000Y-15722167D01*
X11739048Y-15731690D01*
X11748571Y-15741214D01*
X11758095Y-15760262D01*
X11758095Y-15807881D01*
X11748571Y-15826928D01*
X11739048Y-15836452D01*
X11720000Y-15845976D01*
X11662857Y-15845976D01*
X11643809Y-15836452D01*
X11634286Y-15826928D01*
X11881905Y-15645976D02*
X11900952Y-15645976D01*
X11920000Y-15655500D01*
X11929524Y-15665024D01*
X11939048Y-15684071D01*
X11948571Y-15722167D01*
X11948571Y-15769786D01*
X11939048Y-15807881D01*
X11929524Y-15826928D01*
X11920000Y-15836452D01*
X11900952Y-15845976D01*
X11881905Y-15845976D01*
X11862857Y-15836452D01*
X11853333Y-15826928D01*
X11843809Y-15807881D01*
X11834286Y-15769786D01*
X11834286Y-15722167D01*
X11843809Y-15684071D01*
X11853333Y-15665024D01*
X11862857Y-15655500D01*
X11881905Y-15645976D01*
X12072381Y-15645976D02*
X12091428Y-15645976D01*
X12110476Y-15655500D01*
X12120000Y-15665024D01*
X12129524Y-15684071D01*
X12139048Y-15722167D01*
X12139048Y-15769786D01*
X12129524Y-15807881D01*
X12120000Y-15826928D01*
X12110476Y-15836452D01*
X12091428Y-15845976D01*
X12072381Y-15845976D01*
X12053333Y-15836452D01*
X12043809Y-15826928D01*
X12034286Y-15807881D01*
X12024762Y-15769786D01*
X12024762Y-15722167D01*
X12034286Y-15684071D01*
X12043809Y-15665024D01*
X12053333Y-15655500D01*
X12072381Y-15645976D01*
X12224762Y-15845976D02*
X12224762Y-15712643D01*
X12224762Y-15731690D02*
X12234286Y-15722167D01*
X12253333Y-15712643D01*
X12281905Y-15712643D01*
X12300952Y-15722167D01*
X12310476Y-15741214D01*
X12310476Y-15845976D01*
X12310476Y-15741214D02*
X12320000Y-15722167D01*
X12339048Y-15712643D01*
X12367619Y-15712643D01*
X12386667Y-15722167D01*
X12396190Y-15741214D01*
X12396190Y-15845976D01*
X12491428Y-15845976D02*
X12491428Y-15712643D01*
X12491428Y-15731690D02*
X12500952Y-15722167D01*
X12520000Y-15712643D01*
X12548571Y-15712643D01*
X12567619Y-15722167D01*
X12577143Y-15741214D01*
X12577143Y-15845976D01*
X12577143Y-15741214D02*
X12586667Y-15722167D01*
X12605714Y-15712643D01*
X12634286Y-15712643D01*
X12653333Y-15722167D01*
X12662857Y-15741214D01*
X12662857Y-15845976D01*
X13053333Y-15636452D02*
X12881905Y-15893595D01*
X13310476Y-15645976D02*
X13329524Y-15645976D01*
X13348571Y-15655500D01*
X13358095Y-15665024D01*
X13367619Y-15684071D01*
X13377143Y-15722167D01*
X13377143Y-15769786D01*
X13367619Y-15807881D01*
X13358095Y-15826928D01*
X13348571Y-15836452D01*
X13329524Y-15845976D01*
X13310476Y-15845976D01*
X13291428Y-15836452D01*
X13281905Y-15826928D01*
X13272381Y-15807881D01*
X13262857Y-15769786D01*
X13262857Y-15722167D01*
X13272381Y-15684071D01*
X13281905Y-15665024D01*
X13291428Y-15655500D01*
X13310476Y-15645976D01*
X13462857Y-15826928D02*
X13472381Y-15836452D01*
X13462857Y-15845976D01*
X13453333Y-15836452D01*
X13462857Y-15826928D01*
X13462857Y-15845976D01*
X13596190Y-15645976D02*
X13615238Y-15645976D01*
X13634286Y-15655500D01*
X13643809Y-15665024D01*
X13653333Y-15684071D01*
X13662857Y-15722167D01*
X13662857Y-15769786D01*
X13653333Y-15807881D01*
X13643809Y-15826928D01*
X13634286Y-15836452D01*
X13615238Y-15845976D01*
X13596190Y-15845976D01*
X13577143Y-15836452D01*
X13567619Y-15826928D01*
X13558095Y-15807881D01*
X13548571Y-15769786D01*
X13548571Y-15722167D01*
X13558095Y-15684071D01*
X13567619Y-15665024D01*
X13577143Y-15655500D01*
X13596190Y-15645976D01*
X13853333Y-15845976D02*
X13739048Y-15845976D01*
X13796190Y-15845976D02*
X13796190Y-15645976D01*
X13777143Y-15674548D01*
X13758095Y-15693595D01*
X13739048Y-15703119D01*
X14043809Y-15845976D02*
X13929524Y-15845976D01*
X13986667Y-15845976D02*
X13986667Y-15645976D01*
X13967619Y-15674548D01*
X13948571Y-15693595D01*
X13929524Y-15703119D01*
X14158095Y-15731690D02*
X14139048Y-15722167D01*
X14129524Y-15712643D01*
X14120000Y-15693595D01*
X14120000Y-15684071D01*
X14129524Y-15665024D01*
X14139048Y-15655500D01*
X14158095Y-15645976D01*
X14196190Y-15645976D01*
X14215238Y-15655500D01*
X14224762Y-15665024D01*
X14234286Y-15684071D01*
X14234286Y-15693595D01*
X14224762Y-15712643D01*
X14215238Y-15722167D01*
X14196190Y-15731690D01*
X14158095Y-15731690D01*
X14139048Y-15741214D01*
X14129524Y-15750738D01*
X14120000Y-15769786D01*
X14120000Y-15807881D01*
X14129524Y-15826928D01*
X14139048Y-15836452D01*
X14158095Y-15845976D01*
X14196190Y-15845976D01*
X14215238Y-15836452D01*
X14224762Y-15826928D01*
X14234286Y-15807881D01*
X14234286Y-15769786D01*
X14224762Y-15750738D01*
X14215238Y-15741214D01*
X14196190Y-15731690D01*
X14310476Y-15645976D02*
X14310476Y-15684071D01*
X14386667Y-15645976D02*
X14386667Y-15684071D01*
X14681905Y-15922167D02*
X14672381Y-15912643D01*
X14653333Y-15884071D01*
X14643809Y-15865024D01*
X14634286Y-15836452D01*
X14624762Y-15788833D01*
X14624762Y-15750738D01*
X14634286Y-15703119D01*
X14643809Y-15674548D01*
X14653333Y-15655500D01*
X14672381Y-15626928D01*
X14681905Y-15617405D01*
X14786667Y-15731690D02*
X14767619Y-15722167D01*
X14758095Y-15712643D01*
X14748571Y-15693595D01*
X14748571Y-15684071D01*
X14758095Y-15665024D01*
X14767619Y-15655500D01*
X14786667Y-15645976D01*
X14824762Y-15645976D01*
X14843809Y-15655500D01*
X14853333Y-15665024D01*
X14862857Y-15684071D01*
X14862857Y-15693595D01*
X14853333Y-15712643D01*
X14843809Y-15722167D01*
X14824762Y-15731690D01*
X14786667Y-15731690D01*
X14767619Y-15741214D01*
X14758095Y-15750738D01*
X14748571Y-15769786D01*
X14748571Y-15807881D01*
X14758095Y-15826928D01*
X14767619Y-15836452D01*
X14786667Y-15845976D01*
X14824762Y-15845976D01*
X14843809Y-15836452D01*
X14853333Y-15826928D01*
X14862857Y-15807881D01*
X14862857Y-15769786D01*
X14853333Y-15750738D01*
X14843809Y-15741214D01*
X14824762Y-15731690D01*
X15100952Y-15845976D02*
X15100952Y-15645976D01*
X15186667Y-15845976D02*
X15186667Y-15741214D01*
X15177143Y-15722167D01*
X15158095Y-15712643D01*
X15129524Y-15712643D01*
X15110476Y-15722167D01*
X15100952Y-15731690D01*
X15310476Y-15845976D02*
X15291428Y-15836452D01*
X15281905Y-15826928D01*
X15272381Y-15807881D01*
X15272381Y-15750738D01*
X15281905Y-15731690D01*
X15291428Y-15722167D01*
X15310476Y-15712643D01*
X15339048Y-15712643D01*
X15358095Y-15722167D01*
X15367619Y-15731690D01*
X15377143Y-15750738D01*
X15377143Y-15807881D01*
X15367619Y-15826928D01*
X15358095Y-15836452D01*
X15339048Y-15845976D01*
X15310476Y-15845976D01*
X15491428Y-15845976D02*
X15472381Y-15836452D01*
X15462857Y-15817405D01*
X15462857Y-15645976D01*
X15643809Y-15836452D02*
X15624762Y-15845976D01*
X15586667Y-15845976D01*
X15567619Y-15836452D01*
X15558095Y-15817405D01*
X15558095Y-15741214D01*
X15567619Y-15722167D01*
X15586667Y-15712643D01*
X15624762Y-15712643D01*
X15643809Y-15722167D01*
X15653333Y-15741214D01*
X15653333Y-15760262D01*
X15558095Y-15779309D01*
X15729524Y-15836452D02*
X15748571Y-15845976D01*
X15786667Y-15845976D01*
X15805714Y-15836452D01*
X15815238Y-15817405D01*
X15815238Y-15807881D01*
X15805714Y-15788833D01*
X15786667Y-15779309D01*
X15758095Y-15779309D01*
X15739048Y-15769786D01*
X15729524Y-15750738D01*
X15729524Y-15741214D01*
X15739048Y-15722167D01*
X15758095Y-15712643D01*
X15786667Y-15712643D01*
X15805714Y-15722167D01*
X15881905Y-15922167D02*
X15891428Y-15912643D01*
X15910476Y-15884071D01*
X15920000Y-15865024D01*
X15929524Y-15836452D01*
X15939048Y-15788833D01*
X15939048Y-15750738D01*
X15929524Y-15703119D01*
X15920000Y-15674548D01*
X15910476Y-15655500D01*
X15891428Y-15626928D01*
X15881905Y-15617405D01*
D13*
X11110000Y-16019500D02*
G75*
G03*
X11110000Y-16019500I-20000J0D01*
G01*
D11*
X11405714Y-15909976D02*
X11424762Y-15909976D01*
X11443809Y-15919500D01*
X11453333Y-15929024D01*
X11462857Y-15948071D01*
X11472381Y-15986167D01*
X11472381Y-16033786D01*
X11462857Y-16071881D01*
X11453333Y-16090928D01*
X11443809Y-16100452D01*
X11424762Y-16109976D01*
X11405714Y-16109976D01*
X11386667Y-16100452D01*
X11377143Y-16090928D01*
X11367619Y-16071881D01*
X11358095Y-16033786D01*
X11358095Y-15986167D01*
X11367619Y-15948071D01*
X11377143Y-15929024D01*
X11386667Y-15919500D01*
X11405714Y-15909976D01*
X11558095Y-16090928D02*
X11567619Y-16100452D01*
X11558095Y-16109976D01*
X11548571Y-16100452D01*
X11558095Y-16090928D01*
X11558095Y-16109976D01*
X11739048Y-15976643D02*
X11739048Y-16109976D01*
X11691428Y-15900452D02*
X11643809Y-16043309D01*
X11767619Y-16043309D01*
X11881905Y-15909976D02*
X11900952Y-15909976D01*
X11920000Y-15919500D01*
X11929524Y-15929024D01*
X11939048Y-15948071D01*
X11948571Y-15986167D01*
X11948571Y-16033786D01*
X11939048Y-16071881D01*
X11929524Y-16090928D01*
X11920000Y-16100452D01*
X11900952Y-16109976D01*
X11881905Y-16109976D01*
X11862857Y-16100452D01*
X11853333Y-16090928D01*
X11843809Y-16071881D01*
X11834286Y-16033786D01*
X11834286Y-15986167D01*
X11843809Y-15948071D01*
X11853333Y-15929024D01*
X11862857Y-15919500D01*
X11881905Y-15909976D01*
X12072381Y-15909976D02*
X12091428Y-15909976D01*
X12110476Y-15919500D01*
X12120000Y-15929024D01*
X12129524Y-15948071D01*
X12139048Y-15986167D01*
X12139048Y-16033786D01*
X12129524Y-16071881D01*
X12120000Y-16090928D01*
X12110476Y-16100452D01*
X12091428Y-16109976D01*
X12072381Y-16109976D01*
X12053333Y-16100452D01*
X12043809Y-16090928D01*
X12034286Y-16071881D01*
X12024762Y-16033786D01*
X12024762Y-15986167D01*
X12034286Y-15948071D01*
X12043809Y-15929024D01*
X12053333Y-15919500D01*
X12072381Y-15909976D01*
X12224762Y-16109976D02*
X12224762Y-15976643D01*
X12224762Y-15995690D02*
X12234286Y-15986167D01*
X12253333Y-15976643D01*
X12281905Y-15976643D01*
X12300952Y-15986167D01*
X12310476Y-16005214D01*
X12310476Y-16109976D01*
X12310476Y-16005214D02*
X12320000Y-15986167D01*
X12339048Y-15976643D01*
X12367619Y-15976643D01*
X12386667Y-15986167D01*
X12396190Y-16005214D01*
X12396190Y-16109976D01*
X12491428Y-16109976D02*
X12491428Y-15976643D01*
X12491428Y-15995690D02*
X12500952Y-15986167D01*
X12520000Y-15976643D01*
X12548571Y-15976643D01*
X12567619Y-15986167D01*
X12577143Y-16005214D01*
X12577143Y-16109976D01*
X12577143Y-16005214D02*
X12586667Y-15986167D01*
X12605714Y-15976643D01*
X12634286Y-15976643D01*
X12653333Y-15986167D01*
X12662857Y-16005214D01*
X12662857Y-16109976D01*
X13053333Y-15900452D02*
X12881905Y-16157595D01*
X13310476Y-15909976D02*
X13329524Y-15909976D01*
X13348571Y-15919500D01*
X13358095Y-15929024D01*
X13367619Y-15948071D01*
X13377143Y-15986167D01*
X13377143Y-16033786D01*
X13367619Y-16071881D01*
X13358095Y-16090928D01*
X13348571Y-16100452D01*
X13329524Y-16109976D01*
X13310476Y-16109976D01*
X13291428Y-16100452D01*
X13281905Y-16090928D01*
X13272381Y-16071881D01*
X13262857Y-16033786D01*
X13262857Y-15986167D01*
X13272381Y-15948071D01*
X13281905Y-15929024D01*
X13291428Y-15919500D01*
X13310476Y-15909976D01*
X13462857Y-16090928D02*
X13472381Y-16100452D01*
X13462857Y-16109976D01*
X13453333Y-16100452D01*
X13462857Y-16090928D01*
X13462857Y-16109976D01*
X13596190Y-15909976D02*
X13615238Y-15909976D01*
X13634286Y-15919500D01*
X13643809Y-15929024D01*
X13653333Y-15948071D01*
X13662857Y-15986167D01*
X13662857Y-16033786D01*
X13653333Y-16071881D01*
X13643809Y-16090928D01*
X13634286Y-16100452D01*
X13615238Y-16109976D01*
X13596190Y-16109976D01*
X13577143Y-16100452D01*
X13567619Y-16090928D01*
X13558095Y-16071881D01*
X13548571Y-16033786D01*
X13548571Y-15986167D01*
X13558095Y-15948071D01*
X13567619Y-15929024D01*
X13577143Y-15919500D01*
X13596190Y-15909976D01*
X13853333Y-16109976D02*
X13739048Y-16109976D01*
X13796190Y-16109976D02*
X13796190Y-15909976D01*
X13777143Y-15938548D01*
X13758095Y-15957595D01*
X13739048Y-15967119D01*
X14034286Y-15909976D02*
X13939048Y-15909976D01*
X13929524Y-16005214D01*
X13939048Y-15995690D01*
X13958095Y-15986167D01*
X14005714Y-15986167D01*
X14024762Y-15995690D01*
X14034286Y-16005214D01*
X14043809Y-16024262D01*
X14043809Y-16071881D01*
X14034286Y-16090928D01*
X14024762Y-16100452D01*
X14005714Y-16109976D01*
X13958095Y-16109976D01*
X13939048Y-16100452D01*
X13929524Y-16090928D01*
X14110476Y-15909976D02*
X14243809Y-15909976D01*
X14158095Y-16109976D01*
X14310476Y-15909976D02*
X14310476Y-15948071D01*
X14386667Y-15909976D02*
X14386667Y-15948071D01*
X14681905Y-16186167D02*
X14672381Y-16176643D01*
X14653333Y-16148071D01*
X14643809Y-16129024D01*
X14634286Y-16100452D01*
X14624762Y-16052833D01*
X14624762Y-16014738D01*
X14634286Y-15967119D01*
X14643809Y-15938548D01*
X14653333Y-15919500D01*
X14672381Y-15890928D01*
X14681905Y-15881405D01*
X14748571Y-15929024D02*
X14758095Y-15919500D01*
X14777143Y-15909976D01*
X14824762Y-15909976D01*
X14843809Y-15919500D01*
X14853333Y-15929024D01*
X14862857Y-15948071D01*
X14862857Y-15967119D01*
X14853333Y-15995690D01*
X14739048Y-16109976D01*
X14862857Y-16109976D01*
X14958095Y-16109976D02*
X14996190Y-16109976D01*
X15015238Y-16100452D01*
X15024762Y-16090928D01*
X15043809Y-16062357D01*
X15053333Y-16024262D01*
X15053333Y-15948071D01*
X15043809Y-15929024D01*
X15034286Y-15919500D01*
X15015238Y-15909976D01*
X14977143Y-15909976D01*
X14958095Y-15919500D01*
X14948571Y-15929024D01*
X14939048Y-15948071D01*
X14939048Y-15995690D01*
X14948571Y-16014738D01*
X14958095Y-16024262D01*
X14977143Y-16033786D01*
X15015238Y-16033786D01*
X15034286Y-16024262D01*
X15043809Y-16014738D01*
X15053333Y-15995690D01*
X15291428Y-16109976D02*
X15291428Y-15909976D01*
X15377143Y-16109976D02*
X15377143Y-16005214D01*
X15367619Y-15986167D01*
X15348571Y-15976643D01*
X15320000Y-15976643D01*
X15300952Y-15986167D01*
X15291428Y-15995690D01*
X15500952Y-16109976D02*
X15481905Y-16100452D01*
X15472381Y-16090928D01*
X15462857Y-16071881D01*
X15462857Y-16014738D01*
X15472381Y-15995690D01*
X15481905Y-15986167D01*
X15500952Y-15976643D01*
X15529524Y-15976643D01*
X15548571Y-15986167D01*
X15558095Y-15995690D01*
X15567619Y-16014738D01*
X15567619Y-16071881D01*
X15558095Y-16090928D01*
X15548571Y-16100452D01*
X15529524Y-16109976D01*
X15500952Y-16109976D01*
X15681905Y-16109976D02*
X15662857Y-16100452D01*
X15653333Y-16081405D01*
X15653333Y-15909976D01*
X15834286Y-16100452D02*
X15815238Y-16109976D01*
X15777143Y-16109976D01*
X15758095Y-16100452D01*
X15748571Y-16081405D01*
X15748571Y-16005214D01*
X15758095Y-15986167D01*
X15777143Y-15976643D01*
X15815238Y-15976643D01*
X15834286Y-15986167D01*
X15843809Y-16005214D01*
X15843809Y-16024262D01*
X15748571Y-16043309D01*
X15920000Y-16100452D02*
X15939048Y-16109976D01*
X15977143Y-16109976D01*
X15996190Y-16100452D01*
X16005714Y-16081405D01*
X16005714Y-16071881D01*
X15996190Y-16052833D01*
X15977143Y-16043309D01*
X15948571Y-16043309D01*
X15929524Y-16033786D01*
X15920000Y-16014738D01*
X15920000Y-16005214D01*
X15929524Y-15986167D01*
X15948571Y-15976643D01*
X15977143Y-15976643D01*
X15996190Y-15986167D01*
X16072381Y-16186167D02*
X16081905Y-16176643D01*
X16100952Y-16148071D01*
X16110476Y-16129024D01*
X16120000Y-16100452D01*
X16129524Y-16052833D01*
X16129524Y-16014738D01*
X16120000Y-15967119D01*
X16110476Y-15938548D01*
X16100952Y-15919500D01*
X16081905Y-15890928D01*
X16072381Y-15881405D01*
D14*
X11065000Y-16238500D02*
X11065000Y-16328500D01*
X11020000Y-16283500D02*
X11110000Y-16283500D01*
D11*
X11405714Y-16173976D02*
X11424762Y-16173976D01*
X11443809Y-16183500D01*
X11453333Y-16193024D01*
X11462857Y-16212071D01*
X11472381Y-16250167D01*
X11472381Y-16297786D01*
X11462857Y-16335881D01*
X11453333Y-16354928D01*
X11443809Y-16364452D01*
X11424762Y-16373976D01*
X11405714Y-16373976D01*
X11386667Y-16364452D01*
X11377143Y-16354928D01*
X11367619Y-16335881D01*
X11358095Y-16297786D01*
X11358095Y-16250167D01*
X11367619Y-16212071D01*
X11377143Y-16193024D01*
X11386667Y-16183500D01*
X11405714Y-16173976D01*
X11558095Y-16354928D02*
X11567619Y-16364452D01*
X11558095Y-16373976D01*
X11548571Y-16364452D01*
X11558095Y-16354928D01*
X11558095Y-16373976D01*
X11662857Y-16373976D02*
X11700952Y-16373976D01*
X11720000Y-16364452D01*
X11729524Y-16354928D01*
X11748571Y-16326357D01*
X11758095Y-16288262D01*
X11758095Y-16212071D01*
X11748571Y-16193024D01*
X11739048Y-16183500D01*
X11720000Y-16173976D01*
X11681905Y-16173976D01*
X11662857Y-16183500D01*
X11653333Y-16193024D01*
X11643809Y-16212071D01*
X11643809Y-16259690D01*
X11653333Y-16278738D01*
X11662857Y-16288262D01*
X11681905Y-16297786D01*
X11720000Y-16297786D01*
X11739048Y-16288262D01*
X11748571Y-16278738D01*
X11758095Y-16259690D01*
X11881905Y-16173976D02*
X11900952Y-16173976D01*
X11920000Y-16183500D01*
X11929524Y-16193024D01*
X11939048Y-16212071D01*
X11948571Y-16250167D01*
X11948571Y-16297786D01*
X11939048Y-16335881D01*
X11929524Y-16354928D01*
X11920000Y-16364452D01*
X11900952Y-16373976D01*
X11881905Y-16373976D01*
X11862857Y-16364452D01*
X11853333Y-16354928D01*
X11843809Y-16335881D01*
X11834286Y-16297786D01*
X11834286Y-16250167D01*
X11843809Y-16212071D01*
X11853333Y-16193024D01*
X11862857Y-16183500D01*
X11881905Y-16173976D01*
X12072381Y-16173976D02*
X12091428Y-16173976D01*
X12110476Y-16183500D01*
X12120000Y-16193024D01*
X12129524Y-16212071D01*
X12139048Y-16250167D01*
X12139048Y-16297786D01*
X12129524Y-16335881D01*
X12120000Y-16354928D01*
X12110476Y-16364452D01*
X12091428Y-16373976D01*
X12072381Y-16373976D01*
X12053333Y-16364452D01*
X12043809Y-16354928D01*
X12034286Y-16335881D01*
X12024762Y-16297786D01*
X12024762Y-16250167D01*
X12034286Y-16212071D01*
X12043809Y-16193024D01*
X12053333Y-16183500D01*
X12072381Y-16173976D01*
X12224762Y-16373976D02*
X12224762Y-16240643D01*
X12224762Y-16259690D02*
X12234286Y-16250167D01*
X12253333Y-16240643D01*
X12281905Y-16240643D01*
X12300952Y-16250167D01*
X12310476Y-16269214D01*
X12310476Y-16373976D01*
X12310476Y-16269214D02*
X12320000Y-16250167D01*
X12339048Y-16240643D01*
X12367619Y-16240643D01*
X12386667Y-16250167D01*
X12396190Y-16269214D01*
X12396190Y-16373976D01*
X12491428Y-16373976D02*
X12491428Y-16240643D01*
X12491428Y-16259690D02*
X12500952Y-16250167D01*
X12520000Y-16240643D01*
X12548571Y-16240643D01*
X12567619Y-16250167D01*
X12577143Y-16269214D01*
X12577143Y-16373976D01*
X12577143Y-16269214D02*
X12586667Y-16250167D01*
X12605714Y-16240643D01*
X12634286Y-16240643D01*
X12653333Y-16250167D01*
X12662857Y-16269214D01*
X12662857Y-16373976D01*
X13053333Y-16164452D02*
X12881905Y-16421595D01*
X13310476Y-16173976D02*
X13329524Y-16173976D01*
X13348571Y-16183500D01*
X13358095Y-16193024D01*
X13367619Y-16212071D01*
X13377143Y-16250167D01*
X13377143Y-16297786D01*
X13367619Y-16335881D01*
X13358095Y-16354928D01*
X13348571Y-16364452D01*
X13329524Y-16373976D01*
X13310476Y-16373976D01*
X13291428Y-16364452D01*
X13281905Y-16354928D01*
X13272381Y-16335881D01*
X13262857Y-16297786D01*
X13262857Y-16250167D01*
X13272381Y-16212071D01*
X13281905Y-16193024D01*
X13291428Y-16183500D01*
X13310476Y-16173976D01*
X13462857Y-16354928D02*
X13472381Y-16364452D01*
X13462857Y-16373976D01*
X13453333Y-16364452D01*
X13462857Y-16354928D01*
X13462857Y-16373976D01*
X13596190Y-16173976D02*
X13615238Y-16173976D01*
X13634286Y-16183500D01*
X13643809Y-16193024D01*
X13653333Y-16212071D01*
X13662857Y-16250167D01*
X13662857Y-16297786D01*
X13653333Y-16335881D01*
X13643809Y-16354928D01*
X13634286Y-16364452D01*
X13615238Y-16373976D01*
X13596190Y-16373976D01*
X13577143Y-16364452D01*
X13567619Y-16354928D01*
X13558095Y-16335881D01*
X13548571Y-16297786D01*
X13548571Y-16250167D01*
X13558095Y-16212071D01*
X13567619Y-16193024D01*
X13577143Y-16183500D01*
X13596190Y-16173976D01*
X13729524Y-16173976D02*
X13853333Y-16173976D01*
X13786667Y-16250167D01*
X13815238Y-16250167D01*
X13834286Y-16259690D01*
X13843809Y-16269214D01*
X13853333Y-16288262D01*
X13853333Y-16335881D01*
X13843809Y-16354928D01*
X13834286Y-16364452D01*
X13815238Y-16373976D01*
X13758095Y-16373976D01*
X13739048Y-16364452D01*
X13729524Y-16354928D01*
X14034286Y-16173976D02*
X13939048Y-16173976D01*
X13929524Y-16269214D01*
X13939048Y-16259690D01*
X13958095Y-16250167D01*
X14005714Y-16250167D01*
X14024762Y-16259690D01*
X14034286Y-16269214D01*
X14043809Y-16288262D01*
X14043809Y-16335881D01*
X14034286Y-16354928D01*
X14024762Y-16364452D01*
X14005714Y-16373976D01*
X13958095Y-16373976D01*
X13939048Y-16364452D01*
X13929524Y-16354928D01*
X14215238Y-16240643D02*
X14215238Y-16373976D01*
X14167619Y-16164452D02*
X14120000Y-16307309D01*
X14243809Y-16307309D01*
X14310476Y-16173976D02*
X14310476Y-16212071D01*
X14386667Y-16173976D02*
X14386667Y-16212071D01*
X14681905Y-16450167D02*
X14672381Y-16440643D01*
X14653333Y-16412071D01*
X14643809Y-16393024D01*
X14634286Y-16364452D01*
X14624762Y-16316833D01*
X14624762Y-16278738D01*
X14634286Y-16231119D01*
X14643809Y-16202548D01*
X14653333Y-16183500D01*
X14672381Y-16154928D01*
X14681905Y-16145405D01*
X14748571Y-16193024D02*
X14758095Y-16183500D01*
X14777143Y-16173976D01*
X14824762Y-16173976D01*
X14843809Y-16183500D01*
X14853333Y-16193024D01*
X14862857Y-16212071D01*
X14862857Y-16231119D01*
X14853333Y-16259690D01*
X14739048Y-16373976D01*
X14862857Y-16373976D01*
X15100952Y-16373976D02*
X15100952Y-16173976D01*
X15186667Y-16373976D02*
X15186667Y-16269214D01*
X15177143Y-16250167D01*
X15158095Y-16240643D01*
X15129524Y-16240643D01*
X15110476Y-16250167D01*
X15100952Y-16259690D01*
X15310476Y-16373976D02*
X15291428Y-16364452D01*
X15281905Y-16354928D01*
X15272381Y-16335881D01*
X15272381Y-16278738D01*
X15281905Y-16259690D01*
X15291428Y-16250167D01*
X15310476Y-16240643D01*
X15339048Y-16240643D01*
X15358095Y-16250167D01*
X15367619Y-16259690D01*
X15377143Y-16278738D01*
X15377143Y-16335881D01*
X15367619Y-16354928D01*
X15358095Y-16364452D01*
X15339048Y-16373976D01*
X15310476Y-16373976D01*
X15491428Y-16373976D02*
X15472381Y-16364452D01*
X15462857Y-16345405D01*
X15462857Y-16173976D01*
X15643809Y-16364452D02*
X15624762Y-16373976D01*
X15586667Y-16373976D01*
X15567619Y-16364452D01*
X15558095Y-16345405D01*
X15558095Y-16269214D01*
X15567619Y-16250167D01*
X15586667Y-16240643D01*
X15624762Y-16240643D01*
X15643809Y-16250167D01*
X15653333Y-16269214D01*
X15653333Y-16288262D01*
X15558095Y-16307309D01*
X15729524Y-16364452D02*
X15748571Y-16373976D01*
X15786667Y-16373976D01*
X15805714Y-16364452D01*
X15815238Y-16345405D01*
X15815238Y-16335881D01*
X15805714Y-16316833D01*
X15786667Y-16307309D01*
X15758095Y-16307309D01*
X15739048Y-16297786D01*
X15729524Y-16278738D01*
X15729524Y-16269214D01*
X15739048Y-16250167D01*
X15758095Y-16240643D01*
X15786667Y-16240643D01*
X15805714Y-16250167D01*
X15881905Y-16450167D02*
X15891428Y-16440643D01*
X15910476Y-16412071D01*
X15920000Y-16393024D01*
X15929524Y-16364452D01*
X15939048Y-16316833D01*
X15939048Y-16278738D01*
X15929524Y-16231119D01*
X15920000Y-16202548D01*
X15910476Y-16183500D01*
X15891428Y-16154928D01*
X15881905Y-16145405D01*
M02*
