%FSLAX45Y45*%
G04 Gerber Fmt 4.5, Leading zero omitted, Abs format (unit mm)*
G04 Created by KiCad (PCBNEW 6.0.0-d3dd2cf0fa~116~ubuntu20.04.1) date 2022-01-26 23:10:37*
%MOMM*%
%LPD*%
G01*
G04 APERTURE LIST*
%TA.AperFunction,Profile*%
%ADD10C,0.050000*%
%TD*%
%ADD11C,0.200000*%
G04 APERTURE END LIST*
D10*
X11112500Y-9334500D02*
X14795500Y-9334500D01*
X14795500Y-9334500D02*
X14795500Y-15113000D01*
X14795500Y-15113000D02*
X11112500Y-15113000D01*
X11112500Y-15113000D02*
X11112500Y-9334500D01*
D11*
X11367619Y-15425976D02*
X11367619Y-15225976D01*
X11415238Y-15225976D01*
X11443809Y-15235500D01*
X11462857Y-15254548D01*
X11472381Y-15273595D01*
X11481905Y-15311690D01*
X11481905Y-15340262D01*
X11472381Y-15378357D01*
X11462857Y-15397405D01*
X11443809Y-15416452D01*
X11415238Y-15425976D01*
X11367619Y-15425976D01*
X11567619Y-15425976D02*
X11567619Y-15292643D01*
X11567619Y-15330738D02*
X11577143Y-15311690D01*
X11586667Y-15302167D01*
X11605714Y-15292643D01*
X11624762Y-15292643D01*
X11691428Y-15425976D02*
X11691428Y-15292643D01*
X11691428Y-15225976D02*
X11681905Y-15235500D01*
X11691428Y-15245024D01*
X11700952Y-15235500D01*
X11691428Y-15225976D01*
X11691428Y-15245024D01*
X11815238Y-15425976D02*
X11796190Y-15416452D01*
X11786667Y-15397405D01*
X11786667Y-15225976D01*
X11920000Y-15425976D02*
X11900952Y-15416452D01*
X11891428Y-15397405D01*
X11891428Y-15225976D01*
X12148571Y-15425976D02*
X12148571Y-15225976D01*
X12215238Y-15368833D01*
X12281905Y-15225976D01*
X12281905Y-15425976D01*
X12462857Y-15425976D02*
X12462857Y-15321214D01*
X12453333Y-15302167D01*
X12434286Y-15292643D01*
X12396190Y-15292643D01*
X12377143Y-15302167D01*
X12462857Y-15416452D02*
X12443809Y-15425976D01*
X12396190Y-15425976D01*
X12377143Y-15416452D01*
X12367619Y-15397405D01*
X12367619Y-15378357D01*
X12377143Y-15359309D01*
X12396190Y-15349786D01*
X12443809Y-15349786D01*
X12462857Y-15340262D01*
X12558095Y-15292643D02*
X12558095Y-15492643D01*
X12558095Y-15302167D02*
X12577143Y-15292643D01*
X12615238Y-15292643D01*
X12634286Y-15302167D01*
X12643809Y-15311690D01*
X12653333Y-15330738D01*
X12653333Y-15387881D01*
X12643809Y-15406928D01*
X12634286Y-15416452D01*
X12615238Y-15425976D01*
X12577143Y-15425976D01*
X12558095Y-15416452D01*
X12739048Y-15406928D02*
X12748571Y-15416452D01*
X12739048Y-15425976D01*
X12729524Y-15416452D01*
X12739048Y-15406928D01*
X12739048Y-15425976D01*
X12739048Y-15302167D02*
X12748571Y-15311690D01*
X12739048Y-15321214D01*
X12729524Y-15311690D01*
X12739048Y-15302167D01*
X12739048Y-15321214D01*
M02*
