M48
; DRILL file {KiCad 6.0.7-f9a2dced07~116~ubuntu20.04.1} date ma. 12. sep. 2022 kl. 22.12 +0200
; FORMAT={-:-/ absolute / metric / decimal}
; #@! TF.CreationDate,2022-09-12T22:12:49+02:00
; #@! TF.GenerationSoftware,Kicad,Pcbnew,6.0.7-f9a2dced07~116~ubuntu20.04.1
; #@! TF.FileFunction,Plated,1,2,PTH
FMAT,2
METRIC
; #@! TA.AperFunction,Plated,PTH,ViaDrill
T1C0.300
; #@! TA.AperFunction,Plated,PTH,ViaDrill
T2C0.400
; #@! TA.AperFunction,Plated,PTH,ComponentDrill
T3C0.900
%
G90
G05
T1
X116.25Y-65.025
X116.275Y-64.125
X117.221Y-52.959
X118.313Y-65.532
X118.999Y-52.959
X119.024Y-64.821
X120.142Y-63.5
X120.777Y-52.959
X120.853Y-62.992
X121.107Y-65.481
X122.428Y-52.959
X122.885Y-62.687
X124.104Y-45.517
X125.832Y-53.188
X125.832Y-55.27
X126.644Y-46.431
X127.61Y-53.188
X127.61Y-55.27
X145.948Y-32.715
X147.93Y-50.648
T2
X116.4Y-70.2
X116.713Y-34.036
X116.713Y-36.576
X120.447Y-67.97
X121.412Y-67.97
X121.539Y-41.656
X122.0Y-30.988
X122.072Y-64.059
X122.4Y-56.8
X124.358Y-32.156
X124.968Y-40.767
X125.095Y-50.038
X128.016Y-36.576
X128.067Y-33.884
X128.727Y-41.199
X128.8Y-50.241
X129.743Y-45.364
X130.353Y-50.241
X132.334Y-67.056
X136.296Y-57.912
X143.967Y-57.912
X145.796Y-47.193
X146.66Y-67.0
T3
X121.82Y-36.461
X121.82Y-71.461
T0
M30
