M48
; DRILL file {KiCad 6.0.4-6f826c9f35~116~ubuntu20.04.1} date on. 04. mai 2022 kl. 20.12 +0200
; FORMAT={-:-/ absolute / metric / decimal}
; #@! TF.CreationDate,2022-05-04T20:12:11+02:00
; #@! TF.GenerationSoftware,Kicad,Pcbnew,6.0.4-6f826c9f35~116~ubuntu20.04.1
; #@! TF.FileFunction,Plated,1,2,PTH
FMAT,2
METRIC
; #@! TA.AperFunction,Plated,PTH,ViaDrill
T1C0.300
; #@! TA.AperFunction,Plated,PTH,ViaDrill
T2C0.400
; #@! TA.AperFunction,Plated,PTH,ComponentDrill
T3C0.900
%
G90
G05
T1
X116.25Y-65.025
X116.275Y-64.125
X116.84Y-36.068
X118.669Y-65.176
X120.142Y-63.5
X121.05Y-62.925
X121.05Y-65.425
X124.4Y-42.672
X124.816Y-28.804
X127.0Y-29.6
X127.406Y-34.595
X128.2Y-41.4
X132.634Y-34.6
X146.558Y-50.8
T2
X116.4Y-70.2
X118.11Y-35.052
X119.634Y-35.103
X121.056Y-39.116
X121.8Y-64.0
X122.0Y-31.4
X122.312Y-51.832
X122.4Y-56.8
X122.58Y-39.116
X124.358Y-32.156
X125.2Y-52.0
X125.2Y-53.0
X125.8Y-40.2
X125.984Y-50.652
X126.2Y-52.0
X126.2Y-53.0
X128.2Y-45.4
X128.2Y-52.0
X128.2Y-53.0
X128.8Y-50.0
X129.2Y-52.0
X129.2Y-53.0
X129.997Y-33.376
X130.048Y-36.779
X130.392Y-49.979
X131.877Y-67.0
X135.484Y-57.76
X143.2Y-57.709
X145.339Y-67.0
X148.8Y-47.6
T3
X121.718Y-36.182
X121.718Y-71.182
T0
M30
