%TF.GenerationSoftware,KiCad,Pcbnew,6.0.7-f9a2dced07~116~ubuntu20.04.1*%
%TF.CreationDate,2022-09-12T22:12:58+02:00*%
%TF.ProjectId,han_to_wifi_board,68616e5f-746f-45f7-9769-66695f626f61,rev?*%
%TF.SameCoordinates,Original*%
%TF.FileFunction,Drillmap*%
%TF.FilePolarity,Positive*%
%FSLAX45Y45*%
G04 Gerber Fmt 4.5, Leading zero omitted, Abs format (unit mm)*
G04 Created by KiCad (PCBNEW 6.0.7-f9a2dced07~116~ubuntu20.04.1) date 2022-09-12 22:12:58*
%MOMM*%
%LPD*%
G01*
G04 APERTURE LIST*
%ADD10C,0.050000*%
%ADD11C,0.200000*%
G04 APERTURE END LIST*
D10*
X14884400Y-2463800D02*
X11582400Y-2463800D01*
X11582400Y-7264400D02*
X14884400Y-7264400D01*
X11531600Y-2514600D02*
X11531600Y-7213600D01*
X11531600Y-7213600D02*
G75*
G03*
X11582400Y-7264400I50800J0D01*
G01*
X14884400Y-7264400D02*
G75*
G03*
X14935200Y-7213600I0J50800D01*
G01*
X14935200Y-7213600D02*
X14935200Y-2514600D01*
X11582400Y-2463800D02*
G75*
G03*
X11531600Y-2514600I0J-50800D01*
G01*
X14935200Y-2514600D02*
G75*
G03*
X14884400Y-2463800I-50800J0D01*
G01*
D11*
X11786719Y-7577376D02*
X11786719Y-7377376D01*
X11834338Y-7377376D01*
X11862909Y-7386900D01*
X11881957Y-7405948D01*
X11891481Y-7424995D01*
X11901005Y-7463090D01*
X11901005Y-7491662D01*
X11891481Y-7529757D01*
X11881957Y-7548805D01*
X11862909Y-7567852D01*
X11834338Y-7577376D01*
X11786719Y-7577376D01*
X11986719Y-7577376D02*
X11986719Y-7444043D01*
X11986719Y-7482138D02*
X11996243Y-7463090D01*
X12005767Y-7453567D01*
X12024814Y-7444043D01*
X12043862Y-7444043D01*
X12110528Y-7577376D02*
X12110528Y-7444043D01*
X12110528Y-7377376D02*
X12101005Y-7386900D01*
X12110528Y-7396424D01*
X12120052Y-7386900D01*
X12110528Y-7377376D01*
X12110528Y-7396424D01*
X12234338Y-7577376D02*
X12215290Y-7567852D01*
X12205767Y-7548805D01*
X12205767Y-7377376D01*
X12339100Y-7577376D02*
X12320052Y-7567852D01*
X12310528Y-7548805D01*
X12310528Y-7377376D01*
X12567671Y-7577376D02*
X12567671Y-7377376D01*
X12634338Y-7520233D01*
X12701005Y-7377376D01*
X12701005Y-7577376D01*
X12881957Y-7577376D02*
X12881957Y-7472614D01*
X12872433Y-7453567D01*
X12853386Y-7444043D01*
X12815290Y-7444043D01*
X12796243Y-7453567D01*
X12881957Y-7567852D02*
X12862909Y-7577376D01*
X12815290Y-7577376D01*
X12796243Y-7567852D01*
X12786719Y-7548805D01*
X12786719Y-7529757D01*
X12796243Y-7510709D01*
X12815290Y-7501186D01*
X12862909Y-7501186D01*
X12881957Y-7491662D01*
X12977195Y-7444043D02*
X12977195Y-7644043D01*
X12977195Y-7453567D02*
X12996243Y-7444043D01*
X13034338Y-7444043D01*
X13053386Y-7453567D01*
X13062909Y-7463090D01*
X13072433Y-7482138D01*
X13072433Y-7539281D01*
X13062909Y-7558328D01*
X13053386Y-7567852D01*
X13034338Y-7577376D01*
X12996243Y-7577376D01*
X12977195Y-7567852D01*
X13158148Y-7558328D02*
X13167671Y-7567852D01*
X13158148Y-7577376D01*
X13148624Y-7567852D01*
X13158148Y-7558328D01*
X13158148Y-7577376D01*
X13158148Y-7453567D02*
X13167671Y-7463090D01*
X13158148Y-7472614D01*
X13148624Y-7463090D01*
X13158148Y-7453567D01*
X13158148Y-7472614D01*
M02*
