%TF.GenerationSoftware,KiCad,Pcbnew,6.0.4-6f826c9f35~116~ubuntu20.04.1*%
%TF.CreationDate,2022-05-04T20:11:08+02:00*%
%TF.ProjectId,han_to_wifi_board,68616e5f-746f-45f7-9769-66695f626f61,rev?*%
%TF.SameCoordinates,Original*%
%TF.FileFunction,Legend,Bot*%
%TF.FilePolarity,Positive*%
%FSLAX46Y46*%
G04 Gerber Fmt 4.6, Leading zero omitted, Abs format (unit mm)*
G04 Created by KiCad (PCBNEW 6.0.4-6f826c9f35~116~ubuntu20.04.1) date 2022-05-04 20:11:08*
%MOMM*%
%LPD*%
G01*
G04 APERTURE LIST*
%ADD10C,0.150000*%
%ADD11C,1.524000*%
G04 APERTURE END LIST*
D10*
X146264404Y-28442380D02*
X146264404Y-27442380D01*
X146264404Y-27918571D02*
X145692976Y-27918571D01*
X145692976Y-28442380D02*
X145692976Y-27442380D01*
X145264404Y-28156666D02*
X144788214Y-28156666D01*
X145359642Y-28442380D02*
X145026309Y-27442380D01*
X144692976Y-28442380D01*
X144359642Y-28442380D02*
X144359642Y-27442380D01*
X143788214Y-28442380D01*
X143788214Y-27442380D01*
X143312023Y-28061428D02*
X142550119Y-28061428D01*
X142073928Y-28442380D02*
X142073928Y-27775714D01*
X142073928Y-27870952D02*
X142026309Y-27823333D01*
X141931071Y-27775714D01*
X141788214Y-27775714D01*
X141692976Y-27823333D01*
X141645357Y-27918571D01*
X141645357Y-28442380D01*
X141645357Y-27918571D02*
X141597738Y-27823333D01*
X141502500Y-27775714D01*
X141359642Y-27775714D01*
X141264404Y-27823333D01*
X141216785Y-27918571D01*
X141216785Y-28442380D01*
X140597738Y-28442380D02*
X140692976Y-28394761D01*
X140740595Y-28347142D01*
X140788214Y-28251904D01*
X140788214Y-27966190D01*
X140740595Y-27870952D01*
X140692976Y-27823333D01*
X140597738Y-27775714D01*
X140454880Y-27775714D01*
X140359642Y-27823333D01*
X140312023Y-27870952D01*
X140264404Y-27966190D01*
X140264404Y-28251904D01*
X140312023Y-28347142D01*
X140359642Y-28394761D01*
X140454880Y-28442380D01*
X140597738Y-28442380D01*
X139407261Y-28442380D02*
X139407261Y-27442380D01*
X139407261Y-28394761D02*
X139502500Y-28442380D01*
X139692976Y-28442380D01*
X139788214Y-28394761D01*
X139835833Y-28347142D01*
X139883452Y-28251904D01*
X139883452Y-27966190D01*
X139835833Y-27870952D01*
X139788214Y-27823333D01*
X139692976Y-27775714D01*
X139502500Y-27775714D01*
X139407261Y-27823333D01*
X138502500Y-27775714D02*
X138502500Y-28442380D01*
X138931071Y-27775714D02*
X138931071Y-28299523D01*
X138883452Y-28394761D01*
X138788214Y-28442380D01*
X138645357Y-28442380D01*
X138550119Y-28394761D01*
X138502500Y-28347142D01*
X137883452Y-28442380D02*
X137978690Y-28394761D01*
X138026309Y-28299523D01*
X138026309Y-27442380D01*
X146264404Y-30052380D02*
X146264404Y-29052380D01*
X145692976Y-30052380D01*
X145692976Y-29052380D01*
X145216785Y-30052380D02*
X145216785Y-29385714D01*
X145216785Y-29052380D02*
X145264404Y-29100000D01*
X145216785Y-29147619D01*
X145169166Y-29100000D01*
X145216785Y-29052380D01*
X145216785Y-29147619D01*
X144312023Y-30004761D02*
X144407261Y-30052380D01*
X144597738Y-30052380D01*
X144692976Y-30004761D01*
X144740595Y-29957142D01*
X144788214Y-29861904D01*
X144788214Y-29576190D01*
X144740595Y-29480952D01*
X144692976Y-29433333D01*
X144597738Y-29385714D01*
X144407261Y-29385714D01*
X144312023Y-29433333D01*
X143883452Y-30052380D02*
X143883452Y-29052380D01*
X143454880Y-30052380D02*
X143454880Y-29528571D01*
X143502500Y-29433333D01*
X143597738Y-29385714D01*
X143740595Y-29385714D01*
X143835833Y-29433333D01*
X143883452Y-29480952D01*
X142835833Y-30052380D02*
X142931071Y-30004761D01*
X142978690Y-29957142D01*
X143026309Y-29861904D01*
X143026309Y-29576190D01*
X142978690Y-29480952D01*
X142931071Y-29433333D01*
X142835833Y-29385714D01*
X142692976Y-29385714D01*
X142597738Y-29433333D01*
X142550119Y-29480952D01*
X142502500Y-29576190D01*
X142502500Y-29861904D01*
X142550119Y-29957142D01*
X142597738Y-30004761D01*
X142692976Y-30052380D01*
X142835833Y-30052380D01*
X141931071Y-30052380D02*
X142026309Y-30004761D01*
X142073928Y-29909523D01*
X142073928Y-29052380D01*
X141121547Y-30052380D02*
X141121547Y-29528571D01*
X141169166Y-29433333D01*
X141264404Y-29385714D01*
X141454880Y-29385714D01*
X141550119Y-29433333D01*
X141121547Y-30004761D02*
X141216785Y-30052380D01*
X141454880Y-30052380D01*
X141550119Y-30004761D01*
X141597738Y-29909523D01*
X141597738Y-29814285D01*
X141550119Y-29719047D01*
X141454880Y-29671428D01*
X141216785Y-29671428D01*
X141121547Y-29623809D01*
X140692976Y-30004761D02*
X140597738Y-30052380D01*
X140407261Y-30052380D01*
X140312023Y-30004761D01*
X140264404Y-29909523D01*
X140264404Y-29861904D01*
X140312023Y-29766666D01*
X140407261Y-29719047D01*
X140550119Y-29719047D01*
X140645357Y-29671428D01*
X140692976Y-29576190D01*
X140692976Y-29528571D01*
X140645357Y-29433333D01*
X140550119Y-29385714D01*
X140407261Y-29385714D01*
X140312023Y-29433333D01*
X138740595Y-29528571D02*
X138597738Y-29576190D01*
X138550119Y-29623809D01*
X138502500Y-29719047D01*
X138502500Y-29861904D01*
X138550119Y-29957142D01*
X138597738Y-30004761D01*
X138692976Y-30052380D01*
X139073928Y-30052380D01*
X139073928Y-29052380D01*
X138740595Y-29052380D01*
X138645357Y-29100000D01*
X138597738Y-29147619D01*
X138550119Y-29242857D01*
X138550119Y-29338095D01*
X138597738Y-29433333D01*
X138645357Y-29480952D01*
X138740595Y-29528571D01*
X139073928Y-29528571D01*
X138073928Y-30052380D02*
X138073928Y-29385714D01*
X138073928Y-29576190D02*
X138026309Y-29480952D01*
X137978690Y-29433333D01*
X137883452Y-29385714D01*
X137788214Y-29385714D01*
X137026309Y-30052380D02*
X137026309Y-29528571D01*
X137073928Y-29433333D01*
X137169166Y-29385714D01*
X137359642Y-29385714D01*
X137454880Y-29433333D01*
X137026309Y-30004761D02*
X137121547Y-30052380D01*
X137359642Y-30052380D01*
X137454880Y-30004761D01*
X137502500Y-29909523D01*
X137502500Y-29814285D01*
X137454880Y-29719047D01*
X137359642Y-29671428D01*
X137121547Y-29671428D01*
X137026309Y-29623809D01*
X136121547Y-30052380D02*
X136121547Y-29528571D01*
X136169166Y-29433333D01*
X136264404Y-29385714D01*
X136454880Y-29385714D01*
X136550119Y-29433333D01*
X136121547Y-30004761D02*
X136216785Y-30052380D01*
X136454880Y-30052380D01*
X136550119Y-30004761D01*
X136597738Y-29909523D01*
X136597738Y-29814285D01*
X136550119Y-29719047D01*
X136454880Y-29671428D01*
X136216785Y-29671428D01*
X136121547Y-29623809D01*
X135788214Y-29385714D02*
X135407261Y-29385714D01*
X135645357Y-29052380D02*
X135645357Y-29909523D01*
X135597738Y-30004761D01*
X135502500Y-30052380D01*
X135407261Y-30052380D01*
X134692976Y-30004761D02*
X134788214Y-30052380D01*
X134978690Y-30052380D01*
X135073928Y-30004761D01*
X135121547Y-29909523D01*
X135121547Y-29528571D01*
X135073928Y-29433333D01*
X134978690Y-29385714D01*
X134788214Y-29385714D01*
X134692976Y-29433333D01*
X134645357Y-29528571D01*
X134645357Y-29623809D01*
X135121547Y-29719047D01*
X134216785Y-29385714D02*
X134216785Y-30052380D01*
X134216785Y-29480952D02*
X134169166Y-29433333D01*
X134073928Y-29385714D01*
X133931071Y-29385714D01*
X133835833Y-29433333D01*
X133788214Y-29528571D01*
X133788214Y-30052380D01*
X146264404Y-31662380D02*
X146264404Y-30662380D01*
X145931071Y-31376666D01*
X145597738Y-30662380D01*
X145597738Y-31662380D01*
X144692976Y-31662380D02*
X144692976Y-31138571D01*
X144740595Y-31043333D01*
X144835833Y-30995714D01*
X145026309Y-30995714D01*
X145121547Y-31043333D01*
X144692976Y-31614761D02*
X144788214Y-31662380D01*
X145026309Y-31662380D01*
X145121547Y-31614761D01*
X145169166Y-31519523D01*
X145169166Y-31424285D01*
X145121547Y-31329047D01*
X145026309Y-31281428D01*
X144788214Y-31281428D01*
X144692976Y-31233809D01*
X144216785Y-31662380D02*
X144216785Y-30995714D01*
X144216785Y-30662380D02*
X144264404Y-30710000D01*
X144216785Y-30757619D01*
X144169166Y-30710000D01*
X144216785Y-30662380D01*
X144216785Y-30757619D01*
X143026309Y-30757619D02*
X142978690Y-30710000D01*
X142883452Y-30662380D01*
X142645357Y-30662380D01*
X142550119Y-30710000D01*
X142502500Y-30757619D01*
X142454880Y-30852857D01*
X142454880Y-30948095D01*
X142502500Y-31090952D01*
X143073928Y-31662380D01*
X142454880Y-31662380D01*
X141835833Y-30662380D02*
X141740595Y-30662380D01*
X141645357Y-30710000D01*
X141597738Y-30757619D01*
X141550119Y-30852857D01*
X141502500Y-31043333D01*
X141502500Y-31281428D01*
X141550119Y-31471904D01*
X141597738Y-31567142D01*
X141645357Y-31614761D01*
X141740595Y-31662380D01*
X141835833Y-31662380D01*
X141931071Y-31614761D01*
X141978690Y-31567142D01*
X142026309Y-31471904D01*
X142073928Y-31281428D01*
X142073928Y-31043333D01*
X142026309Y-30852857D01*
X141978690Y-30757619D01*
X141931071Y-30710000D01*
X141835833Y-30662380D01*
X141121547Y-30757619D02*
X141073928Y-30710000D01*
X140978690Y-30662380D01*
X140740595Y-30662380D01*
X140645357Y-30710000D01*
X140597738Y-30757619D01*
X140550119Y-30852857D01*
X140550119Y-30948095D01*
X140597738Y-31090952D01*
X141169166Y-31662380D01*
X140550119Y-31662380D01*
X140169166Y-30757619D02*
X140121547Y-30710000D01*
X140026309Y-30662380D01*
X139788214Y-30662380D01*
X139692976Y-30710000D01*
X139645357Y-30757619D01*
X139597738Y-30852857D01*
X139597738Y-30948095D01*
X139645357Y-31090952D01*
X140216785Y-31662380D01*
X139597738Y-31662380D01*
%LPC*%
D11*
%TO.C,C3*%
X121718400Y-71181600D03*
X121718400Y-36181600D03*
%TD*%
M02*
