%TF.GenerationSoftware,KiCad,Pcbnew,6.0.0-d3dd2cf0fa~116~ubuntu20.04.1*%
%TF.CreationDate,2022-01-26T23:10:16+01:00*%
%TF.ProjectId,han_to_wifi_board,68616e5f-746f-45f7-9769-66695f626f61,rev?*%
%TF.SameCoordinates,Original*%
%TF.FileFunction,Copper,L2,Bot*%
%TF.FilePolarity,Positive*%
%FSLAX46Y46*%
G04 Gerber Fmt 4.6, Leading zero omitted, Abs format (unit mm)*
G04 Created by KiCad (PCBNEW 6.0.0-d3dd2cf0fa~116~ubuntu20.04.1) date 2022-01-26 23:10:16*
%MOMM*%
%LPD*%
G01*
G04 APERTURE LIST*
%TA.AperFunction,ComponentPad*%
%ADD10C,1.524000*%
%TD*%
%TA.AperFunction,ViaPad*%
%ADD11C,0.600000*%
%TD*%
%TA.AperFunction,ViaPad*%
%ADD12C,0.800000*%
%TD*%
%TA.AperFunction,Conductor*%
%ADD13C,0.200000*%
%TD*%
G04 APERTURE END LIST*
D10*
%TO.P,C3,1*%
%TO.N,/24V*%
X119280000Y-148550000D03*
%TO.P,C3,2*%
%TO.N,GND*%
X119280000Y-113550000D03*
%TD*%
D11*
%TO.N,Net-(R16-Pad2)*%
X115189000Y-145592800D03*
D12*
%TO.N,GND*%
X116332000Y-143256000D03*
D11*
%TO.N,Net-(R16-Pad2)*%
X121412000Y-141986000D03*
%TO.N,GND*%
X114300000Y-142748000D03*
X114300000Y-141732000D03*
X115316000Y-142748000D03*
X113284000Y-142748000D03*
X115316000Y-141732000D03*
D12*
X133350000Y-137160000D03*
X123444000Y-111760000D03*
X132588000Y-125984000D03*
X138176000Y-124460000D03*
X131572000Y-121412000D03*
X125476000Y-122428000D03*
X123444000Y-117856000D03*
X120904000Y-117856000D03*
X118872000Y-118364000D03*
X116840000Y-117856000D03*
X125984000Y-126492000D03*
X121920000Y-130556000D03*
X116840000Y-135636000D03*
X118872000Y-135636000D03*
X123444000Y-138176000D03*
X119888000Y-136144000D03*
X119888000Y-146304000D03*
X117856000Y-143256000D03*
D11*
X113284000Y-141732000D03*
D12*
X113538000Y-149860000D03*
X128270000Y-143510000D03*
X145034000Y-143510000D03*
X140970000Y-137160000D03*
X144780000Y-124968000D03*
X142240000Y-124968000D03*
X146812000Y-121412000D03*
X146304000Y-117856000D03*
%TO.N,/~{RST}*%
X131572000Y-103632000D03*
X131572000Y-110236000D03*
%TD*%
D13*
%TO.N,Net-(R16-Pad2)*%
X115189000Y-145592800D02*
X120853200Y-145592800D01*
X120853200Y-145592800D02*
X121412000Y-145034000D01*
X121412000Y-145034000D02*
X121412000Y-141986000D01*
%TO.N,/~{RST}*%
X131572000Y-103632000D02*
X131572000Y-110236000D01*
%TD*%
%TA.AperFunction,Conductor*%
%TO.N,GND*%
G36*
X127450121Y-93565002D02*
G01*
X127496614Y-93618658D01*
X127508000Y-93671000D01*
X127508000Y-102616000D01*
X147629000Y-102616000D01*
X147697121Y-102636002D01*
X147743614Y-102689658D01*
X147755000Y-102742000D01*
X147755000Y-150804000D01*
X147734998Y-150872121D01*
X147681342Y-150918614D01*
X147629000Y-150930000D01*
X111451000Y-150930000D01*
X111382879Y-150909998D01*
X111336386Y-150856342D01*
X111325000Y-150804000D01*
X111325000Y-148536496D01*
X118312937Y-148536496D01*
X118328732Y-148724590D01*
X118380760Y-148906034D01*
X118467040Y-149073917D01*
X118470865Y-149078743D01*
X118470867Y-149078746D01*
X118580456Y-149217014D01*
X118580460Y-149217019D01*
X118584285Y-149221844D01*
X118728030Y-149344180D01*
X118733408Y-149347186D01*
X118733410Y-149347187D01*
X118810415Y-149390223D01*
X118892800Y-149436267D01*
X119072317Y-149494595D01*
X119259745Y-149516945D01*
X119265880Y-149516473D01*
X119265882Y-149516473D01*
X119441803Y-149502937D01*
X119441807Y-149502936D01*
X119447945Y-149502464D01*
X119453877Y-149500808D01*
X119453881Y-149500807D01*
X119623804Y-149453363D01*
X119623808Y-149453362D01*
X119629748Y-149451703D01*
X119709297Y-149411520D01*
X119792728Y-149369377D01*
X119792730Y-149369376D01*
X119798229Y-149366598D01*
X119946970Y-149250388D01*
X119950996Y-149245724D01*
X119950999Y-149245721D01*
X120066278Y-149112169D01*
X120066279Y-149112167D01*
X120070307Y-149107501D01*
X120163542Y-148943378D01*
X120223123Y-148764272D01*
X120246780Y-148577005D01*
X120247157Y-148550000D01*
X120228738Y-148362145D01*
X120174181Y-148181445D01*
X120085566Y-148014783D01*
X119966266Y-147868508D01*
X119960475Y-147863717D01*
X119825577Y-147752120D01*
X119825574Y-147752118D01*
X119820827Y-147748191D01*
X119654788Y-147658414D01*
X119474474Y-147602597D01*
X119468356Y-147601954D01*
X119468351Y-147601953D01*
X119292881Y-147583511D01*
X119292879Y-147583511D01*
X119286752Y-147582867D01*
X119171125Y-147593390D01*
X119104914Y-147599415D01*
X119104913Y-147599415D01*
X119098773Y-147599974D01*
X118917697Y-147653268D01*
X118750420Y-147740718D01*
X118603316Y-147858993D01*
X118481986Y-148003588D01*
X118391052Y-148168996D01*
X118333978Y-148348917D01*
X118312937Y-148536496D01*
X111325000Y-148536496D01*
X111325000Y-145586623D01*
X114683391Y-145586623D01*
X114701980Y-145728779D01*
X114759720Y-145860003D01*
X114765497Y-145866876D01*
X114765498Y-145866877D01*
X114789327Y-145895225D01*
X114851970Y-145969748D01*
X114971313Y-146049190D01*
X115108157Y-146091942D01*
X115117129Y-146092106D01*
X115117132Y-146092107D01*
X115182463Y-146093304D01*
X115251499Y-146094570D01*
X115260533Y-146092107D01*
X115381158Y-146059221D01*
X115381160Y-146059220D01*
X115389817Y-146056860D01*
X115511991Y-145981845D01*
X115522941Y-145969748D01*
X115554623Y-145934746D01*
X115615166Y-145897664D01*
X115648039Y-145893300D01*
X120800834Y-145893300D01*
X120803507Y-145893496D01*
X120808542Y-145895225D01*
X120820164Y-145894789D01*
X120820166Y-145894789D01*
X120857455Y-145893389D01*
X120862181Y-145893300D01*
X120881148Y-145893300D01*
X120885883Y-145892418D01*
X120889409Y-145892190D01*
X120893149Y-145892049D01*
X120920408Y-145891026D01*
X120931093Y-145886436D01*
X120935693Y-145885399D01*
X120947414Y-145881838D01*
X120951817Y-145880139D01*
X120963253Y-145878009D01*
X120984241Y-145865072D01*
X121000611Y-145856569D01*
X121015088Y-145850349D01*
X121015092Y-145850347D01*
X121023263Y-145846836D01*
X121028149Y-145842822D01*
X121030334Y-145840637D01*
X121032597Y-145838585D01*
X121032742Y-145838745D01*
X121041749Y-145831625D01*
X121048644Y-145825373D01*
X121058548Y-145819268D01*
X121075116Y-145797480D01*
X121086310Y-145784661D01*
X121587452Y-145283519D01*
X121589486Y-145281763D01*
X121594269Y-145279425D01*
X121627573Y-145243523D01*
X121630853Y-145240118D01*
X121644248Y-145226723D01*
X121646972Y-145222753D01*
X121649297Y-145220105D01*
X121662490Y-145205882D01*
X121670401Y-145197354D01*
X121674713Y-145186547D01*
X121677232Y-145182562D01*
X121683004Y-145171753D01*
X121684911Y-145167448D01*
X121691493Y-145157854D01*
X121697186Y-145133864D01*
X121702751Y-145116268D01*
X121708586Y-145101642D01*
X121711883Y-145093378D01*
X121712500Y-145087085D01*
X121712500Y-145084003D01*
X121712650Y-145080933D01*
X121712866Y-145080944D01*
X121714198Y-145069569D01*
X121714653Y-145060255D01*
X121717340Y-145048934D01*
X121713651Y-145021827D01*
X121712500Y-145004836D01*
X121712500Y-142448449D01*
X121732502Y-142380328D01*
X121745085Y-142363894D01*
X121825176Y-142275411D01*
X121825181Y-142275404D01*
X121831200Y-142268754D01*
X121893710Y-142139733D01*
X121917496Y-141998354D01*
X121917647Y-141986000D01*
X121897323Y-141844082D01*
X121837984Y-141713572D01*
X121819598Y-141692234D01*
X121750260Y-141611763D01*
X121750257Y-141611760D01*
X121744400Y-141604963D01*
X121624095Y-141526985D01*
X121486739Y-141485907D01*
X121477763Y-141485852D01*
X121477762Y-141485852D01*
X121417555Y-141485484D01*
X121343376Y-141485031D01*
X121205529Y-141524428D01*
X121084280Y-141600930D01*
X120989377Y-141708388D01*
X120928447Y-141838163D01*
X120906391Y-141979823D01*
X120907555Y-141988725D01*
X120907555Y-141988728D01*
X120908814Y-141998354D01*
X120924980Y-142121979D01*
X120982720Y-142253203D01*
X120988497Y-142260076D01*
X120988498Y-142260077D01*
X120995792Y-142268754D01*
X121069689Y-142356665D01*
X121074970Y-142362948D01*
X121074063Y-142363710D01*
X121106934Y-142416653D01*
X121111500Y-142450265D01*
X121111500Y-144857339D01*
X121091498Y-144925460D01*
X121074595Y-144946434D01*
X120765634Y-145255395D01*
X120703322Y-145289421D01*
X120676539Y-145292300D01*
X115648549Y-145292300D01*
X115580428Y-145272298D01*
X115553096Y-145248548D01*
X115527259Y-145218563D01*
X115521400Y-145211763D01*
X115401095Y-145133785D01*
X115263739Y-145092707D01*
X115254763Y-145092652D01*
X115254762Y-145092652D01*
X115194555Y-145092284D01*
X115120376Y-145091831D01*
X114982529Y-145131228D01*
X114861280Y-145207730D01*
X114766377Y-145315188D01*
X114705447Y-145444963D01*
X114683391Y-145586623D01*
X111325000Y-145586623D01*
X111325000Y-114608777D01*
X118585777Y-114608777D01*
X118595074Y-114620793D01*
X118638069Y-114650898D01*
X118647555Y-114656376D01*
X118838993Y-114745645D01*
X118849285Y-114749391D01*
X119053309Y-114804059D01*
X119064104Y-114805962D01*
X119274525Y-114824372D01*
X119285475Y-114824372D01*
X119495896Y-114805962D01*
X119506691Y-114804059D01*
X119710715Y-114749391D01*
X119721007Y-114745645D01*
X119912445Y-114656376D01*
X119921931Y-114650898D01*
X119965764Y-114620207D01*
X119974139Y-114609729D01*
X119967071Y-114596281D01*
X119292812Y-113922022D01*
X119278868Y-113914408D01*
X119277035Y-113914539D01*
X119270420Y-113918790D01*
X118592207Y-114597003D01*
X118585777Y-114608777D01*
X111325000Y-114608777D01*
X111325000Y-113555475D01*
X118005628Y-113555475D01*
X118024038Y-113765896D01*
X118025941Y-113776691D01*
X118080609Y-113980715D01*
X118084355Y-113991007D01*
X118173623Y-114182441D01*
X118179103Y-114191932D01*
X118209794Y-114235765D01*
X118220271Y-114244140D01*
X118233718Y-114237072D01*
X118907978Y-113562812D01*
X118914356Y-113551132D01*
X119644408Y-113551132D01*
X119644539Y-113552965D01*
X119648790Y-113559580D01*
X120327003Y-114237793D01*
X120338777Y-114244223D01*
X120350793Y-114234926D01*
X120380897Y-114191932D01*
X120386377Y-114182441D01*
X120475645Y-113991007D01*
X120479391Y-113980715D01*
X120534059Y-113776691D01*
X120535962Y-113765896D01*
X120554372Y-113555475D01*
X120554372Y-113544525D01*
X120535962Y-113334104D01*
X120534059Y-113323309D01*
X120479391Y-113119285D01*
X120475645Y-113108993D01*
X120386377Y-112917559D01*
X120380897Y-112908068D01*
X120350206Y-112864235D01*
X120339729Y-112855860D01*
X120326282Y-112862928D01*
X119652022Y-113537188D01*
X119644408Y-113551132D01*
X118914356Y-113551132D01*
X118915592Y-113548868D01*
X118915461Y-113547035D01*
X118911210Y-113540420D01*
X118232997Y-112862207D01*
X118221223Y-112855777D01*
X118209207Y-112865074D01*
X118179103Y-112908068D01*
X118173623Y-112917559D01*
X118084355Y-113108993D01*
X118080609Y-113119285D01*
X118025941Y-113323309D01*
X118024038Y-113334104D01*
X118005628Y-113544525D01*
X118005628Y-113555475D01*
X111325000Y-113555475D01*
X111325000Y-112490271D01*
X118585860Y-112490271D01*
X118592928Y-112503718D01*
X119267188Y-113177978D01*
X119281132Y-113185592D01*
X119282965Y-113185461D01*
X119289580Y-113181210D01*
X119967793Y-112502997D01*
X119974223Y-112491223D01*
X119964926Y-112479207D01*
X119921931Y-112449102D01*
X119912445Y-112443624D01*
X119721007Y-112354355D01*
X119710715Y-112350609D01*
X119506691Y-112295941D01*
X119495896Y-112294038D01*
X119285475Y-112275628D01*
X119274525Y-112275628D01*
X119064104Y-112294038D01*
X119053309Y-112295941D01*
X118849285Y-112350609D01*
X118838993Y-112354355D01*
X118647559Y-112443623D01*
X118638068Y-112449103D01*
X118594235Y-112479794D01*
X118585860Y-112490271D01*
X111325000Y-112490271D01*
X111325000Y-110236000D01*
X130966318Y-110236000D01*
X130986956Y-110392762D01*
X131047464Y-110538841D01*
X131143718Y-110664282D01*
X131269159Y-110760536D01*
X131415238Y-110821044D01*
X131572000Y-110841682D01*
X131580188Y-110840604D01*
X131720574Y-110822122D01*
X131728762Y-110821044D01*
X131874841Y-110760536D01*
X132000282Y-110664282D01*
X132096536Y-110538841D01*
X132157044Y-110392762D01*
X132177682Y-110236000D01*
X132157044Y-110079238D01*
X132096536Y-109933159D01*
X132000282Y-109807718D01*
X131921796Y-109747493D01*
X131879929Y-109690156D01*
X131872500Y-109647531D01*
X131872500Y-104220469D01*
X131892502Y-104152348D01*
X131921796Y-104120506D01*
X131993736Y-104065305D01*
X132000282Y-104060282D01*
X132096536Y-103934841D01*
X132157044Y-103788762D01*
X132177682Y-103632000D01*
X132157044Y-103475238D01*
X132096536Y-103329159D01*
X132000282Y-103203718D01*
X131874841Y-103107464D01*
X131728762Y-103046956D01*
X131572000Y-103026318D01*
X131415238Y-103046956D01*
X131269159Y-103107464D01*
X131143718Y-103203718D01*
X131047464Y-103329159D01*
X130986956Y-103475238D01*
X130966318Y-103632000D01*
X130986956Y-103788762D01*
X131047464Y-103934841D01*
X131143718Y-104060282D01*
X131150264Y-104065305D01*
X131222204Y-104120506D01*
X131264071Y-104177844D01*
X131271500Y-104220469D01*
X131271500Y-109647531D01*
X131251498Y-109715652D01*
X131222205Y-109747493D01*
X131143718Y-109807718D01*
X131047464Y-109933159D01*
X130986956Y-110079238D01*
X130966318Y-110236000D01*
X111325000Y-110236000D01*
X111325000Y-93671000D01*
X111345002Y-93602879D01*
X111398658Y-93556386D01*
X111451000Y-93545000D01*
X127382000Y-93545000D01*
X127450121Y-93565002D01*
G37*
%TD.AperFunction*%
%TD*%
M02*
