%TF.GenerationSoftware,KiCad,Pcbnew,6.0.7-f9a2dced07~116~ubuntu20.04.1*%
%TF.CreationDate,2022-09-12T22:11:20+02:00*%
%TF.ProjectId,han_to_wifi_board,68616e5f-746f-45f7-9769-66695f626f61,rev?*%
%TF.SameCoordinates,Original*%
%TF.FileFunction,Legend,Top*%
%TF.FilePolarity,Positive*%
%FSLAX46Y46*%
G04 Gerber Fmt 4.6, Leading zero omitted, Abs format (unit mm)*
G04 Created by KiCad (PCBNEW 6.0.7-f9a2dced07~116~ubuntu20.04.1) date 2022-09-12 22:11:20*
%MOMM*%
%LPD*%
G01*
G04 APERTURE LIST*
G04 Aperture macros list*
%AMRoundRect*
0 Rectangle with rounded corners*
0 $1 Rounding radius*
0 $2 $3 $4 $5 $6 $7 $8 $9 X,Y pos of 4 corners*
0 Add a 4 corners polygon primitive as box body*
4,1,4,$2,$3,$4,$5,$6,$7,$8,$9,$2,$3,0*
0 Add four circle primitives for the rounded corners*
1,1,$1+$1,$2,$3*
1,1,$1+$1,$4,$5*
1,1,$1+$1,$6,$7*
1,1,$1+$1,$8,$9*
0 Add four rect primitives between the rounded corners*
20,1,$1+$1,$2,$3,$4,$5,0*
20,1,$1+$1,$4,$5,$6,$7,0*
20,1,$1+$1,$6,$7,$8,$9,0*
20,1,$1+$1,$8,$9,$2,$3,0*%
G04 Aperture macros list end*
%ADD10C,0.150000*%
%ADD11C,0.254000*%
%ADD12C,0.200000*%
%ADD13C,0.120000*%
%ADD14C,0.100000*%
%ADD15C,0.250000*%
%ADD16R,1.550000X0.650000*%
%ADD17RoundRect,0.200000X-0.275000X0.200000X-0.275000X-0.200000X0.275000X-0.200000X0.275000X0.200000X0*%
%ADD18RoundRect,0.200000X0.200000X0.275000X-0.200000X0.275000X-0.200000X-0.275000X0.200000X-0.275000X0*%
%ADD19RoundRect,0.250000X0.475000X-0.250000X0.475000X0.250000X-0.475000X0.250000X-0.475000X-0.250000X0*%
%ADD20RoundRect,0.200000X-0.200000X-0.275000X0.200000X-0.275000X0.200000X0.275000X-0.200000X0.275000X0*%
%ADD21R,0.800000X1.150000*%
%ADD22RoundRect,0.225000X-0.250000X0.225000X-0.250000X-0.225000X0.250000X-0.225000X0.250000X0.225000X0*%
%ADD23RoundRect,0.218750X-0.256250X0.218750X-0.256250X-0.218750X0.256250X-0.218750X0.256250X0.218750X0*%
%ADD24R,2.500000X1.000000*%
%ADD25R,1.000000X1.800000*%
%ADD26C,1.524000*%
%ADD27RoundRect,0.250000X-0.250000X-0.475000X0.250000X-0.475000X0.250000X0.475000X-0.250000X0.475000X0*%
%ADD28R,1.800000X2.500000*%
%ADD29RoundRect,0.225000X0.250000X-0.225000X0.250000X0.225000X-0.250000X0.225000X-0.250000X-0.225000X0*%
%ADD30R,1.000000X1.450000*%
%ADD31RoundRect,0.200000X0.275000X-0.200000X0.275000X0.200000X-0.275000X0.200000X-0.275000X-0.200000X0*%
%ADD32R,0.760000X4.750000*%
%ADD33R,2.240000X3.510000*%
%ADD34R,0.600000X1.200000*%
%ADD35RoundRect,0.225000X-0.225000X-0.250000X0.225000X-0.250000X0.225000X0.250000X-0.225000X0.250000X0*%
%ADD36R,2.790000X1.903000*%
%ADD37R,0.300000X0.850000*%
%ADD38R,0.850000X0.300000*%
%ADD39R,1.250000X1.250000*%
%ADD40RoundRect,0.225000X0.225000X0.250000X-0.225000X0.250000X-0.225000X-0.250000X0.225000X-0.250000X0*%
%ADD41RoundRect,0.250000X-0.475000X0.250000X-0.475000X-0.250000X0.475000X-0.250000X0.475000X0.250000X0*%
%ADD42RoundRect,0.200000X0.200000X0.600000X-0.200000X0.600000X-0.200000X-0.600000X0.200000X-0.600000X0*%
%ADD43RoundRect,0.250001X0.799999X1.249999X-0.799999X1.249999X-0.799999X-1.249999X0.799999X-1.249999X0*%
G04 APERTURE END LIST*
D10*
X135980952Y-41452380D02*
X135980952Y-42166666D01*
X135933333Y-42309523D01*
X135838095Y-42404761D01*
X135695238Y-42452380D01*
X135600000Y-42452380D01*
X136933333Y-42452380D02*
X136457142Y-42452380D01*
X136457142Y-41452380D01*
X137838095Y-42357142D02*
X137790476Y-42404761D01*
X137647619Y-42452380D01*
X137552380Y-42452380D01*
X137409523Y-42404761D01*
X137314285Y-42309523D01*
X137266666Y-42214285D01*
X137219047Y-42023809D01*
X137219047Y-41880952D01*
X137266666Y-41690476D01*
X137314285Y-41595238D01*
X137409523Y-41500000D01*
X137552380Y-41452380D01*
X137647619Y-41452380D01*
X137790476Y-41500000D01*
X137838095Y-41547619D01*
X138552380Y-41452380D02*
X138552380Y-42166666D01*
X138504761Y-42309523D01*
X138409523Y-42404761D01*
X138266666Y-42452380D01*
X138171428Y-42452380D01*
X139504761Y-42452380D02*
X139028571Y-42452380D01*
X139028571Y-41452380D01*
X140409523Y-42357142D02*
X140361904Y-42404761D01*
X140219047Y-42452380D01*
X140123809Y-42452380D01*
X139980952Y-42404761D01*
X139885714Y-42309523D01*
X139838095Y-42214285D01*
X139790476Y-42023809D01*
X139790476Y-41880952D01*
X139838095Y-41690476D01*
X139885714Y-41595238D01*
X139980952Y-41500000D01*
X140123809Y-41452380D01*
X140219047Y-41452380D01*
X140361904Y-41500000D01*
X140409523Y-41547619D01*
X141123809Y-41452380D02*
X141123809Y-42166666D01*
X141076190Y-42309523D01*
X140980952Y-42404761D01*
X140838095Y-42452380D01*
X140742857Y-42452380D01*
X142076190Y-42452380D02*
X141600000Y-42452380D01*
X141600000Y-41452380D01*
X142980952Y-42357142D02*
X142933333Y-42404761D01*
X142790476Y-42452380D01*
X142695238Y-42452380D01*
X142552380Y-42404761D01*
X142457142Y-42309523D01*
X142409523Y-42214285D01*
X142361904Y-42023809D01*
X142361904Y-41880952D01*
X142409523Y-41690476D01*
X142457142Y-41595238D01*
X142552380Y-41500000D01*
X142695238Y-41452380D01*
X142790476Y-41452380D01*
X142933333Y-41500000D01*
X142980952Y-41547619D01*
X143695238Y-41452380D02*
X143695238Y-42166666D01*
X143647619Y-42309523D01*
X143552380Y-42404761D01*
X143409523Y-42452380D01*
X143314285Y-42452380D01*
X144647619Y-42452380D02*
X144171428Y-42452380D01*
X144171428Y-41452380D01*
X145552380Y-42357142D02*
X145504761Y-42404761D01*
X145361904Y-42452380D01*
X145266666Y-42452380D01*
X145123809Y-42404761D01*
X145028571Y-42309523D01*
X144980952Y-42214285D01*
X144933333Y-42023809D01*
X144933333Y-41880952D01*
X144980952Y-41690476D01*
X145028571Y-41595238D01*
X145123809Y-41500000D01*
X145266666Y-41452380D01*
X145361904Y-41452380D01*
X145504761Y-41500000D01*
X145552380Y-41547619D01*
%TO.C,U3*%
X119329295Y-44308780D02*
X119329295Y-45118304D01*
X119376914Y-45213542D01*
X119424533Y-45261161D01*
X119519771Y-45308780D01*
X119710247Y-45308780D01*
X119805485Y-45261161D01*
X119853104Y-45213542D01*
X119900723Y-45118304D01*
X119900723Y-44308780D01*
X120281676Y-44308780D02*
X120900723Y-44308780D01*
X120567390Y-44689733D01*
X120710247Y-44689733D01*
X120805485Y-44737352D01*
X120853104Y-44784971D01*
X120900723Y-44880209D01*
X120900723Y-45118304D01*
X120853104Y-45213542D01*
X120805485Y-45261161D01*
X120710247Y-45308780D01*
X120424533Y-45308780D01*
X120329295Y-45261161D01*
X120281676Y-45213542D01*
%TO.C,R7*%
X119578380Y-49315666D02*
X119102190Y-49649000D01*
X119578380Y-49887095D02*
X118578380Y-49887095D01*
X118578380Y-49506142D01*
X118626000Y-49410904D01*
X118673619Y-49363285D01*
X118768857Y-49315666D01*
X118911714Y-49315666D01*
X119006952Y-49363285D01*
X119054571Y-49410904D01*
X119102190Y-49506142D01*
X119102190Y-49887095D01*
X118578380Y-48982333D02*
X118578380Y-48315666D01*
X119578380Y-48744238D01*
%TO.C,R2*%
X146086533Y-52268380D02*
X145753200Y-51792190D01*
X145515104Y-52268380D02*
X145515104Y-51268380D01*
X145896057Y-51268380D01*
X145991295Y-51316000D01*
X146038914Y-51363619D01*
X146086533Y-51458857D01*
X146086533Y-51601714D01*
X146038914Y-51696952D01*
X145991295Y-51744571D01*
X145896057Y-51792190D01*
X145515104Y-51792190D01*
X146467485Y-51363619D02*
X146515104Y-51316000D01*
X146610342Y-51268380D01*
X146848438Y-51268380D01*
X146943676Y-51316000D01*
X146991295Y-51363619D01*
X147038914Y-51458857D01*
X147038914Y-51554095D01*
X146991295Y-51696952D01*
X146419866Y-52268380D01*
X147038914Y-52268380D01*
%TO.C,R10*%
X125087142Y-44546780D02*
X124753809Y-44070590D01*
X124515714Y-44546780D02*
X124515714Y-43546780D01*
X124896666Y-43546780D01*
X124991904Y-43594400D01*
X125039523Y-43642019D01*
X125087142Y-43737257D01*
X125087142Y-43880114D01*
X125039523Y-43975352D01*
X124991904Y-44022971D01*
X124896666Y-44070590D01*
X124515714Y-44070590D01*
X126039523Y-44546780D02*
X125468095Y-44546780D01*
X125753809Y-44546780D02*
X125753809Y-43546780D01*
X125658571Y-43689638D01*
X125563333Y-43784876D01*
X125468095Y-43832495D01*
X126658571Y-43546780D02*
X126753809Y-43546780D01*
X126849047Y-43594400D01*
X126896666Y-43642019D01*
X126944285Y-43737257D01*
X126991904Y-43927733D01*
X126991904Y-44165828D01*
X126944285Y-44356304D01*
X126896666Y-44451542D01*
X126849047Y-44499161D01*
X126753809Y-44546780D01*
X126658571Y-44546780D01*
X126563333Y-44499161D01*
X126515714Y-44451542D01*
X126468095Y-44356304D01*
X126420476Y-44165828D01*
X126420476Y-43927733D01*
X126468095Y-43737257D01*
X126515714Y-43642019D01*
X126563333Y-43594400D01*
X126658571Y-43546780D01*
%TO.C,C21*%
X122378742Y-59113657D02*
X122426361Y-59161276D01*
X122473980Y-59304133D01*
X122473980Y-59399371D01*
X122426361Y-59542228D01*
X122331123Y-59637466D01*
X122235885Y-59685085D01*
X122045409Y-59732704D01*
X121902552Y-59732704D01*
X121712076Y-59685085D01*
X121616838Y-59637466D01*
X121521600Y-59542228D01*
X121473980Y-59399371D01*
X121473980Y-59304133D01*
X121521600Y-59161276D01*
X121569219Y-59113657D01*
X121569219Y-58732704D02*
X121521600Y-58685085D01*
X121473980Y-58589847D01*
X121473980Y-58351752D01*
X121521600Y-58256514D01*
X121569219Y-58208895D01*
X121664457Y-58161276D01*
X121759695Y-58161276D01*
X121902552Y-58208895D01*
X122473980Y-58780323D01*
X122473980Y-58161276D01*
X122473980Y-57208895D02*
X122473980Y-57780323D01*
X122473980Y-57494609D02*
X121473980Y-57494609D01*
X121616838Y-57589847D01*
X121712076Y-57685085D01*
X121759695Y-57780323D01*
%TO.C,R13*%
X125087142Y-46070780D02*
X124753809Y-45594590D01*
X124515714Y-46070780D02*
X124515714Y-45070780D01*
X124896666Y-45070780D01*
X124991904Y-45118400D01*
X125039523Y-45166019D01*
X125087142Y-45261257D01*
X125087142Y-45404114D01*
X125039523Y-45499352D01*
X124991904Y-45546971D01*
X124896666Y-45594590D01*
X124515714Y-45594590D01*
X126039523Y-46070780D02*
X125468095Y-46070780D01*
X125753809Y-46070780D02*
X125753809Y-45070780D01*
X125658571Y-45213638D01*
X125563333Y-45308876D01*
X125468095Y-45356495D01*
X126372857Y-45070780D02*
X126991904Y-45070780D01*
X126658571Y-45451733D01*
X126801428Y-45451733D01*
X126896666Y-45499352D01*
X126944285Y-45546971D01*
X126991904Y-45642209D01*
X126991904Y-45880304D01*
X126944285Y-45975542D01*
X126896666Y-46023161D01*
X126801428Y-46070780D01*
X126515714Y-46070780D01*
X126420476Y-46023161D01*
X126372857Y-45975542D01*
%TO.C,D4*%
X128061980Y-70384895D02*
X127061980Y-70384895D01*
X127061980Y-70146800D01*
X127109600Y-70003942D01*
X127204838Y-69908704D01*
X127300076Y-69861085D01*
X127490552Y-69813466D01*
X127633409Y-69813466D01*
X127823885Y-69861085D01*
X127919123Y-69908704D01*
X128014361Y-70003942D01*
X128061980Y-70146800D01*
X128061980Y-70384895D01*
X127395314Y-68956323D02*
X128061980Y-68956323D01*
X127014361Y-69194419D02*
X127728647Y-69432514D01*
X127728647Y-68813466D01*
%TO.C,C19*%
X122531142Y-63431657D02*
X122578761Y-63479276D01*
X122626380Y-63622133D01*
X122626380Y-63717371D01*
X122578761Y-63860228D01*
X122483523Y-63955466D01*
X122388285Y-64003085D01*
X122197809Y-64050704D01*
X122054952Y-64050704D01*
X121864476Y-64003085D01*
X121769238Y-63955466D01*
X121674000Y-63860228D01*
X121626380Y-63717371D01*
X121626380Y-63622133D01*
X121674000Y-63479276D01*
X121721619Y-63431657D01*
X122626380Y-62479276D02*
X122626380Y-63050704D01*
X122626380Y-62764990D02*
X121626380Y-62764990D01*
X121769238Y-62860228D01*
X121864476Y-62955466D01*
X121912095Y-63050704D01*
X122626380Y-62003085D02*
X122626380Y-61812609D01*
X122578761Y-61717371D01*
X122531142Y-61669752D01*
X122388285Y-61574514D01*
X122197809Y-61526895D01*
X121816857Y-61526895D01*
X121721619Y-61574514D01*
X121674000Y-61622133D01*
X121626380Y-61717371D01*
X121626380Y-61907847D01*
X121674000Y-62003085D01*
X121721619Y-62050704D01*
X121816857Y-62098323D01*
X122054952Y-62098323D01*
X122150190Y-62050704D01*
X122197809Y-62003085D01*
X122245428Y-61907847D01*
X122245428Y-61717371D01*
X122197809Y-61622133D01*
X122150190Y-61574514D01*
X122054952Y-61526895D01*
%TO.C,D3*%
X126233180Y-34164495D02*
X125233180Y-34164495D01*
X125233180Y-33926400D01*
X125280800Y-33783542D01*
X125376038Y-33688304D01*
X125471276Y-33640685D01*
X125661752Y-33593066D01*
X125804609Y-33593066D01*
X125995085Y-33640685D01*
X126090323Y-33688304D01*
X126185561Y-33783542D01*
X126233180Y-33926400D01*
X126233180Y-34164495D01*
X125233180Y-33259733D02*
X125233180Y-32640685D01*
X125614133Y-32974019D01*
X125614133Y-32831161D01*
X125661752Y-32735923D01*
X125709371Y-32688304D01*
X125804609Y-32640685D01*
X126042704Y-32640685D01*
X126137942Y-32688304D01*
X126185561Y-32735923D01*
X126233180Y-32831161D01*
X126233180Y-33116876D01*
X126185561Y-33212114D01*
X126137942Y-33259733D01*
%TO.C,U1*%
X139311095Y-36129380D02*
X139311095Y-36938904D01*
X139358714Y-37034142D01*
X139406333Y-37081761D01*
X139501571Y-37129380D01*
X139692047Y-37129380D01*
X139787285Y-37081761D01*
X139834904Y-37034142D01*
X139882523Y-36938904D01*
X139882523Y-36129380D01*
X140882523Y-37129380D02*
X140311095Y-37129380D01*
X140596809Y-37129380D02*
X140596809Y-36129380D01*
X140501571Y-36272238D01*
X140406333Y-36367476D01*
X140311095Y-36415095D01*
%TO.C,C3*%
X123261428Y-71881952D02*
X123261428Y-71120047D01*
X123642380Y-71501000D02*
X122880476Y-71501000D01*
X122148552Y-35259971D02*
X121386647Y-35259971D01*
%TO.C,C12*%
X117157142Y-71357142D02*
X117109523Y-71404761D01*
X116966666Y-71452380D01*
X116871428Y-71452380D01*
X116728571Y-71404761D01*
X116633333Y-71309523D01*
X116585714Y-71214285D01*
X116538095Y-71023809D01*
X116538095Y-70880952D01*
X116585714Y-70690476D01*
X116633333Y-70595238D01*
X116728571Y-70500000D01*
X116871428Y-70452380D01*
X116966666Y-70452380D01*
X117109523Y-70500000D01*
X117157142Y-70547619D01*
X118109523Y-71452380D02*
X117538095Y-71452380D01*
X117823809Y-71452380D02*
X117823809Y-70452380D01*
X117728571Y-70595238D01*
X117633333Y-70690476D01*
X117538095Y-70738095D01*
X118490476Y-70547619D02*
X118538095Y-70500000D01*
X118633333Y-70452380D01*
X118871428Y-70452380D01*
X118966666Y-70500000D01*
X119014285Y-70547619D01*
X119061904Y-70642857D01*
X119061904Y-70738095D01*
X119014285Y-70880952D01*
X118442857Y-71452380D01*
X119061904Y-71452380D01*
%TO.C,C2*%
X130655542Y-51566666D02*
X130703161Y-51614285D01*
X130750780Y-51757142D01*
X130750780Y-51852380D01*
X130703161Y-51995238D01*
X130607923Y-52090476D01*
X130512685Y-52138095D01*
X130322209Y-52185714D01*
X130179352Y-52185714D01*
X129988876Y-52138095D01*
X129893638Y-52090476D01*
X129798400Y-51995238D01*
X129750780Y-51852380D01*
X129750780Y-51757142D01*
X129798400Y-51614285D01*
X129846019Y-51566666D01*
X129846019Y-51185714D02*
X129798400Y-51138095D01*
X129750780Y-51042857D01*
X129750780Y-50804761D01*
X129798400Y-50709523D01*
X129846019Y-50661904D01*
X129941257Y-50614285D01*
X130036495Y-50614285D01*
X130179352Y-50661904D01*
X130750780Y-51233333D01*
X130750780Y-50614285D01*
%TO.C,D2*%
X126833504Y-63427180D02*
X126833504Y-62427180D01*
X127071600Y-62427180D01*
X127214457Y-62474800D01*
X127309695Y-62570038D01*
X127357314Y-62665276D01*
X127404933Y-62855752D01*
X127404933Y-62998609D01*
X127357314Y-63189085D01*
X127309695Y-63284323D01*
X127214457Y-63379561D01*
X127071600Y-63427180D01*
X126833504Y-63427180D01*
X127785885Y-62522419D02*
X127833504Y-62474800D01*
X127928742Y-62427180D01*
X128166838Y-62427180D01*
X128262076Y-62474800D01*
X128309695Y-62522419D01*
X128357314Y-62617657D01*
X128357314Y-62712895D01*
X128309695Y-62855752D01*
X127738266Y-63427180D01*
X128357314Y-63427180D01*
%TO.C,R11*%
X128272780Y-58250057D02*
X127796590Y-58583390D01*
X128272780Y-58821485D02*
X127272780Y-58821485D01*
X127272780Y-58440533D01*
X127320400Y-58345295D01*
X127368019Y-58297676D01*
X127463257Y-58250057D01*
X127606114Y-58250057D01*
X127701352Y-58297676D01*
X127748971Y-58345295D01*
X127796590Y-58440533D01*
X127796590Y-58821485D01*
X128272780Y-57297676D02*
X128272780Y-57869104D01*
X128272780Y-57583390D02*
X127272780Y-57583390D01*
X127415638Y-57678628D01*
X127510876Y-57773866D01*
X127558495Y-57869104D01*
X128272780Y-56345295D02*
X128272780Y-56916723D01*
X128272780Y-56631009D02*
X127272780Y-56631009D01*
X127415638Y-56726247D01*
X127510876Y-56821485D01*
X127558495Y-56916723D01*
%TO.C,C7*%
X116435142Y-51601666D02*
X116482761Y-51649285D01*
X116530380Y-51792142D01*
X116530380Y-51887380D01*
X116482761Y-52030238D01*
X116387523Y-52125476D01*
X116292285Y-52173095D01*
X116101809Y-52220714D01*
X115958952Y-52220714D01*
X115768476Y-52173095D01*
X115673238Y-52125476D01*
X115578000Y-52030238D01*
X115530380Y-51887380D01*
X115530380Y-51792142D01*
X115578000Y-51649285D01*
X115625619Y-51601666D01*
X115530380Y-51268333D02*
X115530380Y-50601666D01*
X116530380Y-51030238D01*
%TO.C,RST*%
X128484380Y-31379980D02*
X128151047Y-30903790D01*
X127912952Y-31379980D02*
X127912952Y-30379980D01*
X128293904Y-30379980D01*
X128389142Y-30427600D01*
X128436761Y-30475219D01*
X128484380Y-30570457D01*
X128484380Y-30713314D01*
X128436761Y-30808552D01*
X128389142Y-30856171D01*
X128293904Y-30903790D01*
X127912952Y-30903790D01*
X128865333Y-31332361D02*
X129008190Y-31379980D01*
X129246285Y-31379980D01*
X129341523Y-31332361D01*
X129389142Y-31284742D01*
X129436761Y-31189504D01*
X129436761Y-31094266D01*
X129389142Y-30999028D01*
X129341523Y-30951409D01*
X129246285Y-30903790D01*
X129055809Y-30856171D01*
X128960571Y-30808552D01*
X128912952Y-30760933D01*
X128865333Y-30665695D01*
X128865333Y-30570457D01*
X128912952Y-30475219D01*
X128960571Y-30427600D01*
X129055809Y-30379980D01*
X129293904Y-30379980D01*
X129436761Y-30427600D01*
X129722476Y-30379980D02*
X130293904Y-30379980D01*
X130008190Y-31379980D02*
X130008190Y-30379980D01*
%TO.C,R8*%
X127553980Y-51322266D02*
X127077790Y-51655600D01*
X127553980Y-51893695D02*
X126553980Y-51893695D01*
X126553980Y-51512742D01*
X126601600Y-51417504D01*
X126649219Y-51369885D01*
X126744457Y-51322266D01*
X126887314Y-51322266D01*
X126982552Y-51369885D01*
X127030171Y-51417504D01*
X127077790Y-51512742D01*
X127077790Y-51893695D01*
X126982552Y-50750838D02*
X126934933Y-50846076D01*
X126887314Y-50893695D01*
X126792076Y-50941314D01*
X126744457Y-50941314D01*
X126649219Y-50893695D01*
X126601600Y-50846076D01*
X126553980Y-50750838D01*
X126553980Y-50560361D01*
X126601600Y-50465123D01*
X126649219Y-50417504D01*
X126744457Y-50369885D01*
X126792076Y-50369885D01*
X126887314Y-50417504D01*
X126934933Y-50465123D01*
X126982552Y-50560361D01*
X126982552Y-50750838D01*
X127030171Y-50846076D01*
X127077790Y-50893695D01*
X127173028Y-50941314D01*
X127363504Y-50941314D01*
X127458742Y-50893695D01*
X127506361Y-50846076D01*
X127553980Y-50750838D01*
X127553980Y-50560361D01*
X127506361Y-50465123D01*
X127458742Y-50417504D01*
X127363504Y-50369885D01*
X127173028Y-50369885D01*
X127077790Y-50417504D01*
X127030171Y-50465123D01*
X126982552Y-50560361D01*
D11*
%TO.C,J1*%
X139073466Y-61788523D02*
X139073466Y-62695666D01*
X139012990Y-62877095D01*
X138892038Y-62998047D01*
X138710609Y-63058523D01*
X138589657Y-63058523D01*
X140343466Y-63058523D02*
X139617752Y-63058523D01*
X139980609Y-63058523D02*
X139980609Y-61788523D01*
X139859657Y-61969952D01*
X139738704Y-62090904D01*
X139617752Y-62151380D01*
D10*
%TO.C,R4*%
X142174933Y-52268380D02*
X141841600Y-51792190D01*
X141603504Y-52268380D02*
X141603504Y-51268380D01*
X141984457Y-51268380D01*
X142079695Y-51316000D01*
X142127314Y-51363619D01*
X142174933Y-51458857D01*
X142174933Y-51601714D01*
X142127314Y-51696952D01*
X142079695Y-51744571D01*
X141984457Y-51792190D01*
X141603504Y-51792190D01*
X143032076Y-51601714D02*
X143032076Y-52268380D01*
X142793980Y-51220761D02*
X142555885Y-51935047D01*
X143174933Y-51935047D01*
%TO.C,IC1*%
X129128780Y-41108190D02*
X128128780Y-41108190D01*
X129033542Y-40060571D02*
X129081161Y-40108190D01*
X129128780Y-40251047D01*
X129128780Y-40346285D01*
X129081161Y-40489142D01*
X128985923Y-40584380D01*
X128890685Y-40632000D01*
X128700209Y-40679619D01*
X128557352Y-40679619D01*
X128366876Y-40632000D01*
X128271638Y-40584380D01*
X128176400Y-40489142D01*
X128128780Y-40346285D01*
X128128780Y-40251047D01*
X128176400Y-40108190D01*
X128224019Y-40060571D01*
X129128780Y-39108190D02*
X129128780Y-39679619D01*
X129128780Y-39393904D02*
X128128780Y-39393904D01*
X128271638Y-39489142D01*
X128366876Y-39584380D01*
X128414495Y-39679619D01*
%TO.C,R12*%
X126182380Y-39885857D02*
X125706190Y-40219190D01*
X126182380Y-40457285D02*
X125182380Y-40457285D01*
X125182380Y-40076333D01*
X125230000Y-39981095D01*
X125277619Y-39933476D01*
X125372857Y-39885857D01*
X125515714Y-39885857D01*
X125610952Y-39933476D01*
X125658571Y-39981095D01*
X125706190Y-40076333D01*
X125706190Y-40457285D01*
X126182380Y-38933476D02*
X126182380Y-39504904D01*
X126182380Y-39219190D02*
X125182380Y-39219190D01*
X125325238Y-39314428D01*
X125420476Y-39409666D01*
X125468095Y-39504904D01*
X125277619Y-38552523D02*
X125230000Y-38504904D01*
X125182380Y-38409666D01*
X125182380Y-38171571D01*
X125230000Y-38076333D01*
X125277619Y-38028714D01*
X125372857Y-37981095D01*
X125468095Y-37981095D01*
X125610952Y-38028714D01*
X126182380Y-38600142D01*
X126182380Y-37981095D01*
%TO.C,C20*%
X117146342Y-62568057D02*
X117193961Y-62615676D01*
X117241580Y-62758533D01*
X117241580Y-62853771D01*
X117193961Y-62996628D01*
X117098723Y-63091866D01*
X117003485Y-63139485D01*
X116813009Y-63187104D01*
X116670152Y-63187104D01*
X116479676Y-63139485D01*
X116384438Y-63091866D01*
X116289200Y-62996628D01*
X116241580Y-62853771D01*
X116241580Y-62758533D01*
X116289200Y-62615676D01*
X116336819Y-62568057D01*
X116336819Y-62187104D02*
X116289200Y-62139485D01*
X116241580Y-62044247D01*
X116241580Y-61806152D01*
X116289200Y-61710914D01*
X116336819Y-61663295D01*
X116432057Y-61615676D01*
X116527295Y-61615676D01*
X116670152Y-61663295D01*
X117241580Y-62234723D01*
X117241580Y-61615676D01*
X116241580Y-60996628D02*
X116241580Y-60901390D01*
X116289200Y-60806152D01*
X116336819Y-60758533D01*
X116432057Y-60710914D01*
X116622533Y-60663295D01*
X116860628Y-60663295D01*
X117051104Y-60710914D01*
X117146342Y-60758533D01*
X117193961Y-60806152D01*
X117241580Y-60901390D01*
X117241580Y-60996628D01*
X117193961Y-61091866D01*
X117146342Y-61139485D01*
X117051104Y-61187104D01*
X116860628Y-61234723D01*
X116622533Y-61234723D01*
X116432057Y-61187104D01*
X116336819Y-61139485D01*
X116289200Y-61091866D01*
X116241580Y-60996628D01*
%TO.C,R9*%
X124277380Y-51728666D02*
X123801190Y-52062000D01*
X124277380Y-52300095D02*
X123277380Y-52300095D01*
X123277380Y-51919142D01*
X123325000Y-51823904D01*
X123372619Y-51776285D01*
X123467857Y-51728666D01*
X123610714Y-51728666D01*
X123705952Y-51776285D01*
X123753571Y-51823904D01*
X123801190Y-51919142D01*
X123801190Y-52300095D01*
X124277380Y-51252476D02*
X124277380Y-51062000D01*
X124229761Y-50966761D01*
X124182142Y-50919142D01*
X124039285Y-50823904D01*
X123848809Y-50776285D01*
X123467857Y-50776285D01*
X123372619Y-50823904D01*
X123325000Y-50871523D01*
X123277380Y-50966761D01*
X123277380Y-51157238D01*
X123325000Y-51252476D01*
X123372619Y-51300095D01*
X123467857Y-51347714D01*
X123705952Y-51347714D01*
X123801190Y-51300095D01*
X123848809Y-51252476D01*
X123896428Y-51157238D01*
X123896428Y-50966761D01*
X123848809Y-50871523D01*
X123801190Y-50823904D01*
X123705952Y-50776285D01*
%TO.C,C1*%
X129055542Y-51366666D02*
X129103161Y-51414285D01*
X129150780Y-51557142D01*
X129150780Y-51652380D01*
X129103161Y-51795238D01*
X129007923Y-51890476D01*
X128912685Y-51938095D01*
X128722209Y-51985714D01*
X128579352Y-51985714D01*
X128388876Y-51938095D01*
X128293638Y-51890476D01*
X128198400Y-51795238D01*
X128150780Y-51652380D01*
X128150780Y-51557142D01*
X128198400Y-51414285D01*
X128246019Y-51366666D01*
X129150780Y-50414285D02*
X129150780Y-50985714D01*
X129150780Y-50700000D02*
X128150780Y-50700000D01*
X128293638Y-50795238D01*
X128388876Y-50890476D01*
X128436495Y-50985714D01*
%TO.C,PRGRM*%
X115636066Y-31484980D02*
X115636066Y-30484980D01*
X116017019Y-30484980D01*
X116112257Y-30532600D01*
X116159876Y-30580219D01*
X116207495Y-30675457D01*
X116207495Y-30818314D01*
X116159876Y-30913552D01*
X116112257Y-30961171D01*
X116017019Y-31008790D01*
X115636066Y-31008790D01*
X117207495Y-31484980D02*
X116874161Y-31008790D01*
X116636066Y-31484980D02*
X116636066Y-30484980D01*
X117017019Y-30484980D01*
X117112257Y-30532600D01*
X117159876Y-30580219D01*
X117207495Y-30675457D01*
X117207495Y-30818314D01*
X117159876Y-30913552D01*
X117112257Y-30961171D01*
X117017019Y-31008790D01*
X116636066Y-31008790D01*
X118159876Y-30532600D02*
X118064638Y-30484980D01*
X117921780Y-30484980D01*
X117778923Y-30532600D01*
X117683685Y-30627838D01*
X117636066Y-30723076D01*
X117588447Y-30913552D01*
X117588447Y-31056409D01*
X117636066Y-31246885D01*
X117683685Y-31342123D01*
X117778923Y-31437361D01*
X117921780Y-31484980D01*
X118017019Y-31484980D01*
X118159876Y-31437361D01*
X118207495Y-31389742D01*
X118207495Y-31056409D01*
X118017019Y-31056409D01*
X119207495Y-31484980D02*
X118874161Y-31008790D01*
X118636066Y-31484980D02*
X118636066Y-30484980D01*
X119017019Y-30484980D01*
X119112257Y-30532600D01*
X119159876Y-30580219D01*
X119207495Y-30675457D01*
X119207495Y-30818314D01*
X119159876Y-30913552D01*
X119112257Y-30961171D01*
X119017019Y-31008790D01*
X118636066Y-31008790D01*
X119636066Y-31484980D02*
X119636066Y-30484980D01*
X119969400Y-31199266D01*
X120302733Y-30484980D01*
X120302733Y-31484980D01*
%TO.C,L3*%
X118233333Y-57285680D02*
X117757142Y-57285680D01*
X117757142Y-56285680D01*
X118471428Y-56285680D02*
X119090476Y-56285680D01*
X118757142Y-56666633D01*
X118900000Y-56666633D01*
X118995238Y-56714252D01*
X119042857Y-56761871D01*
X119090476Y-56857109D01*
X119090476Y-57095204D01*
X119042857Y-57190442D01*
X118995238Y-57238061D01*
X118900000Y-57285680D01*
X118614285Y-57285680D01*
X118519047Y-57238061D01*
X118471428Y-57190442D01*
%TO.C,R3*%
X123439180Y-33745466D02*
X122962990Y-34078800D01*
X123439180Y-34316895D02*
X122439180Y-34316895D01*
X122439180Y-33935942D01*
X122486800Y-33840704D01*
X122534419Y-33793085D01*
X122629657Y-33745466D01*
X122772514Y-33745466D01*
X122867752Y-33793085D01*
X122915371Y-33840704D01*
X122962990Y-33935942D01*
X122962990Y-34316895D01*
X122439180Y-33412133D02*
X122439180Y-32793085D01*
X122820133Y-33126419D01*
X122820133Y-32983561D01*
X122867752Y-32888323D01*
X122915371Y-32840704D01*
X123010609Y-32793085D01*
X123248704Y-32793085D01*
X123343942Y-32840704D01*
X123391561Y-32888323D01*
X123439180Y-32983561D01*
X123439180Y-33269276D01*
X123391561Y-33364514D01*
X123343942Y-33412133D01*
%TO.C,C18*%
X122966742Y-69757142D02*
X122919123Y-69804761D01*
X122776266Y-69852380D01*
X122681028Y-69852380D01*
X122538171Y-69804761D01*
X122442933Y-69709523D01*
X122395314Y-69614285D01*
X122347695Y-69423809D01*
X122347695Y-69280952D01*
X122395314Y-69090476D01*
X122442933Y-68995238D01*
X122538171Y-68900000D01*
X122681028Y-68852380D01*
X122776266Y-68852380D01*
X122919123Y-68900000D01*
X122966742Y-68947619D01*
X123919123Y-69852380D02*
X123347695Y-69852380D01*
X123633409Y-69852380D02*
X123633409Y-68852380D01*
X123538171Y-68995238D01*
X123442933Y-69090476D01*
X123347695Y-69138095D01*
X124490552Y-69280952D02*
X124395314Y-69233333D01*
X124347695Y-69185714D01*
X124300076Y-69090476D01*
X124300076Y-69042857D01*
X124347695Y-68947619D01*
X124395314Y-68900000D01*
X124490552Y-68852380D01*
X124681028Y-68852380D01*
X124776266Y-68900000D01*
X124823885Y-68947619D01*
X124871504Y-69042857D01*
X124871504Y-69090476D01*
X124823885Y-69185714D01*
X124776266Y-69233333D01*
X124681028Y-69280952D01*
X124490552Y-69280952D01*
X124395314Y-69328571D01*
X124347695Y-69376190D01*
X124300076Y-69471428D01*
X124300076Y-69661904D01*
X124347695Y-69757142D01*
X124395314Y-69804761D01*
X124490552Y-69852380D01*
X124681028Y-69852380D01*
X124776266Y-69804761D01*
X124823885Y-69757142D01*
X124871504Y-69661904D01*
X124871504Y-69471428D01*
X124823885Y-69376190D01*
X124776266Y-69328571D01*
X124681028Y-69280952D01*
%TO.C,R1*%
X138415733Y-52268380D02*
X138082400Y-51792190D01*
X137844304Y-52268380D02*
X137844304Y-51268380D01*
X138225257Y-51268380D01*
X138320495Y-51316000D01*
X138368114Y-51363619D01*
X138415733Y-51458857D01*
X138415733Y-51601714D01*
X138368114Y-51696952D01*
X138320495Y-51744571D01*
X138225257Y-51792190D01*
X137844304Y-51792190D01*
X139368114Y-52268380D02*
X138796685Y-52268380D01*
X139082400Y-52268380D02*
X139082400Y-51268380D01*
X138987161Y-51411238D01*
X138891923Y-51506476D01*
X138796685Y-51554095D01*
%TO.C,R19*%
X124099980Y-63379257D02*
X123623790Y-63712590D01*
X124099980Y-63950685D02*
X123099980Y-63950685D01*
X123099980Y-63569733D01*
X123147600Y-63474495D01*
X123195219Y-63426876D01*
X123290457Y-63379257D01*
X123433314Y-63379257D01*
X123528552Y-63426876D01*
X123576171Y-63474495D01*
X123623790Y-63569733D01*
X123623790Y-63950685D01*
X124099980Y-62426876D02*
X124099980Y-62998304D01*
X124099980Y-62712590D02*
X123099980Y-62712590D01*
X123242838Y-62807828D01*
X123338076Y-62903066D01*
X123385695Y-62998304D01*
X124099980Y-61950685D02*
X124099980Y-61760209D01*
X124052361Y-61664971D01*
X124004742Y-61617352D01*
X123861885Y-61522114D01*
X123671409Y-61474495D01*
X123290457Y-61474495D01*
X123195219Y-61522114D01*
X123147600Y-61569733D01*
X123099980Y-61664971D01*
X123099980Y-61855447D01*
X123147600Y-61950685D01*
X123195219Y-61998304D01*
X123290457Y-62045923D01*
X123528552Y-62045923D01*
X123623790Y-61998304D01*
X123671409Y-61950685D01*
X123719028Y-61855447D01*
X123719028Y-61664971D01*
X123671409Y-61569733D01*
X123623790Y-61522114D01*
X123528552Y-61474495D01*
%TO.C,C11*%
X125833142Y-52204857D02*
X125880761Y-52252476D01*
X125928380Y-52395333D01*
X125928380Y-52490571D01*
X125880761Y-52633428D01*
X125785523Y-52728666D01*
X125690285Y-52776285D01*
X125499809Y-52823904D01*
X125356952Y-52823904D01*
X125166476Y-52776285D01*
X125071238Y-52728666D01*
X124976000Y-52633428D01*
X124928380Y-52490571D01*
X124928380Y-52395333D01*
X124976000Y-52252476D01*
X125023619Y-52204857D01*
X125928380Y-51252476D02*
X125928380Y-51823904D01*
X125928380Y-51538190D02*
X124928380Y-51538190D01*
X125071238Y-51633428D01*
X125166476Y-51728666D01*
X125214095Y-51823904D01*
X125928380Y-50300095D02*
X125928380Y-50871523D01*
X125928380Y-50585809D02*
X124928380Y-50585809D01*
X125071238Y-50681047D01*
X125166476Y-50776285D01*
X125214095Y-50871523D01*
%TO.C,J3*%
X124025066Y-27181180D02*
X124025066Y-27895466D01*
X123977447Y-28038323D01*
X123882209Y-28133561D01*
X123739352Y-28181180D01*
X123644114Y-28181180D01*
X124406019Y-27181180D02*
X125025066Y-27181180D01*
X124691733Y-27562133D01*
X124834590Y-27562133D01*
X124929828Y-27609752D01*
X124977447Y-27657371D01*
X125025066Y-27752609D01*
X125025066Y-27990704D01*
X124977447Y-28085942D01*
X124929828Y-28133561D01*
X124834590Y-28181180D01*
X124548876Y-28181180D01*
X124453638Y-28133561D01*
X124406019Y-28085942D01*
%TO.C,C6*%
X121134142Y-49315666D02*
X121181761Y-49363285D01*
X121229380Y-49506142D01*
X121229380Y-49601380D01*
X121181761Y-49744238D01*
X121086523Y-49839476D01*
X120991285Y-49887095D01*
X120800809Y-49934714D01*
X120657952Y-49934714D01*
X120467476Y-49887095D01*
X120372238Y-49839476D01*
X120277000Y-49744238D01*
X120229380Y-49601380D01*
X120229380Y-49506142D01*
X120277000Y-49363285D01*
X120324619Y-49315666D01*
X120229380Y-48458523D02*
X120229380Y-48649000D01*
X120277000Y-48744238D01*
X120324619Y-48791857D01*
X120467476Y-48887095D01*
X120657952Y-48934714D01*
X121038904Y-48934714D01*
X121134142Y-48887095D01*
X121181761Y-48839476D01*
X121229380Y-48744238D01*
X121229380Y-48553761D01*
X121181761Y-48458523D01*
X121134142Y-48410904D01*
X121038904Y-48363285D01*
X120800809Y-48363285D01*
X120705571Y-48410904D01*
X120657952Y-48458523D01*
X120610333Y-48553761D01*
X120610333Y-48744238D01*
X120657952Y-48839476D01*
X120705571Y-48887095D01*
X120800809Y-48934714D01*
%TO.C,R5*%
X126283980Y-36691866D02*
X125807790Y-37025200D01*
X126283980Y-37263295D02*
X125283980Y-37263295D01*
X125283980Y-36882342D01*
X125331600Y-36787104D01*
X125379219Y-36739485D01*
X125474457Y-36691866D01*
X125617314Y-36691866D01*
X125712552Y-36739485D01*
X125760171Y-36787104D01*
X125807790Y-36882342D01*
X125807790Y-37263295D01*
X125283980Y-35787104D02*
X125283980Y-36263295D01*
X125760171Y-36310914D01*
X125712552Y-36263295D01*
X125664933Y-36168057D01*
X125664933Y-35929961D01*
X125712552Y-35834723D01*
X125760171Y-35787104D01*
X125855409Y-35739485D01*
X126093504Y-35739485D01*
X126188742Y-35787104D01*
X126236361Y-35834723D01*
X126283980Y-35929961D01*
X126283980Y-36168057D01*
X126236361Y-36263295D01*
X126188742Y-36310914D01*
D12*
%TO.C,U3*%
X116591200Y-39736400D02*
X118141200Y-39736400D01*
D13*
%TO.C,R7*%
X119546900Y-51414142D02*
X119546900Y-51888658D01*
X118501900Y-51414142D02*
X118501900Y-51888658D01*
%TO.C,R2*%
X146502658Y-51170100D02*
X146028142Y-51170100D01*
X146502658Y-50125100D02*
X146028142Y-50125100D01*
%TO.C,R10*%
X128824258Y-44210500D02*
X128349742Y-44210500D01*
X128824258Y-43165500D02*
X128349742Y-43165500D01*
%TO.C,C21*%
X123112200Y-55496052D02*
X123112200Y-54973548D01*
X121642200Y-55496052D02*
X121642200Y-54973548D01*
%TO.C,R13*%
X128286742Y-45861500D02*
X128761258Y-45861500D01*
X128286742Y-44816500D02*
X128761258Y-44816500D01*
D12*
%TO.C,D4*%
X126809600Y-71971800D02*
X126809600Y-68301800D01*
X128409600Y-70991800D02*
X128409600Y-68301800D01*
D13*
%TO.C,C19*%
X122582400Y-65340620D02*
X122582400Y-65621780D01*
X121562400Y-65340620D02*
X121562400Y-65621780D01*
%TO.C,D3*%
X123623400Y-32119100D02*
X123623400Y-34404100D01*
X125093400Y-34404100D02*
X125093400Y-32119100D01*
X125093400Y-32119100D02*
X123623400Y-32119100D01*
%TO.C,C12*%
X117051148Y-70026200D02*
X117573652Y-70026200D01*
X117051148Y-68556200D02*
X117573652Y-68556200D01*
%TO.C,C2*%
X129741200Y-48360420D02*
X129741200Y-48641580D01*
X130761200Y-48360420D02*
X130761200Y-48641580D01*
%TO.C,D2*%
X125959600Y-66322400D02*
X125959600Y-60922400D01*
X125959600Y-66322400D02*
X129259600Y-66322400D01*
X129259600Y-66322400D02*
X129259600Y-60922400D01*
%TO.C,R11*%
X126912900Y-57369942D02*
X126912900Y-57844458D01*
X125867900Y-57369942D02*
X125867900Y-57844458D01*
%TO.C,C7*%
X116685600Y-51791180D02*
X116685600Y-51510020D01*
X117705600Y-51791180D02*
X117705600Y-51510020D01*
%TO.C,RST*%
X127019600Y-37527800D02*
X127269600Y-37527800D01*
X127019600Y-32607800D02*
X127019600Y-37527800D01*
X127019600Y-32607800D02*
X127269600Y-32607800D01*
X130489600Y-37527800D02*
X130739600Y-37527800D01*
X130739600Y-37527800D02*
X130739600Y-32607800D01*
X130489600Y-32607800D02*
X130739600Y-32607800D01*
%TO.C,R8*%
X126477500Y-48751258D02*
X126477500Y-48276742D01*
X127522500Y-48751258D02*
X127522500Y-48276742D01*
D14*
%TO.C,J1*%
X133496800Y-54957000D02*
X131496800Y-54957000D01*
X131551800Y-72496000D02*
X131551800Y-69457000D01*
D12*
X134096800Y-52957000D02*
X134096800Y-52957000D01*
X134096800Y-53156000D02*
X134096800Y-53156000D01*
D14*
X147441800Y-54957000D02*
X147441800Y-64457000D01*
X145496800Y-54957000D02*
X147441800Y-54957000D01*
X131496800Y-54957000D02*
X131551800Y-64457000D01*
X147441800Y-69457000D02*
X147441800Y-72496000D01*
X147441800Y-72496000D02*
X131551800Y-72496000D01*
D12*
X134096800Y-52957000D02*
G75*
G03*
X134096800Y-53156000I0J-99500D01*
G01*
X134096800Y-53156000D02*
G75*
G03*
X134096800Y-52957000I0J99500D01*
G01*
D13*
%TO.C,R4*%
X142142942Y-51170100D02*
X142617458Y-51170100D01*
X142142942Y-50125100D02*
X142617458Y-50125100D01*
%TO.C,R12*%
X124445500Y-42338258D02*
X124445500Y-41863742D01*
X125490500Y-42338258D02*
X125490500Y-41863742D01*
%TO.C,C20*%
X118634420Y-61262800D02*
X118915580Y-61262800D01*
X118634420Y-62282800D02*
X118915580Y-62282800D01*
%TO.C,R9*%
X122950500Y-51414142D02*
X122950500Y-51888658D01*
X121905500Y-51414142D02*
X121905500Y-51888658D01*
%TO.C,C1*%
X129186400Y-48360420D02*
X129186400Y-48641580D01*
X128166400Y-48360420D02*
X128166400Y-48641580D01*
%TO.C,PRGRM*%
X115728400Y-32728600D02*
X115728400Y-37648600D01*
X119448400Y-32728600D02*
X119198400Y-32728600D01*
X119448400Y-37648600D02*
X119198400Y-37648600D01*
X115978400Y-37648600D02*
X115728400Y-37648600D01*
X115978400Y-32728600D02*
X115728400Y-32728600D01*
X119448400Y-37648600D02*
X119448400Y-32728600D01*
%TO.C,L3*%
X121054800Y-54193300D02*
X120109800Y-54193300D01*
X115774800Y-54193300D02*
X116719800Y-54193300D01*
X121054800Y-59473300D02*
X121054800Y-54193300D01*
X120109800Y-59473300D02*
X121054800Y-59473300D01*
X116719800Y-59473300D02*
X115774800Y-59473300D01*
X115774800Y-59473300D02*
X115774800Y-54193300D01*
%TO.C,R3*%
X122188500Y-33290742D02*
X122188500Y-33765258D01*
X121143500Y-33290742D02*
X121143500Y-33765258D01*
D15*
%TO.C,IC3*%
X117293800Y-67051400D02*
G75*
G03*
X117293800Y-67051400I-125000J0D01*
G01*
D13*
%TO.C,C18*%
X120965580Y-69699600D02*
X120684420Y-69699600D01*
X120965580Y-68679600D02*
X120684420Y-68679600D01*
%TO.C,R1*%
X138383742Y-50125100D02*
X138858258Y-50125100D01*
X138383742Y-51170100D02*
X138858258Y-51170100D01*
%TO.C,R19*%
X123124700Y-65256142D02*
X123124700Y-65730658D01*
X124169700Y-65256142D02*
X124169700Y-65730658D01*
%TO.C,C11*%
X125830000Y-47871748D02*
X125830000Y-48394252D01*
X124360000Y-47871748D02*
X124360000Y-48394252D01*
%TO.C,J3*%
X128468400Y-25468800D02*
X128468400Y-25018800D01*
X128468400Y-28988800D02*
X128468400Y-29438800D01*
X128468400Y-25018800D02*
X120248400Y-25018800D01*
X120248400Y-29438800D02*
X121198400Y-29438800D01*
X128468400Y-29438800D02*
X127518400Y-29438800D01*
X120248400Y-28988800D02*
X120248400Y-29438800D01*
X120248400Y-25018800D02*
X120248400Y-25468800D01*
X127518400Y-29438800D02*
X127518400Y-30928800D01*
%TO.C,C6*%
X121287000Y-51536020D02*
X121287000Y-51817180D01*
X120267000Y-51536020D02*
X120267000Y-51817180D01*
%TO.C,R5*%
X123835900Y-36478942D02*
X123835900Y-36953458D01*
X124880900Y-36478942D02*
X124880900Y-36953458D01*
%TD*%
%LPC*%
D16*
%TO.C,U3*%
X117366200Y-40411400D03*
X117366200Y-41681400D03*
X117366200Y-42951400D03*
X117366200Y-44221400D03*
X117366200Y-45491400D03*
X117366200Y-46761400D03*
X117366200Y-48031400D03*
X117366200Y-49301400D03*
X122816200Y-49301400D03*
X122816200Y-48031400D03*
X122816200Y-46761400D03*
X122816200Y-45491400D03*
X122816200Y-44221400D03*
X122816200Y-42951400D03*
X122816200Y-41681400D03*
X122816200Y-40411400D03*
%TD*%
D17*
%TO.C,R7*%
X119024400Y-50826400D03*
X119024400Y-52476400D03*
%TD*%
D18*
%TO.C,R2*%
X147090400Y-50647600D03*
X145440400Y-50647600D03*
%TD*%
%TO.C,R10*%
X129412000Y-43688000D03*
X127762000Y-43688000D03*
%TD*%
D19*
%TO.C,C21*%
X122377200Y-56184800D03*
X122377200Y-54284800D03*
%TD*%
D20*
%TO.C,R13*%
X127699000Y-45339000D03*
X129349000Y-45339000D03*
%TD*%
D21*
%TO.C,D4*%
X127609600Y-71396800D03*
X127609600Y-67896800D03*
%TD*%
D22*
%TO.C,C19*%
X122072400Y-64706200D03*
X122072400Y-66256200D03*
%TD*%
D23*
%TO.C,D3*%
X124358400Y-32816600D03*
X124358400Y-34391600D03*
%TD*%
D24*
%TO.C,U1*%
X132481000Y-33261000D03*
X132481000Y-35261000D03*
X132481000Y-37261000D03*
X132481000Y-39261000D03*
X132481000Y-41261000D03*
X132481000Y-43261000D03*
X132481000Y-45261000D03*
X132481000Y-47261000D03*
D25*
X135081000Y-48761000D03*
X137081000Y-48761000D03*
X139081000Y-48761000D03*
X141081000Y-48761000D03*
X143081000Y-48761000D03*
X145081000Y-48761000D03*
D24*
X147681000Y-47261000D03*
X147681000Y-45261000D03*
X147681000Y-43261000D03*
X147681000Y-41261000D03*
X147681000Y-39261000D03*
X147681000Y-37261000D03*
X147681000Y-35261000D03*
X147681000Y-33261000D03*
%TD*%
D26*
%TO.C,C3*%
X121820000Y-71461000D03*
X121820000Y-36461000D03*
%TD*%
D27*
%TO.C,C12*%
X116362400Y-69291200D03*
X118262400Y-69291200D03*
%TD*%
D22*
%TO.C,C2*%
X130251200Y-47726000D03*
X130251200Y-49276000D03*
%TD*%
D28*
%TO.C,D2*%
X127609600Y-64922400D03*
X127609600Y-60922400D03*
%TD*%
D17*
%TO.C,R11*%
X126390400Y-56782200D03*
X126390400Y-58432200D03*
%TD*%
D29*
%TO.C,C7*%
X117195600Y-52425600D03*
X117195600Y-50875600D03*
%TD*%
D30*
%TO.C,RST*%
X128029600Y-32492800D03*
X128029600Y-37642800D03*
X129729600Y-37642800D03*
X129729600Y-32492800D03*
%TD*%
D31*
%TO.C,R8*%
X127000000Y-49339000D03*
X127000000Y-47689000D03*
%TD*%
D32*
%TO.C,J1*%
X135051800Y-54847000D03*
X136321800Y-54847000D03*
X137591800Y-54847000D03*
X138861800Y-54847000D03*
X140131800Y-54847000D03*
X141401800Y-54847000D03*
X142671800Y-54847000D03*
X143941800Y-54847000D03*
D33*
X131036800Y-67027000D03*
X147956800Y-67027000D03*
%TD*%
D20*
%TO.C,R4*%
X141555200Y-50647600D03*
X143205200Y-50647600D03*
%TD*%
D34*
%TO.C,IC1*%
X127726400Y-42042400D03*
X128676400Y-42042400D03*
X129626400Y-42042400D03*
X129626400Y-39542400D03*
X127726400Y-39542400D03*
%TD*%
D31*
%TO.C,R12*%
X124968000Y-42926000D03*
X124968000Y-41276000D03*
%TD*%
D35*
%TO.C,C20*%
X118000000Y-61772800D03*
X119550000Y-61772800D03*
%TD*%
D17*
%TO.C,R9*%
X122428000Y-50826400D03*
X122428000Y-52476400D03*
%TD*%
D22*
%TO.C,C1*%
X128676400Y-47726000D03*
X128676400Y-49276000D03*
%TD*%
D30*
%TO.C,PRGRM*%
X118438400Y-37763600D03*
X118438400Y-32613600D03*
X116738400Y-37763600D03*
X116738400Y-32613600D03*
%TD*%
D36*
%TO.C,L3*%
X118414800Y-59259800D03*
X118414800Y-54406800D03*
%TD*%
D17*
%TO.C,R3*%
X121666000Y-32703000D03*
X121666000Y-34353000D03*
%TD*%
D37*
%TO.C,IC3*%
X117918800Y-66626400D03*
X118418800Y-66626400D03*
X118918800Y-66626400D03*
X119418800Y-66626400D03*
D38*
X120118800Y-65926400D03*
X120118800Y-65426400D03*
X120118800Y-64926400D03*
X120118800Y-64426400D03*
D37*
X119418800Y-63726400D03*
X118918800Y-63726400D03*
X118418800Y-63726400D03*
X117918800Y-63726400D03*
D38*
X117218800Y-64426400D03*
X117218800Y-64926400D03*
X117218800Y-65426400D03*
X117218800Y-65926400D03*
D39*
X118668800Y-65176400D03*
%TD*%
D40*
%TO.C,C18*%
X121600000Y-69189600D03*
X120050000Y-69189600D03*
%TD*%
D20*
%TO.C,R1*%
X137796000Y-50647600D03*
X139446000Y-50647600D03*
%TD*%
D17*
%TO.C,R19*%
X123647200Y-64668400D03*
X123647200Y-66318400D03*
%TD*%
D41*
%TO.C,C11*%
X125095000Y-47183000D03*
X125095000Y-49083000D03*
%TD*%
D42*
%TO.C,J3*%
X126858400Y-30128800D03*
X125608400Y-30128800D03*
X124358400Y-30128800D03*
X123108400Y-30128800D03*
X121858400Y-30128800D03*
D43*
X119308400Y-27228800D03*
X129408400Y-27228800D03*
%TD*%
D22*
%TO.C,C6*%
X120777000Y-50901600D03*
X120777000Y-52451600D03*
%TD*%
D17*
%TO.C,R5*%
X124358400Y-35891200D03*
X124358400Y-37541200D03*
%TD*%
M02*
